<svg width="47.000000" height="49.000000" viewBox="0 0 47 49" fill="none" xmlns="http://www.w3.org/2000/svg" xmlns:xlink="http://www.w3.org/1999/xlink">
	<desc>
			Created with Pixso.
	</desc>
	<defs/>
	<path id="Vector" d="M7.81 20.38L28.78 16.78L27.99 13.4L7.06 16.85L7.81 20.38Z" fill="#D45553" fill-opacity="1.000000" fill-rule="evenodd"/>
	<path id="Vector" d="M10.96 34.66L11.75 38.23L20.3 36.54L20.3 36.5L20.3 32.86L10.96 34.66Z" fill="#D45553" fill-opacity="1.000000" fill-rule="evenodd"/>
	<path id="Vector" d="M9.76 29.26L20.26 27.35L20.26 24.54C20.26 24.28 20.3 24.01 20.34 23.75L8.98 25.78L9.76 29.26Z" fill="#D45553" fill-opacity="1.000000" fill-rule="evenodd"/>
	<path id="Vector" d="M20.26 42.05L9.65 44.23L2.71 12.46L29.98 8.15L32.15 17.79C32.64 17.75 33.13 17.75 33.61 17.71L29.53 -0.47L-0.77 3.95L8.49 46.33L20.3 43.89C20.3 43.85 20.3 43.78 20.3 43.74L20.26 42.05Z" fill="#D45553" fill-opacity="1.000000" fill-rule="evenodd"/>
	<path id="Vector" d="M34.29 36.5C27.65 36.5 22.29 34.36 22.29 31.7L22.29 36.5C22.29 39.16 27.65 41.3 34.29 41.3C40.92 41.3 46.29 39.16 46.29 36.5L46.29 31.7C46.29 34.36 40.89 36.5 34.29 36.5Z" fill="#D45553" fill-opacity="1.000000" fill-rule="evenodd"/>
	<path id="Vector" d="M34.29 43.7C27.65 43.7 22.29 41.56 22.29 38.9L22.29 43.7C22.29 46.36 27.65 48.5 34.29 48.5C40.92 48.5 46.29 46.36 46.29 43.7L46.29 38.9C46.29 41.56 40.89 43.7 34.29 43.7Z" fill="#D45553" fill-opacity="1.000000" fill-rule="evenodd"/>
	<path id="Vector" d="M34.29 19.74C27.65 19.74 22.29 21.88 22.29 24.54L22.29 29.34C22.29 32 27.65 34.14 34.29 34.14C40.92 34.14 46.29 32 46.29 29.34L46.29 24.54C46.29 21.88 40.89 19.74 34.29 19.74ZM34.29 28.1C27.69 28.1 23.49 25.96 23.49 24.5C23.49 23.04 27.69 20.9 34.29 20.9C40.89 20.9 45.09 23.04 45.09 24.5C45.09 26 40.89 28.1 34.29 28.1Z" fill="#D45553" fill-opacity="1.000000" fill-rule="evenodd"/>
</svg>
