<svg width="45.000000" height="45.000000" viewBox="0 0 45 45" fill="none" xmlns="http://www.w3.org/2000/svg" xmlns:xlink="http://www.w3.org/1999/xlink">
	<desc>
			Created with Pixso.
	</desc>
	<defs/>
	<path id="Vector" d="M0.73 44.07L5.23 44.07C6.09 44.07 6.73 43.43 6.73 42.57L6.73 41.07L23.67 41.07C27.42 41.07 31.14 40.02 34.33 37.99C39.13 34.99 42.46 30.04 43.44 24.45L43.74 22.62C43.89 21.83 43.63 20.97 43.1 20.29C42.58 19.65 41.79 19.28 40.92 19.28C40.44 19.28 40.03 19.39 39.65 19.58L39.65 16.32L40.4 16.32C40.7 16.32 41 16.17 41.08 15.9C41.15 15.64 41.11 15.3 40.92 15.12L35 9.08C34.7 8.78 34.21 8.78 33.95 9.08L32.26 10.77L32.26 0.57C32.26 0.15 31.96 -0.18 31.51 -0.18L24.01 -0.18C23.6 -0.18 23.26 0.12 23.26 0.57L23.26 8.82L20.26 8.82C19.66 7.54 19.25 6.87 18.95 6.38L20.86 1.77C21.09 1.24 20.98 0.72 20.56 0.34C20.19 -0.03 19.55 -0.15 19.06 0.12L17.64 0.87L16.74 -0.33C16.48 -0.63 16.14 -0.82 15.8 -0.86C15.42 -0.9 15.05 -0.75 14.79 -0.48L13.63 0.68L12.88 -0.33C12.61 -0.63 12.28 -0.82 11.94 -0.86C11.56 -0.9 11.19 -0.75 10.92 -0.48L9.5 0.94L7.33 0.3C6.8 0.15 6.28 0.34 5.94 0.79C5.64 1.2 5.56 1.73 5.83 2.22L8.11 6.42C6.54 7.73 4.55 11.82 4.55 15.45L4.55 17.78C4.55 20.25 6.58 22.28 9.05 22.28L17.3 22.28L24.09 22.28L30.09 22.28L37.89 22.28L36.31 25.47L32.19 27.23C31.7 25.69 30.28 24.53 28.63 24.53L17.83 24.53C13.92 24.53 10.21 25.58 6.88 27.64L6.88 25.99C6.88 25.13 6.24 24.49 5.38 24.49L0.73 24.49C-0.14 24.49 -0.77 25.13 -0.77 25.99L-0.77 42.49C-0.77 43.43 -0.14 44.07 0.73 44.07ZM9.09 2.4C9.5 2.52 10.03 2.4 10.36 2.1L11.75 0.72L12.5 1.73C12.76 2.03 13.1 2.22 13.44 2.25C13.78 2.29 14.19 2.14 14.45 1.88L15.61 0.72L16.48 1.88C16.85 2.4 17.53 2.52 18.13 2.25L19.17 1.73L17.53 5.85L15.46 5.85L16.4 3.94L15.09 3.3L13.81 5.89L12.5 5.89L11.45 3.72L10.06 4.35L10.81 5.89L9.5 5.89L7.4 1.99L9.09 2.4ZM16.48 9.57L16.48 20.82L8.98 20.82C7.33 20.82 5.98 19.43 5.98 17.82L5.98 15.49C5.98 11.48 8.45 7.69 9.2 7.28L17.67 7.28C17.79 7.43 18.05 7.8 18.54 8.78L17.23 8.78C16.81 8.82 16.48 9.12 16.48 9.57ZM17.98 10.35L23.23 10.35L23.23 20.85L17.98 20.85L17.98 10.35ZM34.48 10.62L38.67 14.82L30.31 14.82L34.48 10.62ZM24.73 1.35L30.73 1.35L30.73 12.3L27.91 15.12C27.69 15.34 27.65 15.64 27.76 15.9C27.88 16.17 28.14 16.39 28.44 16.39L29.19 16.39L29.19 20.89L24.69 20.89L24.69 1.35L24.73 1.35ZM30.73 16.32L38.23 16.32L38.23 20.82L36.73 20.82L36.73 17.82C36.73 17.4 36.42 17.07 35.98 17.07L32.98 17.07C32.56 17.07 32.23 17.37 32.23 17.82L32.23 20.82L30.73 20.82L30.73 16.32ZM35.23 20.82L33.73 20.82L33.73 18.57L35.23 18.57L35.23 20.82ZM17.64 26.07L28.44 26.07C29.64 26.07 30.73 27.08 30.73 28.35C30.73 29.63 29.71 30.64 28.44 30.64L16.48 30.64L16.48 32.14L28.48 32.14C30.39 32.14 31.92 30.72 32.19 28.92L37.06 26.85C37.21 26.82 37.36 26.63 37.44 26.48L39.88 21.6C40.14 21.19 40.55 20.85 41.04 20.85C41.41 20.85 41.79 21 42.05 21.34C42.31 21.64 42.42 22.02 42.35 22.39L42.05 24.23C41.15 29.4 38.08 33.98 33.58 36.79C30.61 38.63 27.24 39.6 23.71 39.6L6.73 39.6L6.73 29.48C9.99 27.23 13.74 26.07 17.64 26.07ZM0.73 26.07L5.23 26.07L5.23 42.57L0.73 42.57L0.73 26.07Z" fill="#D45553" fill-opacity="1.000000" fill-rule="evenodd"/>
	<path id="Vector" d="M2.23 28.35L3.73 28.35L3.73 30.64L2.23 30.64L2.23 28.35Z" fill="#010101" fill-opacity="1.000000" fill-rule="evenodd"/>
	<path id="Vector" d="M26.23 2.82L26.98 2.82L26.98 4.32L26.23 4.32L26.23 2.82Z" fill="#010101" fill-opacity="1.000000" fill-rule="evenodd"/>
	<path id="Vector" d="M28.51 2.82L29.26 2.82L29.26 4.32L28.51 4.32L28.51 2.82Z" fill="#010101" fill-opacity="1.000000" fill-rule="evenodd"/>
	<path id="Vector" d="M26.23 5.85L26.98 5.85L26.98 7.35L26.23 7.35L26.23 5.85Z" fill="#010101" fill-opacity="1.000000" fill-rule="evenodd"/>
	<path id="Vector" d="M28.51 5.85L29.26 5.85L29.26 7.35L28.51 7.35L28.51 5.85Z" fill="#010101" fill-opacity="1.000000" fill-rule="evenodd"/>
	<path id="Vector" d="M26.23 8.82L26.98 8.82L26.98 10.32L26.23 10.32L26.23 8.82Z" fill="#010101" fill-opacity="1.000000" fill-rule="evenodd"/>
	<path id="Vector" d="M28.51 8.82L29.26 8.82L29.26 10.32L28.51 10.32L28.51 8.82Z" fill="#010101" fill-opacity="1.000000" fill-rule="evenodd"/>
	<path id="Vector" d="M19.51 11.82L20.26 11.82L20.26 13.32L19.51 13.32L19.51 11.82Z" fill="#010101" fill-opacity="1.000000" fill-rule="evenodd"/>
	<path id="Vector" d="M21.73 11.82L22.48 11.82L22.48 13.32L21.73 13.32L21.73 11.82Z" fill="#010101" fill-opacity="1.000000" fill-rule="evenodd"/>
	<path id="Vector" d="M19.51 14.85L20.26 14.85L20.26 16.35L19.51 16.35L19.51 14.85Z" fill="#010101" fill-opacity="1.000000" fill-rule="evenodd"/>
	<path id="Vector" d="M21.73 14.85L22.48 14.85L22.48 16.35L21.73 16.35L21.73 14.85Z" fill="#010101" fill-opacity="1.000000" fill-rule="evenodd"/>
	<path id="Vector" d="M19.51 17.82L20.26 17.82L20.26 19.32L19.51 19.32L19.51 17.82Z" fill="#010101" fill-opacity="1.000000" fill-rule="evenodd"/>
	<path id="Vector" d="M21.73 17.82L22.48 17.82L22.48 19.32L21.73 19.32L21.73 17.82Z" fill="#010101" fill-opacity="1.000000" fill-rule="evenodd"/>
	<path id="Vector" d="M26.23 11.82L26.98 11.82L26.98 13.32L26.23 13.32L26.23 11.82Z" fill="#010101" fill-opacity="1.000000" fill-rule="evenodd"/>
	<path id="Vector" d="M28.51 11.82L29.26 11.82L29.26 13.32L28.51 13.32L28.51 11.82Z" fill="#010101" fill-opacity="1.000000" fill-rule="evenodd"/>
	<path id="Vector" d="M14.23 11.07L13.48 11.07L13.48 10.32L11.98 10.32L11.98 11.07L11.23 11.07C10.81 11.07 10.48 11.37 10.48 11.82L10.48 14.1C10.48 14.51 10.78 14.85 11.23 14.85L13.51 14.85L13.51 15.6L10.51 15.6L10.51 16.35C10.51 16.76 10.81 17.1 11.26 17.1L12.01 17.1L12.01 17.85L13.51 17.85L13.51 17.1L14.26 17.1C14.67 17.1 15.01 16.8 15.01 16.35L15.01 14.07C15.01 13.65 14.71 13.32 14.26 13.32L11.98 13.32L11.98 12.57L14.98 12.57L14.98 11.82C15.01 11.4 14.64 11.07 14.23 11.07Z" fill="#010101" fill-opacity="1.000000" fill-rule="evenodd"/>
	<path id="Vector" d="M37.51 0.57L39.01 0.57L39.01 2.07L37.51 2.07L37.51 0.57Z" fill="#010101" fill-opacity="1.000000" fill-rule="evenodd"/>
	<path id="Vector" d="M38.98 -0.93L40.48 -0.93L40.48 0.57L38.98 0.57L38.98 -0.93Z" fill="#010101" fill-opacity="1.000000" fill-rule="evenodd"/>
	<path id="Vector" d="M40.48 0.57L41.98 0.57L41.98 2.07L40.48 2.07L40.48 0.57Z" fill="#010101" fill-opacity="1.000000" fill-rule="evenodd"/>
	<path id="Vector" d="M38.98 2.07L40.48 2.07L40.48 3.57L38.98 3.57L38.98 2.07Z" fill="#010101" fill-opacity="1.000000" fill-rule="evenodd"/>
	<path id="Vector" d="M42.73 4.32L44.23 4.32L44.23 5.82L42.73 5.82L42.73 4.32Z" fill="#010101" fill-opacity="1.000000" fill-rule="evenodd"/>
	<path id="Vector" d="M37.51 6.57L39.01 6.57L39.01 8.07L37.51 8.07L37.51 6.57Z" fill="#010101" fill-opacity="1.000000" fill-rule="evenodd"/>
	<path id="Vector" d="M-0.77 5.85L0.73 5.85L0.73 7.35L-0.77 7.35L-0.77 5.85Z" fill="#010101" fill-opacity="1.000000" fill-rule="evenodd"/>
	<path id="Vector" d="M0.73 4.32L2.23 4.32L2.23 5.82L0.73 5.82L0.73 4.32Z" fill="#010101" fill-opacity="1.000000" fill-rule="evenodd"/>
	<path id="Vector" d="M2.23 5.85L3.73 5.85L3.73 7.35L2.23 7.35L2.23 5.85Z" fill="#010101" fill-opacity="1.000000" fill-rule="evenodd"/>
	<path id="Vector" d="M0.73 7.32L2.23 7.32L2.23 8.82L0.73 8.82L0.73 7.32Z" fill="#010101" fill-opacity="1.000000" fill-rule="evenodd"/>
	<path id="Vector" d="M-0.77 11.82L0.73 11.82L0.73 13.32L-0.77 13.32L-0.77 11.82Z" fill="#010101" fill-opacity="1.000000" fill-rule="evenodd"/>
	<path id="Vector" d="M2.23 -0.93L3.73 -0.93L3.73 0.57L2.23 0.57L2.23 -0.93Z" fill="#010101" fill-opacity="1.000000" fill-rule="evenodd"/>
</svg>
