<svg width="40.000000" height="49.000000" viewBox="0 0 40 49" fill="none" xmlns="http://www.w3.org/2000/svg" xmlns:xlink="http://www.w3.org/1999/xlink">
	<desc>
			Created with Pixso.
	</desc>
	<defs>
		<linearGradient id="paint_linear_4454_492_0" x1="-0.030694" y1="24.375496" x2="39.495346" y2="24.375496" gradientUnits="userSpaceOnUse">
			<stop stop-color="#FFCF44"/>
			<stop offset="1.000000" stop-color="#FDB515"/>
		</linearGradient>
		<linearGradient id="paint_linear_4454_493_0" x1="36.772186" y1="24.426678" x2="27.626709" y2="22.216080" gradientUnits="userSpaceOnUse">
			<stop stop-color="#FDB515" stop-opacity="0.000000"/>
			<stop offset="1.000000" stop-color="#F37121"/>
		</linearGradient>
		<linearGradient id="paint_linear_4454_495_0" x1="17.218100" y1="44.748032" x2="17.218100" y2="47.943794" gradientUnits="userSpaceOnUse">
			<stop stop-color="#ED2029" stop-opacity="0.000000"/>
			<stop offset="1.000000" stop-color="#C12026"/>
		</linearGradient>
	</defs>
	<path id="Vector" d="M39.45 5.55L34.24 46.69C34.09 48 32.7 48.94 31.24 48.83L2.29 45.83C0.83 45.68 -0.26 44.44 -0.11 43.13L5.1 2.06C5.25 0.75 6.64 -0.22 8.1 -0.07L37.05 2.85C38.55 3.04 39.64 4.2 39.45 5.55Z" fill="url(#paint_linear_4454_492_0)" fill-opacity="1.000000" fill-rule="evenodd"/>
	<path id="Vector" d="M34.16 2.59L34.5 45.08L39.23 7.16L34.16 2.59Z" fill="url(#paint_linear_4454_493_0)" fill-opacity="1.000000" fill-rule="evenodd"/>
	<path id="Vector" d="M34.5 3.68L34.5 45.08C34.5 46.46 33.3 47.51 31.84 47.51L2.63 47.51C1.09 47.51 -0.11 46.43 -0.11 45.08L-0.11 3.68C-0.11 2.29 1.09 1.24 2.63 1.24L31.73 1.24C33.26 1.28 34.5 2.36 34.5 3.68Z" fill="#D45653" fill-opacity="1.000000" fill-rule="evenodd"/>
	<path id="Vector" d="M34.5 43.16L34.5 45.08C34.5 46.46 33.3 47.51 31.84 47.51L2.63 47.51C1.09 47.51 -0.11 46.42 -0.11 45.08L-0.11 43.16L34.5 43.16Z" fill="url(#paint_linear_4454_495_0)" fill-opacity="1.000000" fill-rule="evenodd"/>
	<path id="Vector" d="M28.05 19.54C27.71 18.9 26.74 18.9 26.4 18.94C26.06 18.94 25.69 18.98 25.31 19.05C25.54 19.32 25.76 19.58 26.02 19.91C26.4 19.88 26.66 19.88 26.77 19.88C26.92 19.91 27 20.03 26.92 20.18C26.89 20.33 26.7 20.48 26.44 20.66C26.4 20.7 26.29 20.82 26.29 20.82C24.75 17.96 21.56 16.01 17.85 16.01C12.67 16.01 8.51 19.76 8.51 24.41C8.51 25.73 8.85 26.96 9.45 28.05C9.41 28.09 9.3 28.09 9.19 28.09C8.44 28.24 7.95 28.24 7.65 28.24C7.5 28.24 7.39 28.09 7.5 27.94C7.65 27.75 7.99 27.34 8.62 26.93C8.51 26.59 8.48 26.29 8.36 25.95C7.76 26.33 7.27 26.74 6.94 27.08C6.71 27.34 6.08 27.94 6.37 28.58C6.64 29.1 7.42 29.18 7.91 29.18C7.95 29.18 8.02 29.18 8.06 29.18C8.51 29.18 9.04 29.07 9.71 28.99C9.83 28.99 9.94 28.99 9.98 28.95C11.66 31.32 14.55 32.85 17.85 32.85C22.95 32.85 27.19 29.1 27.19 24.45C27.19 23.51 27.04 22.58 26.7 21.75C26.81 21.71 26.85 21.6 26.92 21.6C27.15 21.41 27.37 21.23 27.52 21.08C27.67 20.93 28.16 20.44 28.16 19.95C28.16 19.73 28.09 19.61 28.05 19.54ZM19.87 16.88C21.41 17.21 22.76 17.89 23.85 18.86C23.48 19.01 23.1 19.2 22.61 19.32C22.24 19.46 21.86 19.5 21.49 19.61C21.34 19.24 21.23 18.86 21.04 18.49C20.7 17.85 20.25 17.33 19.87 16.88ZM14.4 24.75L18.98 24.75L19.01 24.75C18.64 24.9 18.3 25.09 17.89 25.24C16.76 25.73 15.6 26.1 14.51 26.51C14.44 25.99 14.44 25.39 14.4 24.75ZM18.79 23.48C18.56 23.44 18.34 23.66 18.45 23.85L18.56 24L14.44 24C14.48 22.76 14.59 21.64 14.89 20.63C15.86 20.78 16.84 20.82 17.81 20.82C18.86 20.82 19.87 20.78 20.74 20.63C21 21.64 21.19 22.73 21.19 23.89L18.79 23.48ZM18.3 26.14C18.67 25.99 19.05 25.8 19.42 25.65L19.91 26.59C20.02 26.78 20.36 26.78 20.4 26.59L21.15 25.2C21.11 26.29 20.92 27.26 20.7 28.13C19.73 27.98 18.75 27.94 17.77 27.94C16.73 27.94 15.71 28.05 14.85 28.13C14.81 27.94 14.74 27.75 14.7 27.49C15.86 27.11 17.1 26.66 18.3 26.14ZM17.85 16.8C18.71 16.8 19.54 17.59 20.17 18.9C20.33 19.2 20.44 19.54 20.55 19.84C19.69 19.99 18.75 20.03 17.77 20.03C16.8 20.03 15.94 19.91 15 19.84C15.11 19.5 15.23 19.2 15.37 18.9C16.12 17.59 16.99 16.8 17.85 16.8ZM15.79 16.88C15.34 17.33 14.96 17.85 14.66 18.53C14.51 18.86 14.33 19.2 14.21 19.65C13.35 19.46 12.52 19.2 11.81 18.86C12.9 17.93 14.33 17.21 15.79 16.88ZM11.14 19.61C11.14 19.58 11.25 19.5 11.25 19.46C11.29 19.46 11.29 19.5 11.4 19.5C12.15 19.88 13.05 20.18 14.02 20.36C13.87 20.85 13.8 21.38 13.69 21.94C13.58 22.58 13.54 23.25 13.54 23.93L9.3 23.93C9.37 22.32 10.05 20.85 11.14 19.61ZM9.37 25.54C9.34 25.28 9.26 25.05 9.26 24.75L13.5 24.75C13.5 25.43 13.61 26.18 13.65 26.85C12.6 27.19 11.59 27.49 10.65 27.71C10.5 27.75 10.31 27.75 10.16 27.86C9.83 27.15 9.56 26.36 9.37 25.54ZM11.17 29.21C11.02 29.07 10.84 28.84 10.73 28.69C11.7 28.43 12.75 28.16 13.87 27.83C13.91 27.98 13.99 28.16 14.02 28.35C13.58 28.46 13.2 28.54 12.83 28.65C12.26 28.8 11.77 28.99 11.36 29.18C11.33 29.18 11.21 29.21 11.17 29.21ZM11.81 29.85C12.52 29.55 13.35 29.25 14.21 29.1C14.36 29.48 14.48 29.85 14.66 30.23C15 30.9 15.37 31.5 15.79 31.88C14.33 31.5 12.9 30.83 11.81 29.85ZM17.85 31.95C16.99 31.95 16.16 31.16 15.52 29.85C15.37 29.55 15.26 29.21 15.15 28.91C16.01 28.76 16.95 28.73 17.92 28.73C18.9 28.73 19.76 28.84 20.7 28.91C20.59 29.25 20.48 29.55 20.33 29.85C19.54 31.16 18.67 31.95 17.85 31.95ZM19.87 31.88C20.33 31.5 20.7 30.9 21 30.23C21.15 29.89 21.34 29.48 21.45 29.1C22.31 29.29 23.14 29.55 23.85 29.85C22.76 30.83 21.41 31.5 19.87 31.88ZM24.45 29.21C24.41 29.21 24.34 29.18 24.3 29.18C23.55 28.8 22.61 28.5 21.67 28.32C22.01 27.23 22.12 26.03 22.16 24.79L26.4 24.79C26.29 26.48 25.58 27.98 24.45 29.21ZM26.4 24L22.16 24C22.12 22.76 22.01 21.57 21.67 20.48C22.65 20.29 23.51 19.99 24.3 19.61C24.34 19.58 24.41 19.58 24.45 19.5C24.94 20.03 25.31 20.63 25.65 21.23C25.31 21.49 25.01 21.68 24.6 21.98C23.89 22.43 24.37 22.16 23.51 22.61C23.29 22.76 23.17 23.07 23.36 23.25C23.51 23.44 23.81 23.55 24.08 23.4C25.12 22.88 24.79 23.03 25.54 22.54C25.69 22.39 25.91 22.28 26.14 22.16C26.17 22.76 26.36 23.36 26.4 24Z" fill="#FFF3E9" fill-opacity="1.000000" fill-rule="evenodd"/>
	<path id="Vector" d="M3.94 12.04L3.94 8.21C3.94 8.18 3.98 8.1 4.05 8.06C4.09 8.03 4.16 8.03 4.2 8.03L5.44 8.03C5.89 8.03 6.19 8.14 6.49 8.33C6.75 8.51 6.86 8.85 6.86 9.3L6.86 9.34C6.86 9.79 6.71 10.13 6.41 10.31C6.15 10.5 5.78 10.65 5.33 10.65L4.58 10.65L4.58 12.08C4.58 12.11 4.54 12.23 4.46 12.23C4.43 12.26 4.31 12.26 4.2 12.26C4.09 12.26 4.05 12.26 3.94 12.23C4.01 12.08 3.94 12.04 3.94 12.04ZM4.65 10.09L5.4 10.09C5.66 10.09 5.85 9.98 6 9.9C6.15 9.79 6.15 9.6 6.15 9.38L6.15 9.26C6.15 9 6.11 8.81 6 8.66C5.89 8.51 5.66 8.48 5.4 8.48L4.65 8.48C4.65 8.59 4.65 10.09 4.65 10.09Z" fill="#FFF3E9" fill-opacity="1.000000" fill-rule="evenodd"/>
	<path id="Vector" d="M6.83 12L8.06 8.18C8.1 8.03 8.29 7.99 8.51 7.99C8.77 7.99 8.96 8.1 8.96 8.18L10.2 11.93L10.2 11.96C10.2 12.08 10.16 12.11 10.05 12.15C9.94 12.19 9.83 12.19 9.71 12.19C9.56 12.19 9.49 12.15 9.49 12.04L9.23 11.25L7.76 11.25L7.5 12.08C7.5 12.19 7.39 12.23 7.24 12.23C7.13 12.23 7.09 12.23 6.98 12.19C6.86 12.08 6.83 12.04 6.83 12ZM7.91 10.76L9.15 10.76L8.51 8.81L7.91 10.76Z" fill="#FFF3E9" fill-opacity="1.000000" fill-rule="evenodd"/>
	<path id="Vector" d="M10.58 11.55C10.58 11.44 10.58 11.4 10.69 11.36C10.73 11.25 10.84 11.25 10.91 11.25C10.99 11.25 11.02 11.29 11.06 11.36C11.1 11.4 11.21 11.48 11.29 11.51C11.33 11.55 11.44 11.66 11.55 11.7C11.7 11.74 11.81 11.74 12 11.74C12.26 11.74 12.45 11.7 12.6 11.59C12.75 11.48 12.83 11.29 12.83 11.1C12.83 10.91 12.79 10.76 12.6 10.65C12.41 10.54 12.26 10.39 12.04 10.35C11.89 10.31 11.59 10.2 11.4 10.09C11.17 10.05 11.02 9.9 10.91 9.71C10.8 9.53 10.69 9.34 10.69 9.08C10.69 8.89 10.73 8.7 10.84 8.55C10.95 8.4 11.06 8.29 11.21 8.21C11.36 8.14 11.48 8.06 11.66 8.03C11.81 8.03 12 7.99 12.23 7.99C12.34 7.99 12.49 7.99 12.6 8.03C12.75 8.03 12.83 8.03 12.98 8.14C13.13 8.14 13.2 8.18 13.31 8.29C13.42 8.33 13.42 8.44 13.42 8.48C13.42 8.59 13.42 8.63 13.39 8.74C13.35 8.85 13.27 8.89 13.16 8.89C13.13 8.89 13.05 8.85 13.01 8.85C12.9 8.81 12.86 8.74 12.75 8.7C12.64 8.66 12.49 8.66 12.3 8.66C12.04 8.66 11.85 8.7 11.7 8.81C11.55 8.93 11.48 9.08 11.48 9.19C11.48 9.34 11.48 9.38 11.59 9.49C11.63 9.6 11.74 9.64 11.85 9.68C11.96 9.71 12.11 9.79 12.3 9.83C12.49 9.86 12.56 9.98 12.75 9.98C12.9 10.09 13.01 10.13 13.2 10.24C13.31 10.35 13.42 10.5 13.54 10.61C13.65 10.76 13.65 10.95 13.65 11.21C13.65 11.59 13.5 11.96 13.2 12.08C12.94 12.34 12.6 12.41 12.15 12.41C11.77 12.41 11.44 12.3 11.17 12.15C10.69 11.89 10.58 11.74 10.58 11.55Z" fill="#FFF3E9" fill-opacity="1.000000" fill-rule="evenodd"/>
	<path id="Vector" d="M13.84 11.55C13.84 11.44 13.88 11.4 13.95 11.36C14.03 11.33 14.1 11.25 14.18 11.25C14.21 11.25 14.29 11.29 14.33 11.36C14.36 11.4 14.48 11.48 14.48 11.51C14.51 11.55 14.63 11.66 14.81 11.7C15 11.74 15.08 11.74 15.26 11.74C15.49 11.74 15.71 11.7 15.86 11.59C16.01 11.48 16.09 11.29 16.09 11.1C16.09 10.91 15.98 10.76 15.86 10.65C15.75 10.54 15.53 10.39 15.38 10.35C15.23 10.31 14.93 10.2 14.74 10.09C14.51 10.05 14.36 9.9 14.25 9.71C14.14 9.53 14.03 9.34 14.03 9.08C14.03 8.89 14.06 8.7 14.18 8.55C14.29 8.4 14.4 8.29 14.55 8.21C14.7 8.1 14.89 8.06 15 8.03C15.15 8.03 15.34 7.99 15.49 7.99C15.6 7.99 15.71 7.99 15.86 8.03C16.01 8.03 16.09 8.03 16.24 8.14C16.39 8.14 16.46 8.18 16.58 8.29C16.69 8.33 16.69 8.44 16.69 8.48C16.69 8.59 16.65 8.63 16.58 8.74C16.5 8.85 16.46 8.89 16.35 8.89C16.31 8.89 16.24 8.85 16.2 8.85C16.09 8.81 16.05 8.74 15.86 8.7C15.75 8.66 15.6 8.66 15.41 8.66C15.19 8.66 14.96 8.7 14.81 8.81C14.66 8.93 14.59 9.08 14.59 9.19C14.59 9.34 14.63 9.38 14.7 9.49C14.81 9.6 14.85 9.64 15.04 9.68C15.15 9.71 15.26 9.79 15.49 9.83C15.64 9.86 15.83 9.98 15.94 9.98C16.09 10.09 16.2 10.13 16.39 10.24C16.5 10.35 16.61 10.5 16.73 10.61C16.84 10.76 16.84 10.95 16.84 11.21C16.84 11.59 16.69 11.96 16.39 12.08C16.13 12.34 15.75 12.41 15.34 12.41C14.96 12.41 14.63 12.3 14.36 12.15C13.95 11.89 13.84 11.74 13.84 11.55Z" fill="#FFF3E9" fill-opacity="1.000000" fill-rule="evenodd"/>
	<path id="Vector" d="M17.36 12.04L17.36 8.21C17.36 8.18 17.4 8.1 17.48 8.06C17.51 8.03 17.59 8.03 17.62 8.03L18.86 8.03C19.31 8.03 19.61 8.14 19.91 8.33C20.14 8.51 20.29 8.85 20.29 9.3L20.29 9.34C20.29 9.79 20.14 10.13 19.84 10.31C19.58 10.5 19.2 10.65 18.79 10.65L18.04 10.65L18.04 12.08C18.04 12.11 18 12.23 17.92 12.23C17.89 12.26 17.77 12.26 17.7 12.26C17.59 12.26 17.55 12.26 17.48 12.23C17.44 12.08 17.36 12.04 17.36 12.04ZM18.04 10.09L18.79 10.09C19.01 10.09 19.24 9.98 19.39 9.9C19.54 9.79 19.54 9.6 19.54 9.38L19.54 9.26C19.54 9 19.5 8.81 19.39 8.66C19.27 8.51 19.05 8.48 18.79 8.48L18.04 8.48L18.04 10.09Z" fill="#FFF3E9" fill-opacity="1.000000" fill-rule="evenodd"/>
	<path id="Vector" d="M20.85 10.95L20.85 9.3C20.85 8.85 21 8.51 21.23 8.33C21.49 8.14 21.83 7.99 22.28 7.99C22.73 7.99 23.03 8.1 23.33 8.33C23.59 8.51 23.78 8.85 23.78 9.3L23.78 10.95C23.78 11.4 23.63 11.74 23.33 11.93C23.06 12.11 22.69 12.26 22.28 12.26C21.9 12.26 21.53 12.15 21.23 11.93C20.96 11.74 20.85 11.4 20.85 10.95ZM21.53 10.95C21.53 11.44 21.75 11.7 22.28 11.7C22.5 11.7 22.73 11.59 22.88 11.51C23.03 11.4 23.03 11.21 23.03 10.99L23.03 9.26C23.03 9 22.99 8.81 22.88 8.66C22.76 8.51 22.54 8.48 22.28 8.48C21.79 8.48 21.53 8.74 21.53 9.23L21.53 10.95Z" fill="#FFF3E9" fill-opacity="1.000000" fill-rule="evenodd"/>
	<path id="Vector" d="M24.49 12.04L24.49 8.21C24.49 8.18 24.52 8.1 24.52 8.06C24.56 8.03 24.64 8.03 24.67 8.03L25.91 8.03C26.89 8.03 27.37 8.4 27.37 9.19C27.37 9.53 27.26 9.79 27.15 9.98C27 10.16 26.77 10.31 26.51 10.35L27.45 11.85C27.49 11.89 27.49 11.89 27.49 11.96C27.49 12.04 27.45 12.11 27.34 12.15C27.23 12.19 27.19 12.26 27.08 12.26C26.96 12.26 26.92 12.23 26.81 12.11L25.87 10.46L25.24 10.46L25.24 12.08C25.24 12.19 25.2 12.23 25.12 12.23C25.05 12.23 24.98 12.26 24.9 12.26C24.79 12.26 24.75 12.26 24.67 12.23C24.49 12.08 24.49 12.04 24.49 12.04ZM25.2 9.9L25.95 9.9C26.51 9.9 26.7 9.71 26.7 9.23C26.7 8.74 26.44 8.55 25.95 8.55L25.2 8.55L25.2 9.9Z" fill="#FFF3E9" fill-opacity="1.000000" fill-rule="evenodd"/>
	<path id="Vector" d="M27.71 8.29C27.71 8.18 27.75 8.14 27.75 8.1C27.79 8.06 27.86 8.06 27.9 8.06L30.56 8.06C30.68 8.06 30.71 8.06 30.71 8.1C30.75 8.14 30.75 8.25 30.75 8.29C30.75 8.33 30.71 8.44 30.71 8.48C30.68 8.51 30.6 8.59 30.56 8.59L29.59 8.59L29.59 12C29.59 12.11 29.55 12.15 29.48 12.15C29.36 12.19 29.33 12.19 29.25 12.19C29.14 12.19 29.1 12.19 29.03 12.15C28.95 12.11 28.91 12.04 28.91 12L28.91 8.59L27.98 8.59C27.86 8.59 27.83 8.59 27.83 8.55C27.75 8.44 27.71 8.36 27.71 8.29Z" fill="#FFF3E9" fill-opacity="1.000000" fill-rule="evenodd"/>
	<path id="Vector" d="M13.01 39L21.38 39C21.64 39 21.86 39.19 21.86 39.45L21.86 40.31C21.86 40.58 21.64 40.76 21.38 40.76L13.01 40.76C12.75 40.76 12.45 40.58 12.45 40.31L12.45 39.45C12.52 39.26 12.75 39 13.01 39Z" fill="#FFF3E9" fill-opacity="1.000000" fill-rule="evenodd"/>
	<path id="Vector" d="M9.56 35.63L24.9 35.63C25.12 35.63 25.35 35.78 25.35 36L25.35 36.98C25.35 37.16 25.2 37.35 24.9 37.35L9.56 37.35C9.3 37.35 9.11 37.2 9.11 36.98L9.11 36C9.11 35.78 9.26 35.63 9.56 35.63Z" fill="#FFF3E9" fill-opacity="1.000000" fill-rule="evenodd"/>
</svg>
