<svg width="45.000000" height="45.000000" viewBox="0 0 45 45" fill="none" xmlns="http://www.w3.org/2000/svg" xmlns:xlink="http://www.w3.org/1999/xlink">
	<desc>
			Created with Pixso.
	</desc>
	<defs/>
	<path id="Vector" d="M2.56 -0.86L35.9 -0.86L35.9 40.35L2.56 40.35L2.56 -0.86Z" fill="#666766" fill-opacity="1.000000" fill-rule="evenodd"/>
	<path id="Vector" d="M32.56 44.03L-0.77 44.03L-0.77 2.14L25.92 2.14L25.92 8.14L32.6 8.14L32.6 44.03L32.56 44.03Z" fill="#BBB9BA" fill-opacity="1.000000" fill-rule="evenodd"/>
	<path id="Vector" d="M32.56 8.14L25.89 2.14L25.89 8.14L32.56 8.14Z" fill="#989898" fill-opacity="1.000000" fill-rule="evenodd"/>
	<path id="Vector" d="M12.58 17.1L8.37 12.64L4.17 17.1L4.17 2.1L12.5 2.1L12.5 17.1L12.58 17.1Z" fill="#D45553" fill-opacity="1.000000" fill-rule="evenodd"/>
	<path id="Vector" d="M4.21 2.14L12.54 2.14L12.54 5.14L4.21 5.14L4.21 2.14Z" fill="#DC6068" fill-opacity="1.000000" fill-rule="evenodd"/>
	<path id="Vector" d="M32.56 17.1L32.71 17.29C35.26 19.99 39.01 21.6 42.91 21.6L44.19 21.6L44.19 33.72C44.19 36.38 42.61 38.89 39.99 40.24L32.53 44.1L32.56 17.1Z" fill="#5D88C6" fill-opacity="1.000000" fill-rule="evenodd"/>
	<path id="Vector" d="M32.56 44.03L25.1 40.2C22.51 38.85 20.9 36.42 20.9 33.68L20.9 21.6L22.18 21.6C26.15 21.6 29.9 20.03 32.38 17.29L32.53 17.1L32.56 44.03Z" fill="#6F9BD1" fill-opacity="1.000000" fill-rule="evenodd"/>
	<path id="Vector" d="M32.56 27.6L30.91 26.14C30.39 25.65 29.6 25.39 28.85 25.39C27.2 25.39 25.89 26.59 25.89 28.05L25.89 28.17C25.89 28.84 26.15 29.44 26.64 29.93L32.56 35.93L32.56 27.6Z" fill="#D45553" fill-opacity="1.000000" fill-rule="evenodd"/>
	<path id="Vector" d="M32.56 35.82L38.49 29.82C38.98 29.33 39.24 28.73 39.24 28.05L39.24 27.94C39.24 26.48 37.93 25.28 36.28 25.28C35.49 25.28 34.74 25.58 34.21 26.03L32.56 27.49L32.56 35.82Z" fill="#D45553" fill-opacity="1.000000" fill-rule="evenodd"/>
	<path id="Vector" d="M1.7 34.35L18.39 34.35L18.39 35.82L1.7 35.82L1.7 34.35Z" fill="#D9D8D8" fill-opacity="1.000000" fill-rule="evenodd"/>
	<path id="Vector" d="M1.7 37.35L18.39 37.35L18.39 38.82L1.7 38.82L1.7 37.35Z" fill="#D9D8D8" fill-opacity="1.000000" fill-rule="evenodd"/>
	<path id="Vector" d="M1.7 19.35L18.39 19.35L18.39 20.82L1.7 20.82L1.7 19.35Z" fill="#D9D8D8" fill-opacity="1.000000" fill-rule="evenodd"/>
	<path id="Vector" d="M1.7 22.35L18.39 22.35L18.39 23.82L1.7 23.82L1.7 22.35Z" fill="#D9D8D8" fill-opacity="1.000000" fill-rule="evenodd"/>
	<path id="Vector" d="M1.7 40.35L18.39 40.35L18.39 41.82L1.7 41.82L1.7 40.35Z" fill="#D9D8D8" fill-opacity="1.000000" fill-rule="evenodd"/>
	<path id="Vector" d="M31.74 38.07L33.39 38.07L33.39 39.53L31.74 39.53L31.74 38.07Z" fill="#989898" fill-opacity="1.000000" fill-rule="evenodd"/>
	<path id="Vector" d="M31.74 38.07L32.6 38.07L32.6 39.53L31.74 39.53L31.74 38.07Z" fill="#BBB9BA" fill-opacity="1.000000" fill-rule="evenodd"/>
</svg>
