<svg width="70.000000" height="46.000000" viewBox="0 0 70 46" fill="none" xmlns="http://www.w3.org/2000/svg" xmlns:xlink="http://www.w3.org/1999/xlink">
	<desc>
			Created with Pixso.
	</desc>
	<defs/>
	<path id="Vector" d="M64 -0.74L4.47 -0.74C1.6 -0.74 -0.76 1.62 -0.76 4.55L-0.76 39.91C-0.76 42.84 1.6 45.15 4.47 45.15L64 45.15C66.93 45.15 69.24 42.78 69.24 39.91L69.24 4.55C69.24 1.62 66.91 -0.74 64 -0.74Z" fill="#41479B" fill-opacity="1.000000" fill-rule="evenodd"/>
	<path id="Vector" d="M34.25 4.54L34.75 5.98L36.29 5.98C36.48 5.98 36.58 6.23 36.39 6.38L35.15 7.28L35.58 8.76C35.64 8.95 35.45 9.11 35.29 9.01L34.05 8.12L32.77 8.95C32.63 9.06 32.37 8.9 32.47 8.71L32.91 7.22L31.66 6.33C31.53 6.23 31.61 5.98 31.81 5.98L33.34 5.98L33.83 4.54C33.92 4.33 34.17 4.33 34.25 4.54Z" fill="#FFE15A" fill-opacity="1.000000" fill-rule="evenodd"/>
	<path id="Vector" d="M34.25 35.66L34.75 37.1L36.29 37.1C36.48 37.1 36.58 37.34 36.39 37.5L35.15 38.39L35.58 39.88C35.64 40.07 35.44 40.23 35.29 40.12L34.05 39.23L32.8 40.12C32.66 40.23 32.4 40.07 32.5 39.88L32.94 38.39L31.7 37.5C31.56 37.39 31.59 37.15 31.81 37.1L33.34 37.1L33.83 35.66C33.92 35.52 34.17 35.52 34.25 35.66Z" fill="#FFE15A" fill-opacity="1.000000" fill-rule="evenodd"/>
	<path id="Vector" d="M49.83 20.1L50.32 21.54L51.86 21.54C52.05 21.54 52.16 21.78 51.96 21.94L50.72 22.83L51.16 24.32C51.21 24.51 51.02 24.67 50.86 24.57L49.62 23.67L48.38 24.57C48.24 24.67 47.97 24.51 48.08 24.32L48.52 22.83L47.27 21.94C47.13 21.84 47.17 21.59 47.38 21.54L48.92 21.54L49.41 20.1C49.48 19.91 49.78 19.91 49.83 20.1Z" fill="#FFE15A" fill-opacity="1.000000" fill-rule="evenodd"/>
	<path id="Vector" d="M18.64 20.1L19.13 21.54L20.67 21.54C20.87 21.54 20.97 21.78 20.78 21.94L19.54 22.83L19.97 24.32C20.03 24.51 19.83 24.67 19.68 24.57L18.43 23.67L17.19 24.57C17.05 24.67 16.79 24.51 16.89 24.32L17.33 22.83L16.09 21.94C15.95 21.84 15.98 21.59 16.19 21.54L17.73 21.54L18.22 20.1C18.35 19.91 18.61 19.91 18.64 20.1Z" fill="#FFE15A" fill-opacity="1.000000" fill-rule="evenodd"/>
	<path id="Vector" d="M21.02 11.95L21.51 13.38L23.06 13.38C23.25 13.38 23.35 13.63 23.16 13.79L21.92 14.68L22.35 16.16C22.41 16.36 22.21 16.52 22.06 16.41L20.82 15.52L19.57 16.41C19.43 16.52 19.17 16.36 19.27 16.16L19.71 14.68L18.47 13.79C18.33 13.68 18.36 13.44 18.58 13.38L20.11 13.38L20.6 11.95C20.67 11.81 20.92 11.81 21.02 11.95Z" fill="#FFE15A" fill-opacity="1.000000" fill-rule="evenodd"/>
	<path id="Vector" d="M47.99 27.56L48.48 28.99L50.02 28.99C50.21 28.99 50.32 29.24 50.13 29.39L48.88 30.29L49.32 31.78C49.37 31.97 49.18 32.12 49.02 32.02L47.78 31.13L46.54 32.02C46.4 32.12 46.14 31.97 46.24 31.78L46.68 30.29L45.44 29.39C45.3 29.29 45.33 29.04 45.54 28.99L47.08 28.99L47.57 27.56C47.64 27.37 47.94 27.37 47.99 27.56Z" fill="#FFE15A" fill-opacity="1.000000" fill-rule="evenodd"/>
	<path id="Vector" d="M42.27 6.26L42.76 7.7L44.3 7.7C44.49 7.7 44.6 7.94 44.4 8.1L43.21 8.99L43.65 10.48C43.7 10.67 43.51 10.83 43.35 10.72L42.11 9.83L40.87 10.72C40.73 10.83 40.47 10.67 40.57 10.48L41.01 8.99L39.73 8.1C39.59 7.99 39.63 7.75 39.84 7.7L41.38 7.7L41.87 6.26C41.97 6.07 42.22 6.07 42.27 6.26Z" fill="#FFE15A" fill-opacity="1.000000" fill-rule="evenodd"/>
	<path id="Vector" d="M26.71 33.25L27.2 34.68L28.74 34.68C28.93 34.68 29.04 34.93 28.85 35.08L27.6 35.98L28.04 37.46C28.09 37.66 27.9 37.81 27.75 37.71L26.5 36.82L25.26 37.71C25.12 37.81 24.86 37.66 24.96 37.46L25.4 35.98L24.16 35.08C24.02 34.98 24.05 34.73 24.26 34.68L25.8 34.68L26.29 33.25C26.36 33.04 26.66 33.04 26.71 33.25Z" fill="#FFE15A" fill-opacity="1.000000" fill-rule="evenodd"/>
	<path id="Vector" d="M47.61 11.95L47.12 13.38L45.58 13.38C45.38 13.38 45.28 13.63 45.47 13.79L46.71 14.68L46.28 16.16C46.23 16.36 46.42 16.52 46.58 16.41L47.82 15.52L49.06 16.41C49.2 16.52 49.46 16.36 49.36 16.16L48.92 14.68L50.16 13.79C50.3 13.68 50.27 13.44 50.06 13.38L48.52 13.38L48.03 11.95C47.94 11.81 47.64 11.81 47.61 11.95Z" fill="#FFE15A" fill-opacity="1.000000" fill-rule="evenodd"/>
	<path id="Vector" d="M20.62 27.56L20.13 28.99L18.59 28.99C18.4 28.99 18.3 29.24 18.49 29.39L19.73 30.29L19.29 31.78C19.24 31.97 19.43 32.12 19.59 32.02L20.83 31.13L22.08 32.02C22.22 32.12 22.48 31.97 22.37 31.78L21.93 30.29L23.18 29.39C23.32 29.29 23.28 29.04 23.07 28.99L21.53 28.99L21.04 27.56C20.92 27.37 20.67 27.37 20.62 27.56Z" fill="#FFE15A" fill-opacity="1.000000" fill-rule="evenodd"/>
	<path id="Vector" d="M26.31 6.26L25.82 7.7L24.28 7.7C24.09 7.7 23.98 7.94 24.17 8.1L25.42 8.99L24.98 10.48C24.93 10.67 25.12 10.83 25.28 10.72L26.52 9.83L27.76 10.72C27.9 10.83 28.16 10.67 28.06 10.48L27.62 8.99L28.87 8.1C29 7.99 28.97 7.75 28.76 7.7L27.22 7.7L26.73 6.26C26.66 6.07 26.36 6.07 26.31 6.26Z" fill="#FFE15A" fill-opacity="1.000000" fill-rule="evenodd"/>
	<path id="Vector" d="M41.87 33.25L41.38 34.68L39.84 34.68C39.64 34.68 39.54 34.93 39.73 35.08L40.97 35.98L40.54 37.46C40.49 37.66 40.68 37.81 40.83 37.71L42.08 36.82L43.32 37.71C43.46 37.81 43.72 37.66 43.62 37.46L43.18 35.98L44.42 35.08C44.56 34.98 44.53 34.73 44.32 34.68L42.78 34.68L42.29 33.25C42.22 33.04 41.97 33.04 41.87 33.25Z" fill="#FFE15A" fill-opacity="1.000000" fill-rule="evenodd"/>
</svg>
