<svg width="120.000000" height="124.000000" viewBox="0 0 120 124" fill="none" xmlns="http://www.w3.org/2000/svg" xmlns:xlink="http://www.w3.org/1999/xlink">
	<desc>
			Created with Pixso.
	</desc>
	<defs>
		<clipPath id="clip3358_2302">
			<rect id="notes-doc.svg" width="119.993874" height="123.229996" transform="translate(-0.753906 -0.216797)" fill="white" fill-opacity="0"/>
		</clipPath>
	</defs>
	<g clip-path="url(#clip3358_2302)">
		<path id="Vector" d="M0 13.35L72.68 0.54L90.28 100.35L17.6 113.17L0 13.35Z" fill="#F9F9F9" fill-opacity="1.000000" fill-rule="nonzero"/>
		<path id="Vector" d="M72.68 0.54L90.28 100.35L17.6 113.17L0 13.35L72.68 0.54Z" stroke="#000000" stroke-opacity="1.000000" stroke-width="1.525978"/>
		<path id="Vector" d="M9.57 25.42L60.99 16.36L61.96 21.86L10.54 30.93L9.57 25.42Z" fill="#000000" fill-opacity="1.000000" fill-rule="evenodd"/>
		<path id="Vector" d="M11.09 34.07L55.5 26.24L56.47 31.74L12.06 39.57L11.09 34.07Z" fill="#000000" fill-opacity="1.000000" fill-rule="evenodd"/>
		<path id="Vector" d="M12.61 42.71L62.71 33.87L63.68 39.38L13.58 48.21L12.61 42.71Z" fill="#000000" fill-opacity="1.000000" fill-rule="evenodd"/>
		<path id="Vector" d="M14.14 51.35L51.9 44.69L52.87 50.19L15.11 56.85L14.14 51.35Z" fill="#000000" fill-opacity="1.000000" fill-rule="evenodd"/>
		<path id="Vector" d="M16.59 65.25L67.25 56.32L68.22 61.82L17.56 70.75L16.59 65.25Z" fill="#000000" fill-opacity="1.000000" fill-rule="evenodd"/>
		<path id="Vector" d="M18.25 74.64L65.87 66.24L66.84 71.75L19.22 80.14L18.25 74.64Z" fill="#000000" fill-opacity="1.000000" fill-rule="evenodd"/>
		<path id="Vector" d="M19.83 83.66L72.4 74.39L73.37 79.89L20.81 89.16L19.83 83.66Z" fill="#000000" fill-opacity="1.000000" fill-rule="evenodd"/>
		<path id="Vector" d="M21.49 93.05L54.13 87.29L55.1 92.8L22.46 98.55L21.49 93.05Z" fill="#000000" fill-opacity="1.000000" fill-rule="evenodd"/>
		<path id="Vector" d="M44.95 13.51L118.47 19.94L109.64 120.91L36.12 114.47L44.95 13.51Z" fill="#F9F9F9" fill-opacity="1.000000" fill-rule="nonzero"/>
		<path id="Vector" d="M118.47 19.94L109.64 120.91L36.12 114.47L44.95 13.51L118.47 19.94Z" stroke="#000000" stroke-opacity="1.000000" stroke-width="1.525978"/>
		<path id="Vector" d="M51.07 27.64L103.09 32.19L102.6 37.76L50.58 33.21L51.07 27.64Z" fill="#000000" fill-opacity="1.000000" fill-rule="evenodd"/>
		<path id="Vector" d="M50.3 36.38L95.22 40.31L94.73 45.88L49.82 41.95L50.3 36.38Z" fill="#000000" fill-opacity="1.000000" fill-rule="evenodd"/>
		<path id="Vector" d="M49.54 45.12L100.21 49.56L99.73 55.12L49.05 50.69L49.54 45.12Z" fill="#000000" fill-opacity="1.000000" fill-rule="evenodd"/>
		<path id="Vector" d="M48.77 53.87L86.97 57.21L86.48 62.77L48.29 59.43L48.77 53.87Z" fill="#000000" fill-opacity="1.000000" fill-rule="evenodd"/>
		<path id="Vector" d="M47.54 67.93L98.79 72.41L98.31 77.98L47.06 73.49L47.54 67.93Z" fill="#000000" fill-opacity="1.000000" fill-rule="evenodd"/>
		<path id="Vector" d="M46.71 77.43L94.89 81.64L94.41 87.21L46.23 83L46.71 77.43Z" fill="#000000" fill-opacity="1.000000" fill-rule="evenodd"/>
		<path id="Vector" d="M45.91 86.55L99.08 91.2L98.59 96.77L45.43 92.12L45.91 86.55Z" fill="#000000" fill-opacity="1.000000" fill-rule="evenodd"/>
		<path id="Vector" d="M45.08 96.05L78.1 98.94L77.61 104.51L44.6 101.62L45.08 96.05Z" fill="#000000" fill-opacity="1.000000" fill-rule="evenodd"/>
		<path id="Vector" d="M23.77 20.89L97.57 20.89L97.57 122.24L23.77 122.24L23.77 20.89Z" fill="#F9F9F9" fill-opacity="1.000000" fill-rule="nonzero"/>
		<path id="Vector" d="M97.57 20.89L97.57 122.24L23.77 122.24L23.77 20.89L97.57 20.89Z" stroke="#000000" stroke-opacity="1.000000" stroke-width="1.525978"/>
		<path id="Vector" d="M31.1 34.44L83.31 34.44L83.31 40.03L31.1 40.03L31.1 34.44Z" fill="#000000" fill-opacity="1.000000" fill-rule="evenodd"/>
		<path id="Vector" d="M31.1 43.21L76.18 43.21L76.18 48.8L31.1 48.8L31.1 43.21Z" fill="#000000" fill-opacity="1.000000" fill-rule="evenodd"/>
		<path id="Vector" d="M31.1 51.99L81.97 51.99L81.97 57.58L31.1 57.58L31.1 51.99Z" fill="#000000" fill-opacity="1.000000" fill-rule="evenodd"/>
		<path id="Vector" d="M31.1 60.76L69.44 60.76L69.44 66.35L31.1 66.35L31.1 60.76Z" fill="#000000" fill-opacity="1.000000" fill-rule="evenodd"/>
		<path id="Vector" d="M31.1 74.88L82.54 74.88L82.54 80.47L31.1 80.47L31.1 74.88Z" fill="#000000" fill-opacity="1.000000" fill-rule="evenodd"/>
		<path id="Vector" d="M31.1 84.41L79.46 84.41L79.46 90L31.1 90L31.1 84.41Z" fill="#000000" fill-opacity="1.000000" fill-rule="evenodd"/>
		<path id="Vector" d="M31.1 93.57L84.47 93.57L84.47 99.16L31.1 99.16L31.1 93.57Z" fill="#000000" fill-opacity="1.000000" fill-rule="evenodd"/>
		<path id="Vector" d="M31.1 103.11L64.24 103.11L64.24 108.7L31.1 108.7L31.1 103.11Z" fill="#000000" fill-opacity="1.000000" fill-rule="evenodd"/>
	</g>
</svg>
