<svg width="120.000000" height="120.000000" viewBox="0 0 120 120" fill="none" xmlns="http://www.w3.org/2000/svg" xmlns:xlink="http://www.w3.org/1999/xlink">
	<desc>
			Created with Pixso.
	</desc>
	<defs>
		<clipPath id="clip3358_2164">
			<rect id="stamp1.svg" width="120.000000" height="120.000000" transform="translate(-0.757812 -0.216797)" fill="white" fill-opacity="0"/>
		</clipPath>
	</defs>
	<g clip-path="url(#clip3358_2164)">
		<path id="Vector" d="M109.07 37.97L110.96 37.97L110.96 41.78L109.07 41.78L109.07 37.97Z" fill="#545C66" fill-opacity="1.000000" fill-rule="evenodd"/>
		<path id="Vector" d="M85.37 37.97L87.26 37.97L87.26 41.78L85.37 41.78L85.37 37.97Z" fill="#545C66" fill-opacity="1.000000" fill-rule="evenodd"/>
		<path id="Vector" d="M93.92 37.97L95.81 37.97L95.81 41.78L93.92 41.78L93.92 37.97Z" fill="#545C66" fill-opacity="1.000000" fill-rule="evenodd"/>
		<path id="Vector" d="M101.48 37.97L103.37 37.97L103.37 41.78L101.48 41.78L101.48 37.97Z" fill="#545C66" fill-opacity="1.000000" fill-rule="evenodd"/>
		<path id="Vector" d="M90.59 12.35C90.59 14.96 88.46 17.12 85.82 17.12C83.21 17.12 81.05 14.99 81.05 12.35C81.05 9.74 83.18 7.58 85.82 7.58C88.49 7.61 90.59 9.71 90.59 12.35Z" fill="#5D9CEC" fill-opacity="1.000000" fill-rule="evenodd"/>
		<path id="Vector" d="M115.25 12.35C115.25 14.96 113.12 17.12 110.48 17.12C107.87 17.12 105.71 14.99 105.71 12.35C105.71 9.74 107.84 7.58 110.48 7.58C113.12 7.61 115.25 9.71 115.25 12.35Z" fill="#5D9CEC" fill-opacity="1.000000" fill-rule="evenodd"/>
		<path id="Vector" d="M81.11 12.35L115.22 12.35L115.22 45.56L81.11 45.56L81.11 12.35Z" fill="#5D9CEC" fill-opacity="1.000000" fill-rule="evenodd"/>
		<path id="Vector" d="M85.85 7.61L110.48 7.61L110.48 12.38L85.85 12.38L85.85 7.61Z" fill="#5D9CEC" fill-opacity="1.000000" fill-rule="evenodd"/>
		<path id="Vector" d="M69.59 18.05L69.59 92C69.59 93.56 68.3 94.85 66.74 94.85L6.08 94.85C4.52 94.85 3.23 96.14 3.23 97.7L3.23 18.05C3.23 16.49 4.52 15.2 6.08 15.2L66.77 15.2C68.36 15.2 69.59 16.49 69.59 18.05ZM54.44 52.16C54.44 49.85 53.99 47.63 53.21 45.56C51.38 40.79 47.57 37.07 42.8 35.27C40.85 34.52 38.69 34.1 36.44 34.1C27.71 34.1 20.48 40.25 18.8 48.5C18.56 49.67 18.44 50.87 18.44 52.13C18.44 56.48 20 60.53 22.64 63.68L22.67 63.68C25.94 67.64 30.92 70.16 36.47 70.16C46.37 70.19 54.44 62.12 54.44 52.16Z" fill="#41479B" fill-opacity="1.000000" fill-rule="evenodd"/>
		<path id="Vector" d="M66.77 94.85L6.08 94.85C4.52 94.85 3.23 96.14 3.23 97.7C3.23 99.26 4.52 100.55 6.08 100.55L66.77 100.55C68.33 100.55 69.62 99.26 69.62 97.7L69.62 92.03C69.59 93.56 68.36 94.85 66.77 94.85Z" fill="#545C66" fill-opacity="1.000000" fill-rule="evenodd"/>
		<path id="Vector" d="M6.08 95.81C5.03 95.81 4.19 96.65 4.19 97.7C4.19 98.75 5.03 99.59 6.08 99.59L66.77 99.59C67.82 99.59 68.66 98.75 68.66 97.7L68.66 95.3C68.09 95.63 67.46 95.81 66.77 95.81L6.08 95.81Z" fill="#F5F7FA" fill-opacity="1.000000" fill-rule="evenodd"/>
		<path id="Vector" d="M98.15 94.85C99.2 94.85 100.04 95.69 100.04 96.74C100.04 97.79 99.2 98.63 98.15 98.63C97.1 98.63 96.26 97.79 96.26 96.74C96.29 95.69 97.13 94.85 98.15 94.85Z" fill="#AC92EC" fill-opacity="1.000000" fill-rule="evenodd"/>
		<path id="Vector" d="M90.59 83.6C92.78 82.31 95.39 81.56 98.18 81.56C100.94 81.56 103.55 82.31 105.77 83.6C108.08 84.92 110 86.84 111.32 89.15C112.61 91.34 113.36 93.95 113.36 96.74C113.36 99.5 112.61 102.11 111.32 104.33C110 106.64 108.08 108.56 105.77 109.88C103.58 111.17 100.97 111.92 98.18 111.92C95.42 111.92 92.81 111.2 90.59 109.88C88.28 108.56 86.36 106.64 85.07 104.33C83.78 102.14 83.03 99.53 83.03 96.74C83.03 93.98 83.78 91.37 85.07 89.15C86.36 86.84 88.28 84.92 90.59 83.6ZM98.15 85.37C91.88 85.37 86.78 90.5 86.78 96.74C86.78 103.01 91.85 108.11 98.15 108.11C104.42 108.11 109.52 103.04 109.52 96.74C109.55 90.47 104.45 85.37 98.15 85.37Z" fill="#AC92EC" fill-opacity="1.000000" fill-rule="evenodd"/>
		<path id="Vector" d="M90.59 11.39L88.7 7.58L107.63 7.58L105.74 11.39L90.59 11.39Z" fill="#E6E9ED" fill-opacity="1.000000" fill-rule="evenodd"/>
		<path id="Vector" d="M81.11 37.97L115.22 37.97L115.22 41.78L81.11 41.78L81.11 37.97Z" fill="#656D78" fill-opacity="1.000000" fill-rule="evenodd"/>
		<path id="Vector" d="M98.15 22.79C99.2 22.79 100.04 23.63 100.04 24.68C100.04 25.73 99.2 26.57 98.15 26.57C97.1 26.57 96.26 25.73 96.26 24.68C96.29 23.63 97.13 22.79 98.15 22.79Z" fill="#5D9CEC" fill-opacity="1.000000" fill-rule="evenodd"/>
		<path id="Vector" d="M98.15 26.57C99.2 26.57 100.04 25.73 100.04 24.68C100.04 23.63 99.2 22.79 98.15 22.79C97.1 22.79 96.26 23.63 96.26 24.68C96.29 25.73 97.13 26.57 98.15 26.57ZM98.15 19.01C101.3 19.01 103.82 21.56 103.82 24.68C103.82 27.83 101.27 30.35 98.15 30.35C95 30.35 92.48 27.8 92.48 24.68C92.48 21.53 95.03 19.01 98.15 19.01Z" fill="#4A89DC" fill-opacity="1.000000" fill-rule="evenodd"/>
		<path id="Vector" d="M58.37 80.63L14.75 80.63C14.24 80.63 13.79 80.18 13.79 79.67C13.79 79.16 14.24 78.71 14.75 78.71L58.34 78.71C58.85 78.71 59.3 79.16 59.3 79.67C59.33 80.21 58.88 80.63 58.37 80.63Z" fill="#FFFFFF" fill-opacity="1.000000" fill-rule="evenodd"/>
		<path id="Vector" d="M58.37 25.64L14.75 25.64C14.24 25.64 13.79 25.19 13.79 24.68C13.79 24.17 14.24 23.72 14.75 23.72L58.34 23.72C58.85 23.72 59.3 24.17 59.3 24.68C59.33 25.19 58.88 25.64 58.37 25.64Z" fill="#FFFFFF" fill-opacity="1.000000" fill-rule="evenodd"/>
		<path id="Vector" d="M50.75 86.33L22.31 86.33C21.8 86.33 21.35 85.88 21.35 85.37C21.35 84.86 21.8 84.41 22.31 84.41L50.75 84.41C51.26 84.41 51.71 84.86 51.71 85.37C51.71 85.88 51.29 86.33 50.75 86.33Z" fill="#FFFFFF" fill-opacity="1.000000" fill-rule="evenodd"/>
		<path id="Vector" d="M90.59 97.67C90.08 97.67 89.63 97.22 89.63 96.71C89.63 92 93.47 88.19 98.15 88.19C98.66 88.19 99.11 88.64 99.11 89.15C99.11 89.66 98.66 90.11 98.15 90.11C94.46 90.11 91.52 93.08 91.52 96.74C91.52 97.28 91.13 97.67 90.59 97.67Z" fill="#AC92EC" fill-opacity="1.000000" fill-rule="evenodd"/>
		<path id="Vector" d="M105.77 97.67C105.26 97.67 104.81 97.22 104.81 96.71C104.81 93.08 101.84 90.08 98.18 90.08C97.67 90.08 97.22 89.63 97.22 89.12C97.22 88.61 97.67 88.16 98.18 88.16C102.89 88.16 106.7 92 106.7 96.68C106.73 97.28 106.28 97.67 105.77 97.67Z" fill="#AC92EC" fill-opacity="1.000000" fill-rule="evenodd"/>
		<path id="Vector" d="M98.15 105.29C97.64 105.29 97.19 104.84 97.19 104.33C97.19 103.82 97.64 103.37 98.15 103.37C100.07 103.37 101.87 102.56 103.1 101.12C103.46 100.73 104.06 100.67 104.42 101.03C104.81 101.39 104.87 101.99 104.51 102.35C102.95 104.24 100.64 105.29 98.15 105.29Z" fill="#AC92EC" fill-opacity="1.000000" fill-rule="evenodd"/>
		<path id="Vector" d="M98.15 105.29C95.66 105.29 93.35 104.21 91.76 102.38C91.4 101.99 91.43 101.39 91.85 101.03C92.24 100.67 92.84 100.7 93.17 101.12C94.4 102.56 96.2 103.37 98.12 103.37C98.63 103.37 99.08 103.82 99.08 104.33C99.11 104.84 98.69 105.29 98.15 105.29Z" fill="#AC92EC" fill-opacity="1.000000" fill-rule="evenodd"/>
		<path id="Vector" d="M98.15 81.56C97.82 81.56 97.52 81.59 97.22 81.65C97.25 82.13 97.67 82.52 98.15 82.52C98.66 82.52 99.08 82.13 99.08 81.65C98.81 81.59 98.48 81.56 98.15 81.56Z" fill="#967ADC" fill-opacity="1.000000" fill-rule="evenodd"/>
		<path id="Vector" d="M98.15 111.92C98.48 111.92 98.78 111.89 99.08 111.83C99.05 111.35 98.63 110.96 98.15 110.96C97.64 110.96 97.22 111.35 97.22 111.83C97.55 111.89 97.85 111.92 98.15 111.92Z" fill="#967ADC" fill-opacity="1.000000" fill-rule="evenodd"/>
		<path id="Vector" d="M87.44 86C87.2 86.24 87.05 86.48 86.84 86.72C87.2 87.05 87.77 87.05 88.13 86.69C88.49 86.33 88.49 85.76 88.16 85.4C87.92 85.61 87.68 85.79 87.44 86Z" fill="#967ADC" fill-opacity="1.000000" fill-rule="evenodd"/>
		<path id="Vector" d="M108.92 107.48C109.16 107.24 109.31 107 109.52 106.76C109.16 106.43 108.59 106.43 108.23 106.79C107.87 107.15 107.87 107.72 108.2 108.08C108.44 107.87 108.68 107.69 108.92 107.48Z" fill="#967ADC" fill-opacity="1.000000" fill-rule="evenodd"/>
		<path id="Vector" d="M83 96.77C83 97.1 83.03 97.4 83.09 97.7C83.57 97.67 83.96 97.25 83.96 96.77C83.96 96.26 83.57 95.84 83.09 95.84C83.03 96.11 83 96.44 83 96.77Z" fill="#967ADC" fill-opacity="1.000000" fill-rule="evenodd"/>
		<path id="Vector" d="M113.36 96.77C113.36 96.44 113.33 96.17 113.27 95.84C112.79 95.87 112.4 96.29 112.4 96.77C112.4 97.28 112.79 97.7 113.27 97.7C113.33 97.37 113.36 97.04 113.36 96.77Z" fill="#967ADC" fill-opacity="1.000000" fill-rule="evenodd"/>
		<path id="Vector" d="M87.44 107.48C87.68 107.72 87.92 107.87 88.16 108.08C88.49 107.72 88.49 107.15 88.13 106.79C87.77 106.43 87.2 106.43 86.84 106.76C87.05 107 87.23 107.24 87.44 107.48Z" fill="#967ADC" fill-opacity="1.000000" fill-rule="evenodd"/>
		<path id="Vector" d="M108.92 86C108.68 85.76 108.44 85.61 108.2 85.4C107.87 85.76 107.87 86.33 108.23 86.69C108.59 87.05 109.16 87.05 109.52 86.72C109.31 86.48 109.13 86.24 108.92 86Z" fill="#967ADC" fill-opacity="1.000000" fill-rule="evenodd"/>
		<path id="Vector" d="M83 69.23C82.49 69.23 82.04 68.78 82.04 68.27L82.04 54.98C82.04 54.47 82.49 54.02 83 54.02C83.51 54.02 83.96 54.47 83.96 54.98L83.96 68.27C83.96 68.84 83.51 69.23 83 69.23Z" fill="#CCD1D9" fill-opacity="1.000000" fill-rule="evenodd"/>
		<path id="Vector" d="M113.36 69.23C112.85 69.23 112.4 68.78 112.4 68.27L112.4 54.98C112.4 54.47 112.85 54.02 113.36 54.02C113.87 54.02 114.32 54.47 114.32 54.98L114.32 68.27C114.29 68.84 113.87 69.23 113.36 69.23Z" fill="#CCD1D9" fill-opacity="1.000000" fill-rule="evenodd"/>
		<path id="Vector" d="M81.11 45.56L81.11 55.04L84.92 55.04C84.92 51.89 87.47 49.37 90.59 49.37L105.74 49.37C108.89 49.37 111.41 51.92 111.41 55.04L115.22 55.04L115.22 45.56L81.11 45.56Z" fill="#E6E9ED" fill-opacity="1.000000" fill-rule="evenodd"/>
		<path id="Vector" d="M84.89 55.04C84.89 56.09 84.05 56.93 83 56.93C81.95 56.93 81.11 56.09 81.11 55.04C81.11 53.99 81.95 53.15 83 53.15C84.05 53.15 84.89 53.96 84.89 55.04Z" fill="#E6E9ED" fill-opacity="1.000000" fill-rule="evenodd"/>
		<path id="Vector" d="M115.25 55.04C115.25 56.09 114.41 56.93 113.36 56.93C112.31 56.93 111.47 56.09 111.47 55.04C111.47 53.99 112.31 53.15 113.36 53.15C114.41 53.12 115.25 53.96 115.25 55.04Z" fill="#E6E9ED" fill-opacity="1.000000" fill-rule="evenodd"/>
		<path id="Vector" d="M82.04 68.27L83.93 68.27L112.37 68.27L114.26 68.27C114.77 68.27 115.22 68.72 115.22 69.23L115.22 74.9C115.22 75.41 114.77 75.86 114.26 75.86L82.04 75.86C81.53 75.86 81.08 75.41 81.08 74.9L81.08 69.23C81.11 68.72 81.53 68.27 82.04 68.27Z" fill="#656D78" fill-opacity="1.000000" fill-rule="evenodd"/>
		<path id="Vector" d="M54.29 52.19C54.29 62.05 46.3 70.04 36.44 70.04C26.58 70.04 18.59 62.05 18.59 52.19C18.59 42.33 26.58 34.34 36.44 34.34C46.3 34.34 54.29 42.33 54.29 52.19Z" fill="#29AAE1" fill-opacity="1.000000" fill-rule="evenodd"/>
		<path id="Vector" d="M42.32 54.53C43.28 55.01 43.67 54.92 44.21 54.74C44.75 54.56 44.12 53.81 44.96 54.29C45.8 54.77 45.32 54.38 45.89 55.28C46.46 56.21 46.46 56.33 47.21 56.63C48.02 56.96 49.01 56.78 49.7 57.08C50.39 57.35 51.17 57.92 51.65 57.17C52.13 56.42 52.1 56.81 52.7 55.88C53.3 54.95 53.06 55.64 53.66 54.59C54.23 53.54 54.02 49.76 53.75 48.98C53.48 48.23 52.91 45.98 52.58 45.26C52.25 44.54 50.87 42.65 50.51 41.54C50.15 40.43 50.18 40.19 49.31 39.95C48.38 39.71 48.35 39.71 47.18 39.32C46.01 38.93 45.23 39.32 45.11 38.72C44.99 38.12 44.99 38.12 45.47 37.79C45.95 37.46 46.16 36.98 44.84 36.86C43.52 36.71 43.13 36.5 42.35 36.74C41.6 36.98 41.6 37.07 41.72 37.79C41.84 38.54 41.21 38.72 41.84 39.32C42.47 39.92 42.56 39.68 43.07 40.88C43.64 42.08 44 41.84 44.03 42.92C44.06 44 43.46 44.27 43.46 44.96C43.46 45.65 43.07 45.23 43.25 45.92C43.49 46.61 44.24 47.09 44.33 47.51C44.36 47.9 44.69 47.51 44.12 48.2C43.55 48.83 43.55 48.56 43.07 49.25C42.59 49.94 42.47 49.61 42.47 50.48C42.47 51.35 42.59 51.32 42.8 52.16C43.01 53 41.87 54.32 42.32 54.53Z" fill="#8BCC78" fill-opacity="1.000000" fill-rule="evenodd"/>
		<path id="Vector" d="M26.45 49.79C26.45 50.27 26.93 50.18 26.66 50.54C26.39 50.9 26.06 50.81 26.06 51.05C26.06 51.29 25.73 51.5 26.06 51.62C26.42 51.74 26.81 51.65 27.11 51.62C27.35 51.59 27.71 51.41 27.74 51.35C27.83 51.32 28.25 50.54 28.31 50.42C28.34 50.3 28.79 49.79 28.76 49.67C28.73 49.55 29.15 49.28 28.97 49.16C28.76 49.07 28.76 48.77 28.46 48.77C28.16 48.77 27.5 48.86 27.5 49.1C27.5 49.34 26.69 49.43 26.66 49.58C26.51 49.67 26.45 49.79 26.45 49.79Z" fill="#8BCC78" fill-opacity="1.000000" fill-rule="evenodd"/>
		<path id="Vector" d="M29.15 51.44C29.18 51.68 29.36 51.95 29.18 52.07C28.97 52.19 28.61 52.07 28.37 52.34C28.16 52.61 27.77 52.7 27.8 52.91C27.8 53.12 27.71 53.06 28.01 53.18C28.28 53.3 28.4 53.15 28.85 53.18C29.3 53.21 29.78 53.21 30.05 53.18C30.32 53.15 31.16 52.91 31.37 52.7C31.58 52.49 31.64 52.58 31.76 52.13C31.88 51.68 32 51.65 31.88 51.41C31.73 51.17 31.43 51.26 31.43 51.08C31.43 50.96 31.4 50.51 31.28 50.27C31.16 50.03 31.25 49.46 30.95 49.22C30.71 48.98 30.83 48.98 30.38 48.53C29.9 48.08 29.93 47.93 30.02 47.81C30.11 47.69 30.26 47.69 30.53 47.54C30.8 47.39 31.04 47.15 31.01 46.82C30.98 46.49 30.89 46.19 30.74 46.01C30.62 45.8 30.41 45.53 30.05 45.53C29.69 45.53 29.66 45.44 29.54 45.74C29.42 45.98 29.15 46.07 29.09 46.37C29.09 46.7 29 46.7 29 47.12C29 47.57 28.97 47.36 29 47.84C29.09 48.32 29.21 48.53 29.33 48.8C29.45 49.07 29.45 49.37 29.57 49.67C29.69 50 29.84 50.12 29.6 50.6C29.45 51.29 29.15 51.44 29.15 51.44Z" fill="#8BCC78" fill-opacity="1.000000" fill-rule="evenodd"/>
		<path id="Vector" d="M29.45 52.04C29.42 52.04 27.14 53.03 28.1 53.12C28.67 53.15 30.65 53.09 31.22 52.67C31.58 52.43 31.91 51.95 31.67 51.44C30.44 51.23 31.55 50.15 30.26 48.89C29.09 47.72 30.35 47.48 30.95 47.24C31.28 46.61 29.54 44.6 29.3 46.97C29.06 49.4 29.42 47.54 29.75 49.61C30.08 51.62 28.76 50.69 29.36 52.01C28.4 50.81 30.41 51.32 29.24 48.89C28.85 48.05 28.67 46.97 29.09 46.13C30.08 44.06 32.33 47.33 31.1 47.72C29.33 48.32 31.22 48.11 31.37 50.03C31.52 52.04 32.57 50.42 32 52.4C31.61 53.75 27.95 53.33 27.89 53.27C26.84 52.73 29.39 52.07 29.45 52.04Z" fill="#000000" fill-opacity="1.000000" fill-rule="evenodd"/>
		<path id="Vector" d="M27.56 48.83C27.71 49.76 25.88 49.46 26.63 50C27.44 50.57 25.34 51.17 26.42 51.53C26.69 51.62 27.02 51.29 27.65 51.26C27.8 51.11 28.04 50.18 28.73 49.46C28.97 49.19 27.77 48.71 27.65 48.65C27.89 48.62 27.86 48.62 28.1 48.65C29.63 49.04 28.91 49.52 28.67 49.88C27.59 51.47 29.06 51.05 27.26 51.77C25.79 52.34 25.13 51.29 26.39 50.24C26.36 50.24 26.36 50.21 26.3 50.15C25.61 49.01 27.29 49.64 27.56 48.83Z" fill="#000000" fill-opacity="1.000000" fill-rule="evenodd"/>
		<path id="Vector" d="M37.67 63.65C37.7 63.65 37.79 63.29 38.06 63.38C38.33 63.47 38.39 63.26 38.75 63.41C39.11 63.56 39.11 63.53 39.23 63.86C39.35 64.22 39.71 64.46 38.96 64.37C38.24 64.28 38 64.13 37.79 64.01C37.61 63.95 37.67 63.65 37.67 63.65Z" fill="#8BCC78" fill-opacity="1.000000" fill-rule="evenodd"/>
		<path id="Vector" d="M34.97 60.11C35.09 59.78 34.85 59.75 35.09 59.66C35.33 59.57 35.24 59.3 35.54 59.63C35.81 59.9 35.87 59.75 35.69 60.2C35.57 60.65 35.33 60.65 35.57 61.13C35.81 61.61 35.93 61.37 35.78 62C35.63 62.63 35.93 62.72 35.51 62.87C35.03 63.02 34.91 62.99 34.91 62.54C34.91 62.09 34.88 62.09 34.91 61.7C34.91 61.31 35.03 61.01 35.12 60.89C35.09 60.77 34.97 60.11 34.97 60.11Z" fill="#8BCC78" fill-opacity="1.000000" fill-rule="evenodd"/>
		<path id="Vector" d="M31.37 62.48C31.64 62.36 31.61 62.39 31.82 62.27C32.03 62.15 32.03 62.06 32.03 61.94C32.03 61.82 32.24 61.85 32.12 61.73C32 61.61 32.09 61.49 31.85 61.58C31.61 61.67 31.52 61.73 31.37 61.85C31.25 62 31.16 61.94 31.13 62.09C31.04 62.3 30.86 62.21 30.92 62.36C30.98 62.51 31.37 62.48 31.37 62.48Z" fill="#8BCC78" fill-opacity="1.000000" fill-rule="evenodd"/>
		<path id="Vector" d="M24.77 58.55C24.86 59.51 24.92 59.66 24.74 60.2C24.53 60.71 23.93 60.68 23.93 61.49C23.93 62.3 23.66 62.33 24.32 62.93C24.98 63.53 25.49 63.92 26.69 63.86C27.89 63.8 29.3 63.17 29.36 62.63C29.45 62.06 29.12 61.4 30.05 60.98C30.92 60.59 31.34 61.07 31.7 60.23C32.06 59.39 31.91 59.03 32.75 59.18C33.59 59.33 34.7 58.94 35.3 58.43C35.87 57.95 36.26 59.15 36.77 59.72C37.28 60.23 37.22 59.99 38 60.77C38.81 61.52 39.35 61.22 39.53 62.09C39.68 62.96 39.2 63.86 39.77 63.68C40.28 63.53 40.49 63.47 40.46 62.69C40.43 61.88 40.07 61.88 40.79 61.7C41.51 61.55 41.24 61.73 40.22 60.98C39.23 60.23 38.81 60.35 38.03 59.39C37.22 58.43 36.8 57.68 37.16 57.5C37.52 57.38 37.43 57.53 37.73 57.59C38 57.62 39.8 58.88 40.28 59.36C40.76 59.87 43.07 62.84 43.19 62.96C43.31 63.11 43.07 63.83 43.67 64.04C44.24 64.25 44.63 64.31 44.87 63.89C45.11 63.5 45.59 63.14 45.59 62.81C45.59 62.48 45.59 62.24 45.14 62.06C44.69 61.85 44.21 61.94 43.94 61.43C43.67 60.92 43.79 60.83 44.21 60.62C44.66 60.41 44.93 60.26 45.41 60.23C45.92 60.2 46.46 58.7 46.52 58.52C46.61 58.28 47.03 56.93 46.43 56.75C45.86 56.63 46.4 56.24 46.04 55.58C45.68 54.95 45.41 54.26 44.81 54.53C44.21 54.8 44.54 55.01 43.82 54.92C43.1 54.89 42.71 55.01 42.53 54.59C42.38 54.2 42.14 54.47 42.5 53.6C42.86 52.67 42.62 51.77 42.53 51.35C42.44 50.93 42.77 49.58 43.01 49.4C43.25 49.25 43.13 48.83 43.64 48.32C44.15 47.81 44.27 46.97 43.88 46.88C43.52 46.76 43.43 46.52 43.28 46.19C43.13 45.83 43.01 45.23 42.41 45.8C41.81 46.37 42.02 46.19 42.02 46.88C42.02 47.57 42.05 47.96 41.69 47.75C41.33 47.54 41.21 46.94 41.24 47.75C41.27 48.5 41.24 48.68 41.39 49.31C41.54 49.94 41.87 50.03 41.36 50.06C40.85 50.09 39.47 50.06 39.23 50.21C38.99 50.33 38.9 50.48 38.12 50.78C37.31 51.05 37.64 51.02 37.01 50.75C36.38 50.48 36.17 50.78 36.05 50.27C35.93 49.76 35.9 48.11 35.72 48.74C35.6 49.37 35.51 49.43 35.48 50.18C35.45 50.93 35.24 51.17 34.55 51.53C33.83 51.89 33.68 51.62 33.44 52.28C33.2 52.91 33.17 52.85 32.39 53.21C31.64 53.57 30.95 53.57 30.74 54.02C30.53 54.47 29.93 54.02 29.66 54.53C29.42 55.01 28.46 53.84 28.37 54.38C28.34 54.89 27.53 54.59 28.58 55.31C29.63 56.03 29.87 57.8 29.45 58.22C29.03 58.64 27.77 58.46 27.08 58.43C26.45 58.4 25.07 57.44 24.95 58.28C24.8 59.03 24.77 58.55 24.77 58.55Z" fill="#8BCC78" fill-opacity="1.000000" fill-rule="evenodd"/>
		<path id="Vector" d="M28.07 54.59C28.64 55.28 30.32 55.79 29.78 57.83C29.27 59.78 26.27 58.46 25.37 57.74C26.12 57.83 28.04 58.73 28.82 58.31C30.56 57.29 28.13 54.8 28.07 54.59Z" fill="#000000" fill-opacity="1.000000" fill-rule="evenodd"/>
		<path id="Vector" d="M25.55 57.83C23.66 58.64 25.79 58.64 24.68 60.8C24.47 61.19 22.31 61.73 25.88 63.2C26.96 63.65 25.76 63.47 27.29 63.59C27.38 63.59 27.86 63.68 27.89 63.74C28.52 63.89 29.18 62.54 29.3 62.42C29.39 60.77 29.42 61.58 30.86 60.59C30.86 60.59 30.95 60.56 30.98 60.56C30.98 60.59 30.62 61.13 30.38 61.19C28.34 62.15 30.62 62.36 28.73 63.8C28.1 64.28 26.6 64.16 26.24 63.92C24.41 62.87 22.28 62.21 24.44 60.59C25.16 58.61 23.81 57.95 25.55 57.83Z" fill="#000000" fill-opacity="1.000000" fill-rule="evenodd"/>
		<path id="Vector" d="M42.8 54.92C45.11 54.77 44.87 53 46.16 55.37C46.37 55.73 46.25 56.12 46.28 56.24C46.37 56.24 46.43 56.24 46.55 56.24C47 55.88 47.54 56.36 46.91 57.41C46.91 57.41 46.67 58.22 46.58 58.46C46.1 59.57 46.91 58.37 46.22 59.45C45.59 60.44 46.67 60.2 45.26 60.41C44.93 60.44 44.54 60.53 44.45 60.8C44.33 60.41 44.54 60.41 44.81 60.41C45.26 59.96 45.62 60.2 45.68 60.08C45.68 60.08 45.95 59.21 46.13 58.91C46.1 58.4 46.13 58.31 46.37 57.92C46.37 57.41 46.34 57.23 46.7 56.87C46.7 56.87 46.7 56.72 46.7 56.6C46.31 56.72 45.83 56.63 45.77 56.12C45.74 55.52 45.29 54.44 45.05 54.35C44.48 54.23 44.72 55.31 42.8 54.92Z" fill="#000000" fill-opacity="1.000000" fill-rule="evenodd"/>
		<path id="Vector" d="M42.68 54.92C40.76 54.56 43.79 53.03 42.32 51.92C41.84 51.56 42.2 50.33 42.44 49.85C42.92 49.73 43.07 48.92 43.52 48.38C43.28 49.1 43.25 49.94 42.53 50.21L42.65 50.33C42.62 51.05 42.62 50.69 42.62 51.41L42.44 51.41C42.77 51.62 42.95 51.77 43.07 52.16C43.67 54.17 41.36 53.75 42.68 54.92Z" fill="#000000" fill-opacity="1.000000" fill-rule="evenodd"/>
		<path id="Vector" d="M43.52 48.32C45.2 47.72 43.73 47.69 43.28 46.52C43.25 46.4 43.07 45.95 43.01 45.83C40.88 45.08 43.01 48.44 41.48 47.9C41.33 47.87 41.24 47.78 41.12 47.66C41.21 48.83 42.56 50.75 40.4 49.97C42.32 49.88 41.03 49.16 40.85 48.41C40.28 46.37 41.54 47.36 41.66 47.45C41.75 47.3 41.69 47.06 41.66 46.88C41.39 46.4 41.3 45.83 41.81 45.47C43.4 44.3 43.64 46.67 43.82 46.94C44.81 47.15 44.63 48.44 43.52 48.32Z" fill="#000000" fill-opacity="1.000000" fill-rule="evenodd"/>
		<path id="Vector" d="M28.07 54.23C30.92 54.71 28.91 53.6 30.11 53.75C31.64 53.96 31.31 52.55 32.6 52.67C33.05 51.26 33.71 51.2 34.01 51.44C34.64 51.35 35.33 49.79 35.3 49.13C35.21 47.6 36.11 47.12 36.02 48.65C35.93 49.76 36.41 50.96 37.85 50.66C38.36 50.54 39.2 49.58 40.04 50.03C38.93 49.91 38.57 50.75 37.91 50.9C36.5 51.26 35.96 50.51 35.72 49.49C35.72 50.12 35.63 50.84 35 51.08C34.73 51.77 34.01 52.04 33.77 51.8C33.08 51.44 33.26 52.88 32.72 53C31.4 53.33 30.89 54.17 30.47 54.08C28.91 53.84 30.65 55.4 28.07 54.23ZM34.01 51.53C34.04 51.56 34.04 51.62 34.04 51.65C34.04 51.56 34.04 51.53 34.01 51.53Z" fill="#000000" fill-opacity="1.000000" fill-rule="evenodd"/>
		<path id="Vector" d="M34.64 44.21C35.21 43.85 35.75 43.46 35.96 43.22C36.17 42.98 36.47 42.53 36.65 41.9C36.8 41.27 36.8 40.85 36.98 40.34C37.13 39.83 37.25 39.86 37.61 39.05C37.97 38.24 38.24 38.3 38.9 37.73C39.53 37.16 39.98 36.32 40.43 36.5C40.88 36.62 41 36.59 41.18 36.77C41.42 36.98 41.45 37.28 41.51 37.73C41.54 38.18 41.27 38.42 41.54 39.05C41.81 39.68 42.26 39.68 42.62 40.22C42.98 40.73 42.74 40.46 43.1 41.39C43.43 42.32 43.49 41.6 43.46 42.47C43.43 43.34 43.85 43.28 43.25 43.88C42.68 44.51 42.41 44.51 41.96 44.93C41.51 45.29 41.39 45.56 41.03 45.5C40.64 45.41 40.19 45.47 40.04 44.51C39.89 43.55 40.07 43.43 40.37 42.98C40.67 42.53 40.94 42.23 40.97 41.81C41 41.36 41.09 40.94 40.73 40.76C40.37 40.61 39.68 40.79 39.56 40.88C39.44 40.97 39.23 41.72 39.2 41.93C39.11 42.14 38.99 42.44 38.93 43.01C38.9 43.61 39.05 43.52 38.81 43.97C38.57 44.42 38.6 44.48 38.66 45.02C38.69 45.53 38.93 45.29 39.02 45.86C39.11 46.43 38.81 46.37 38.75 46.79C38.66 47.18 38.42 47.06 38.51 47.51C38.6 47.96 38.87 48.26 38.78 48.5C38.69 48.74 38.69 49.43 38.27 49.43C37.82 49.4 37.4 49.28 37.16 49.58C36.92 49.91 36.92 50.09 36.56 50.03C36.2 49.94 36.17 49.7 36.35 49.43C36.56 49.16 36.71 49.04 36.71 48.47C36.74 47.9 36.26 47.66 36.26 47.27C36.26 46.88 36.02 46.43 35.78 46.7C35.54 46.97 35.18 46.94 35.03 47.06C34.88 47.18 34.7 47.27 34.43 47.09C34.16 46.94 33.95 46.76 33.86 46.49C33.77 46.16 33.71 45.62 33.74 45.32C33.89 44.96 34.64 44.21 34.64 44.21Z" fill="#8BCC78" fill-opacity="1.000000" fill-rule="evenodd"/>
		<path id="Vector" d="M31.01 60.59C32.54 60.47 30.68 58.64 33.26 59.06C34.97 59.33 35.27 57.14 36.38 59.15C37.34 60.86 40.22 60.26 39.59 63.32C39.62 63.68 40.64 63.05 40.16 62.36C39.77 61.79 39.95 60.92 40.91 61.52C40.52 60.83 35.42 58.85 37.04 57.44C38.36 56.33 42.92 62.24 43.52 63.71C44.63 64.88 45.71 62.36 44.99 62.03C44.6 61.82 42.83 61.34 43.7 60.68C43.67 60.77 43.58 60.83 43.55 60.89C43.52 61.49 44.24 61.61 44.72 61.76C46.31 62.33 44.72 64.43 44.03 64.37C43.28 64.28 41.54 61.37 40.94 60.62C40.67 60.26 38.03 57.59 37.34 57.77C36.02 58.16 41.15 60.92 41.27 61.25C41.87 62.54 40.43 61.82 40.34 61.76C40.31 61.85 40.37 62.03 40.43 62.12C41.36 63.44 38.75 64.97 39.23 62.75C39.62 60.83 36.74 61.04 35.84 58.7C35.81 58.58 35.03 58.73 34.91 58.79C32.6 59.72 34.19 59.15 32.03 59.24C31.88 59.57 31.67 60.89 31.01 60.59Z" fill="#000000" fill-opacity="1.000000" fill-rule="evenodd"/>
		<path id="Vector" d="M38.99 63.53C38.75 63.5 37.46 63.32 37.76 63.86C38 63.98 38.81 64.25 39.11 64.34C39.14 64.13 39.23 63.77 39.11 63.62C39.26 63.47 39.5 64.58 39.11 64.58C36.23 64.52 37.55 62.45 38.99 63.53Z" fill="#000000" fill-opacity="1.000000" fill-rule="evenodd"/>
		<path id="Vector" d="M35 59.93C35 60.08 35.09 60.62 35.21 60.8C35.21 60.8 35.21 60.77 35.24 60.77C35.36 60.74 35.33 60.74 35.39 60.74C35.39 60.65 35.42 60.62 35.42 60.53C35.57 60.08 35.81 59.69 35.15 59.72C35.12 59.75 35.15 59.81 35.06 59.84C35.06 59.75 35.03 59.69 35.09 59.63C36.17 59.03 35.69 60.8 35.66 60.98C36.17 61.25 36.11 62.15 35.87 62.57C34.7 65.12 34.16 60.8 35 60.89C34.85 60.65 34.76 60.23 35 59.93ZM35.45 61.13C35.33 61.28 35.09 61.28 35.06 61.28C35.03 61.4 35.06 62.48 35.15 62.75C35.93 62.21 35.57 61.67 35.45 61.13Z" fill="#000000" fill-opacity="1.000000" fill-rule="evenodd"/>
		<path id="Vector" d="M31.28 61.97C31.25 62.06 30.92 62.42 30.95 62.48C31.7 62.45 32.12 61.79 32.03 61.61L32.06 61.61C33.2 62.03 29.6 63.47 31.28 61.97ZM32 61.61C31.97 61.52 31.88 61.52 31.76 61.58C31.85 61.55 31.91 61.61 32 61.61ZM31.79 61.55C31.76 61.55 31.67 61.58 31.58 61.64C31.64 61.61 31.73 61.55 31.79 61.55ZM31.55 61.67C31.55 61.7 31.52 61.76 31.4 61.82C31.49 61.76 31.52 61.73 31.55 61.67Z" fill="#000000" fill-opacity="1.000000" fill-rule="evenodd"/>
		<path id="Vector" d="M33.89 44.36C33.98 45.56 33.74 46.76 35 46.88C35.33 46.43 36.32 45.65 36.65 47.12C36.92 48.41 37.52 48.32 36.62 49.67C36.71 50.15 36.74 48.98 38.15 49.22C38.63 49.31 38.75 48.83 38.9 48.41C38.9 50.09 37.67 49.13 37.46 49.4C36.5 50.81 36.17 49.67 36.23 49.52C37.04 47.33 36.35 49.13 36.14 46.76C35.81 46.55 35.09 47.24 35.09 47.24C33.41 47.36 33.71 45.41 33.89 44.36Z" fill="#000000" fill-opacity="1.000000" fill-rule="evenodd"/>
		<path id="Vector" d="M33.95 44.39C38.15 42.32 35.18 40.82 38.12 38.15C38.51 37.79 41.09 35.24 41.6 37.07C41.72 37.4 41.6 37.76 41.51 38.06C41.18 35.45 39.74 37.1 38.42 38.45C35.96 40.91 37.88 43.52 33.95 44.39Z" fill="#000000" fill-opacity="1.000000" fill-rule="evenodd"/>
		<path id="Vector" d="M41.57 38C41.93 40.73 43.01 39.2 43.25 41.09C43.4 42.2 45.02 42.02 42.8 44.66C40.97 46.82 38.69 44.99 40.43 42.95C39.38 45.98 41.51 45.62 42.47 44.36C44.48 41.75 42.98 42.59 42.86 41.12C42.77 39.47 41.15 40.31 41.57 38Z" fill="#000000" fill-opacity="1.000000" fill-rule="evenodd"/>
		<path id="Vector" d="M40.43 42.92C40.64 42.47 41.42 40.88 40.19 40.88C39.26 40.88 39.56 43.64 38.87 43.91C38.18 45.56 40.46 45.92 38.75 47C38.54 47.12 38.87 47.69 38.9 48.08C38.69 47.72 38.18 47 38.69 46.76C39.77 46.19 37.34 44.09 38.69 43.49C38.69 43.4 38.69 43.37 38.69 43.28C38.87 39.17 42.59 40.28 40.43 42.92Z" fill="#000000" fill-opacity="1.000000" fill-rule="evenodd"/>
		<path id="Vector" d="M18.65 52.19C18.98 55.64 19.16 57.2 19.88 58.79C20.6 60.35 21.17 61.55 21.89 59.36C22.61 57.17 24.8 56.99 24.74 53.72C24.65 50.45 22.34 49.49 24.5 47.69C26.66 45.89 26.09 44 28.13 42.44C30.14 40.91 33.02 38.63 33.5 37.73C33.98 36.8 34.82 35.21 34.1 34.94C33.38 34.61 31.43 35.57 29.9 36.35C28.37 37.1 26.54 37.22 26.18 39.26C25.82 41.3 22.22 40.58 21.41 42.86C20.57 45.11 19.25 47.21 19.28 48.02C19.25 48.77 18.65 52.19 18.65 52.19Z" fill="#7FCEED" fill-opacity="0.502000" fill-rule="evenodd"/>
		<path id="Vector" d="M46.97 56.45C48.77 57.41 47.84 56.42 49.04 56.81C52.25 57.89 51.29 56.66 52.91 55.22C52.91 55.22 53.63 54.53 53.75 54.5C53.6 54.95 53.54 54.89 53.06 55.43C51.62 57.02 52.22 58.64 48.83 57.2C47.99 56.75 48.23 57.77 46.97 56.45Z" fill="#000000" fill-opacity="1.000000" fill-rule="evenodd"/>
		<path id="Vector" d="M41.84 38.27C39.47 35.54 44.87 35.99 45.35 36.98C45.35 36.98 45.35 36.98 45.32 36.98C45.23 36.98 44.99 36.62 43.64 36.71C41.51 36.92 41.24 36.44 41.84 38.27Z" fill="#000000" fill-opacity="1.000000" fill-rule="evenodd"/>
		<path id="Vector" d="M46.4 37.67C46.28 37.76 45.23 38.18 45.29 38.42C45.41 38.39 46.61 38.39 46.94 38.81C47.63 39.68 48.17 39.32 48.59 39.8C46.91 39.8 46.67 38.99 46.43 38.96C43.73 38.96 45.11 37.61 46.4 37.67Z" fill="#000000" fill-opacity="1.000000" fill-rule="evenodd"/>
		<path id="Vector" d="M43.73 42.32C44.42 43.25 44.21 45.08 42.98 45.41L43.01 45.26C43.76 44.21 43.76 43.67 43.73 42.32Z" fill="#000000" fill-opacity="1.000000" fill-rule="evenodd"/>
		<path id="Vector" d="M28.79 64.85C30.32 64.22 29.39 63.53 31.22 63.8C33.05 64.07 32.39 63.2 34.49 63.95C36.59 64.7 37.64 64.58 37.97 65.27C38.3 65.99 39.68 66.74 36.89 66.26C34.1 65.75 33.98 65.42 32.33 66.35C30.68 67.28 29.42 66.47 28.88 65.9C28.4 65.36 28.79 64.85 28.79 64.85Z" fill="#0092D8" fill-opacity="1.000000" fill-rule="evenodd"/>
		<path id="Vector" d="M36.59 38.45L36.98 39.56L38.18 39.56C38.33 39.56 38.42 39.77 38.27 39.89L37.31 40.61L37.67 41.78C37.7 41.93 37.55 42.05 37.43 41.99L36.47 41.27L35.48 41.96C35.36 42.05 35.15 41.93 35.24 41.75L35.6 40.58L34.64 39.86C34.52 39.77 34.61 39.59 34.76 39.59L35.96 39.59L36.35 38.48C36.32 38.27 36.53 38.27 36.59 38.45Z" fill="#FFE15A" fill-opacity="1.000000" fill-rule="evenodd"/>
		<path id="Vector" d="M36.59 62.96L36.98 64.07L38.18 64.07C38.33 64.07 38.42 64.28 38.27 64.4L37.31 65.12L37.67 66.29C37.7 66.44 37.55 66.56 37.43 66.5L36.47 65.78L35.51 66.5C35.39 66.59 35.18 66.47 35.27 66.29L35.63 65.12L34.67 64.4C34.55 64.31 34.58 64.13 34.76 64.07L35.96 64.07L36.35 62.96C36.32 62.84 36.53 62.84 36.59 62.96Z" fill="#FFE15A" fill-opacity="1.000000" fill-rule="evenodd"/>
		<path id="Vector" d="M48.77 50.72L49.16 51.83L50.36 51.83C50.51 51.83 50.6 52.04 50.45 52.16L49.49 52.88L49.85 54.05C49.88 54.2 49.73 54.32 49.61 54.26L48.65 53.54L47.69 54.26C47.57 54.35 47.36 54.23 47.45 54.05L47.81 52.88L46.85 52.16C46.73 52.07 46.76 51.89 46.94 51.83L48.14 51.83L48.53 50.72C48.47 50.57 48.71 50.57 48.77 50.72Z" fill="#FFE15A" fill-opacity="1.000000" fill-rule="evenodd"/>
		<path id="Vector" d="M24.41 50.72L24.8 51.83L26 51.83C26.15 51.83 26.24 52.04 26.09 52.16L25.13 52.88L25.49 54.05C25.52 54.2 25.37 54.32 25.25 54.26L24.29 53.54L23.33 54.26C23.21 54.35 23 54.23 23.09 54.05L23.45 52.88L22.49 52.16C22.37 52.07 22.4 51.89 22.58 51.83L23.78 51.83L24.17 50.72C24.17 50.57 24.35 50.57 24.41 50.72Z" fill="#FFE15A" fill-opacity="1.000000" fill-rule="evenodd"/>
		<path id="Vector" d="M26.24 44.27L26.63 45.38L27.83 45.38C27.98 45.38 28.07 45.59 27.92 45.71L26.96 46.43L27.32 47.6C27.35 47.75 27.2 47.87 27.08 47.81L26.12 47.09L25.16 47.81C25.04 47.9 24.83 47.78 24.92 47.6L25.28 46.43L24.32 45.71C24.2 45.62 24.23 45.44 24.41 45.38L25.61 45.38L26 44.27C25.97 44.15 26.15 44.15 26.24 44.27Z" fill="#FFE15A" fill-opacity="1.000000" fill-rule="evenodd"/>
		<path id="Vector" d="M47.33 56.57L47.72 57.68L48.92 57.68C49.07 57.68 49.16 57.89 49.01 58.01L48.05 58.73L48.41 59.9C48.44 60.05 48.29 60.17 48.17 60.11L47.21 59.39L46.25 60.11C46.13 60.2 45.92 60.08 46.01 59.9L46.37 58.73L45.41 58.01C45.29 57.92 45.32 57.74 45.5 57.68L46.7 57.68L47.09 56.57C47.09 56.45 47.27 56.45 47.33 56.57Z" fill="#FFE15A" fill-opacity="1.000000" fill-rule="evenodd"/>
		<path id="Vector" d="M42.83 39.8L43.22 40.91L44.42 40.91C44.57 40.91 44.66 41.12 44.51 41.24L43.58 41.96L43.94 43.13C43.97 43.28 43.82 43.4 43.7 43.34L42.74 42.62L41.78 43.34C41.66 43.43 41.45 43.31 41.54 43.13L41.9 41.96L40.91 41.24C40.79 41.15 40.82 40.97 41 40.91L42.2 40.91L42.59 39.8C42.65 39.65 42.8 39.65 42.83 39.8Z" fill="#FFE15A" fill-opacity="1.000000" fill-rule="evenodd"/>
		<path id="Vector" d="M30.68 61.04L31.07 62.15L32.27 62.15C32.42 62.15 32.51 62.36 32.36 62.48L31.4 63.2L31.76 64.37C31.79 64.52 31.64 64.64 31.52 64.58L30.56 63.86L29.6 64.58C29.48 64.67 29.27 64.55 29.36 64.37L29.72 63.2L28.76 62.48C28.64 62.39 28.67 62.21 28.85 62.15L30.05 62.15L30.44 61.04C30.41 60.89 30.65 60.89 30.68 61.04Z" fill="#FFE15A" fill-opacity="1.000000" fill-rule="evenodd"/>
		<path id="Vector" d="M47.03 44.27L46.64 45.38L45.44 45.38C45.29 45.38 45.2 45.59 45.35 45.71L46.31 46.43L45.95 47.6C45.92 47.75 46.07 47.87 46.19 47.81L47.15 47.09L48.11 47.81C48.23 47.9 48.44 47.78 48.35 47.6L47.99 46.43L48.95 45.71C49.07 45.62 49.04 45.44 48.86 45.38L47.66 45.38L47.27 44.27C47.27 44.15 47.09 44.15 47.03 44.27Z" fill="#FFE15A" fill-opacity="1.000000" fill-rule="evenodd"/>
		<path id="Vector" d="M25.91 56.57L25.52 57.68L24.32 57.68C24.17 57.68 24.08 57.89 24.23 58.01L25.19 58.73L24.83 59.9C24.8 60.05 24.95 60.17 25.07 60.11L26.03 59.39L26.99 60.11C27.11 60.2 27.32 60.08 27.23 59.9L26.87 58.73L27.83 58.01C27.95 57.92 27.92 57.74 27.74 57.68L26.54 57.68L26.15 56.57C26.15 56.45 25.97 56.45 25.91 56.57Z" fill="#FFE15A" fill-opacity="1.000000" fill-rule="evenodd"/>
		<path id="Vector" d="M30.35 39.8L29.96 40.91L28.76 40.91C28.61 40.91 28.52 41.12 28.67 41.24L29.63 41.96L29.27 43.13C29.24 43.28 29.39 43.4 29.51 43.34L30.47 42.62L31.43 43.34C31.55 43.43 31.76 43.31 31.67 43.13L31.31 41.96L32.27 41.24C32.39 41.15 32.36 40.97 32.18 40.91L30.98 40.91L30.59 39.8C30.65 39.65 30.41 39.65 30.35 39.8Z" fill="#FFE15A" fill-opacity="1.000000" fill-rule="evenodd"/>
		<path id="Vector" d="M42.56 61.04L42.17 62.15L40.97 62.15C40.82 62.15 40.73 62.36 40.88 62.48L41.84 63.2L41.48 64.37C41.45 64.52 41.6 64.64 41.72 64.58L42.68 63.86L43.64 64.58C43.76 64.67 43.97 64.55 43.88 64.37L43.52 63.2L44.48 62.48C44.6 62.39 44.57 62.21 44.39 62.15L43.19 62.15L42.8 61.04C42.8 60.89 42.65 60.89 42.56 61.04Z" fill="#FFE15A" fill-opacity="1.000000" fill-rule="evenodd"/>
	</g>
</svg>
