<svg width="200.000000" height="52.000000" viewBox="0 0 200 52" fill="none" xmlns="http://www.w3.org/2000/svg" xmlns:xlink="http://www.w3.org/1999/xlink">
	<desc>
			Created with Pixso.
	</desc>
	<defs>
		<clipPath id="clip3358_1601">
			<rect id="photo.svg" width="199.945267" height="52.230003" transform="translate(-0.731445 -0.947266)" fill="white" fill-opacity="0"/>
		</clipPath>
		<clipPath id="clip3358_1597">
			<rect id="photo.svg fill" width="200.000000" height="52.230000" transform="translate(-0.758789 -0.947266)" fill="white" fill-opacity="0"/>
		</clipPath>
		<clipPath id="clip3358_1596">
			<rect id="Link → photo.svg" width="200.000000" height="52.230000" transform="translate(-0.758789 -0.947266)" fill="white" fill-opacity="0"/>
		</clipPath>
	</defs>
	<g clip-path="url(#clip3358_1596)">
		<g clip-path="url(#clip3358_1597)">
			<g clip-path="url(#clip3358_1601)">
				<path id="Vector" d="M130.06 43.63L199.21 43.63L199.21 44.8L130.06 44.8L130.06 43.63Z" fill="#EF414B" fill-opacity="1.000000" fill-rule="evenodd"/>
				<path id="Vector" d="M176.99 26.12C177.43 26.71 178.02 27.15 178.76 27.44C179.49 27.74 180.23 27.88 181.11 27.88C182 27.88 182.88 27.74 183.47 27.44C184.2 27.15 184.79 26.71 185.23 26.12C185.67 25.53 186.11 24.94 186.26 24.21C186.56 23.47 186.56 22.74 186.56 21.85C186.56 20.97 186.41 20.23 186.26 19.5C185.97 18.76 185.67 18.17 185.23 17.73C185.23 17.29 185.38 17 185.38 16.7C185.53 16.26 185.82 15.82 186.11 15.53C186.41 15.23 186.7 14.94 187.14 14.79C187.59 14.64 187.88 14.5 188.32 14.5C188.47 14.5 188.47 14.5 188.62 14.5L188.62 13.03C188.47 13.03 188.47 13.03 188.32 13.03C187.59 13.03 186.85 13.17 186.26 13.47C185.67 13.76 185.09 14.06 184.64 14.64C184.2 15.08 183.91 15.67 183.76 16.41C183.76 16.56 183.76 16.56 183.61 16.7C183.47 16.7 183.47 16.56 183.32 16.56C182.58 16.26 181.85 16.12 180.97 16.12C180.08 16.12 179.2 16.26 178.61 16.56C177.88 16.85 177.29 17.29 176.85 17.88C176.4 18.47 175.96 19.06 175.82 19.79C175.52 20.53 175.52 21.26 175.52 22.15C175.52 23.03 175.67 23.77 175.82 24.5C176.11 24.94 176.55 25.53 176.99 26.12ZM177.88 19.94C178.02 19.35 178.32 18.91 178.61 18.62C178.91 18.17 179.35 18.03 179.79 17.73C180.23 17.59 180.67 17.44 181.11 17.44C181.55 17.44 182 17.59 182.44 17.73C182.88 17.88 183.32 18.17 183.61 18.62C183.91 19.06 184.2 19.5 184.35 19.94C184.5 20.53 184.64 21.12 184.64 21.85C184.64 22.59 184.5 23.18 184.35 23.77C184.2 24.35 183.91 24.8 183.61 25.09C183.32 25.38 182.88 25.68 182.44 25.97C182 26.12 181.55 26.27 181.11 26.27C180.67 26.27 180.23 26.12 179.79 25.97C179.35 25.83 178.91 25.53 178.61 25.09C178.32 24.8 178.02 24.21 177.88 23.77C177.73 23.18 177.58 22.59 177.58 21.85C177.58 21.12 177.58 20.53 177.88 19.94Z" fill="#232842" fill-opacity="1.000000" fill-rule="evenodd"/>
				<path id="Vector" d="M184.35 31.42C184.2 32 183.91 32.45 183.61 32.74C183.32 33.18 182.88 33.33 182.44 33.62C182 33.77 181.55 33.92 181.11 33.92C180.67 33.92 180.23 33.77 179.79 33.62C179.35 33.48 178.91 33.18 178.61 32.74C178.32 32.45 178.02 31.86 177.88 31.42C177.73 30.83 177.58 30.24 177.58 29.65L175.52 29.65C175.52 30.53 175.67 31.27 175.82 32C176.11 32.74 176.4 33.33 176.85 33.92C177.29 34.51 177.88 34.95 178.61 35.24C179.35 35.54 180.08 35.68 180.97 35.68C181.85 35.68 182.73 35.54 183.32 35.24C184.06 34.95 184.64 34.51 185.09 33.92C185.53 33.33 185.97 32.74 186.11 32C186.41 31.27 186.41 30.53 186.41 29.65L184.64 29.65C184.64 30.24 184.5 30.83 184.35 31.42Z" fill="#232842" fill-opacity="1.000000" fill-rule="evenodd"/>
				<path id="Vector" d="M53.7 27.59L48.11 11.7L50.32 11.7L54.88 25.53L59.58 11.7L61.79 11.7L56.2 27.59L53.7 27.59Z" fill="#232842" fill-opacity="1.000000" fill-rule="evenodd"/>
				<path id="Vector" d="M63.12 14.06L63.12 11.7L65.03 11.7L65.03 14.06L63.12 14.06ZM65.03 16.12L65.03 27.59L63.12 27.59L63.12 16.12L65.03 16.12Z" fill="#232842" fill-opacity="1.000000" fill-rule="evenodd"/>
				<path id="Vector" d="M69.59 25.09C69.74 25.38 70.03 25.68 70.33 25.83C70.62 25.97 70.91 26.12 71.36 26.27C71.65 26.41 72.09 26.41 72.53 26.41C72.83 26.41 73.12 26.41 73.41 26.41C73.71 26.41 74 26.27 74.3 26.12C74.59 25.97 74.74 25.83 75.03 25.53C75.18 25.24 75.33 24.94 75.33 24.65C75.33 24.21 75.18 23.77 74.74 23.47C74.3 23.18 73.86 23.03 73.41 22.88C72.83 22.74 72.24 22.59 71.65 22.44C71.06 22.29 70.33 22.15 69.88 21.85C69.3 21.56 68.85 21.26 68.56 20.82C68.12 20.38 67.97 19.79 67.97 19.06C67.97 18.47 68.12 18.03 68.41 17.59C68.71 17.14 69 16.85 69.44 16.56C69.88 16.26 70.33 16.11 70.77 15.97C71.21 15.82 71.8 15.82 72.24 15.82C72.83 15.82 73.56 15.82 74 15.97C74.59 16.11 75.03 16.26 75.48 16.56C75.92 16.85 76.21 17.14 76.5 17.73C76.8 18.17 76.95 18.76 76.95 19.5L75.03 19.5C75.03 19.06 74.89 18.76 74.74 18.62C74.59 18.32 74.3 18.17 74.15 18.03C73.86 17.88 73.56 17.73 73.27 17.73C72.97 17.73 72.68 17.59 72.39 17.59C72.09 17.59 71.8 17.59 71.5 17.59C71.21 17.59 70.91 17.73 70.77 17.88C70.47 18.03 70.33 18.17 70.18 18.32C70.03 18.47 69.88 18.76 69.88 19.06C69.88 19.35 70.03 19.65 70.18 19.94C70.47 20.09 70.77 20.38 71.06 20.53C71.36 20.68 71.8 20.82 72.24 20.82C72.68 20.97 73.12 20.97 73.56 21.12C74 21.26 74.45 21.41 74.89 21.56C75.33 21.71 75.77 21.85 76.06 22.15C76.36 22.44 76.65 22.74 76.95 23.03C77.09 23.47 77.24 23.91 77.24 24.35C77.24 25.09 77.09 25.68 76.8 26.12C76.5 26.56 76.06 27 75.62 27.3C75.18 27.59 74.59 27.74 74 27.88C73.41 28.03 72.83 28.03 72.24 28.03C71.65 28.03 71.06 28.03 70.47 27.88C69.88 27.74 69.44 27.59 69 27.3C68.56 27 68.27 26.56 67.97 26.12C67.68 25.68 67.53 25.09 67.53 24.35L69.44 24.35C69.3 24.35 69.44 24.79 69.59 25.09Z" fill="#232842" fill-opacity="1.000000" fill-rule="evenodd"/>
				<path id="Vector" d="M89.6 27.59C89.31 27.74 88.86 27.88 88.28 27.88C87.83 27.88 87.39 27.74 87.1 27.44C86.8 27.15 86.66 26.71 86.66 26.12C86.07 26.71 85.48 27.15 84.89 27.44C84.16 27.74 83.42 27.88 82.68 27.88C82.1 27.88 81.66 27.88 81.21 27.74C80.77 27.59 80.33 27.44 80.04 27.15C79.74 26.85 79.45 26.56 79.15 26.12C79.01 25.68 78.86 25.24 78.86 24.65C78.86 24.06 79.01 23.47 79.15 23.03C79.45 22.59 79.74 22.29 80.04 22C80.33 21.71 80.77 21.56 81.21 21.41C81.66 21.26 82.1 21.12 82.68 21.12C83.27 20.97 83.71 20.97 84.16 20.82C84.6 20.82 85.04 20.68 85.33 20.53C85.63 20.38 85.92 20.23 86.22 20.09C86.36 19.94 86.51 19.65 86.51 19.2C86.51 18.76 86.36 18.47 86.22 18.17C86.07 17.88 85.92 17.73 85.63 17.59C85.33 17.44 85.04 17.29 84.74 17.29C84.45 17.29 84.16 17.29 83.86 17.29C83.13 17.29 82.39 17.44 81.8 17.73C81.21 18.03 80.92 18.62 80.92 19.5L79.01 19.5C79.01 18.76 79.15 18.17 79.45 17.73C79.74 17.29 80.04 16.85 80.48 16.56C80.92 16.26 81.36 15.97 81.95 15.97C82.54 15.82 83.13 15.82 83.71 15.82C84.3 15.82 84.74 15.82 85.33 15.97C85.77 16.11 86.36 16.26 86.66 16.41C87.1 16.7 87.39 17 87.69 17.44C87.98 17.88 88.13 18.32 88.13 19.06L88.13 24.94C88.13 25.38 88.13 25.68 88.28 25.97C88.28 26.12 88.57 26.27 88.86 26.27C89.01 26.27 89.16 26.27 89.45 26.12L89.45 27.59L89.6 27.59ZM86.51 21.71C86.22 21.85 85.92 22 85.63 22.15C85.19 22.29 84.89 22.29 84.45 22.29C84.01 22.29 83.57 22.44 83.13 22.44C82.68 22.44 82.24 22.59 81.95 22.74C81.66 22.88 81.36 23.03 81.07 23.32C80.92 23.62 80.77 23.91 80.77 24.5C80.77 24.79 80.77 25.09 80.92 25.24C81.07 25.38 81.21 25.68 81.36 25.83C81.51 25.97 81.8 26.12 82.1 26.12C82.39 26.12 82.68 26.27 82.98 26.27C83.57 26.27 84.16 26.12 84.6 25.97C85.04 25.83 85.48 25.53 85.63 25.38C85.92 25.09 86.07 24.79 86.22 24.5C86.36 24.21 86.36 23.91 86.36 23.62L86.36 21.71L86.51 21.71Z" fill="#232842" fill-opacity="1.000000" fill-rule="evenodd"/>
				<path id="Vector" d="M107.26 13.91C106.52 13.32 105.49 13.02 104.31 13.02C103.43 13.02 102.55 13.17 101.81 13.61C101.08 13.91 100.63 14.5 100.19 15.08C99.75 15.67 99.46 16.41 99.16 17.14C99.02 17.88 98.87 18.76 98.87 19.5C98.87 20.38 99.02 21.26 99.16 22C99.31 22.74 99.75 23.47 100.19 24.06C100.63 24.65 101.22 25.09 101.81 25.53C102.55 25.82 103.28 26.12 104.31 26.12C105.05 26.12 105.64 25.97 106.22 25.82C106.81 25.53 107.26 25.24 107.7 24.79C108.14 24.35 108.43 23.91 108.58 23.32C108.87 22.74 108.87 22.15 109.02 21.56L111.08 21.56C110.93 23.62 110.2 25.09 109.02 26.27C107.84 27.44 106.22 27.88 104.17 27.88C102.99 27.88 101.81 27.74 100.93 27.3C100.05 26.85 99.31 26.27 98.57 25.53C97.99 24.79 97.54 23.91 97.25 22.88C96.96 21.85 96.81 20.82 96.81 19.65C96.81 18.47 96.96 17.44 97.25 16.41C97.54 15.38 97.99 14.5 98.72 13.76C99.31 13.02 100.19 12.44 101.08 12C101.96 11.55 103.14 11.41 104.31 11.41C105.19 11.41 105.93 11.55 106.67 11.7C107.4 12 108.14 12.29 108.58 12.73C109.17 13.17 109.61 13.76 110.05 14.35C110.49 14.94 110.64 15.67 110.79 16.56L108.73 16.56C108.58 15.38 108.14 14.5 107.26 13.91Z" fill="#232842" fill-opacity="1.000000" fill-rule="evenodd"/>
				<path id="Vector" d="M113.29 19.5C113.58 18.76 113.88 18.17 114.32 17.59C114.76 17 115.35 16.56 116.08 16.26C116.82 15.97 117.55 15.82 118.44 15.82C119.32 15.82 120.2 15.97 120.79 16.26C121.53 16.56 122.12 17 122.56 17.59C123 18.17 123.44 18.76 123.59 19.5C123.88 20.23 123.88 20.97 123.88 21.85C123.88 22.74 123.73 23.47 123.59 24.21C123.29 24.94 123 25.53 122.56 26.12C122.12 26.71 121.53 27.15 120.79 27.44C120.06 27.74 119.32 27.88 118.44 27.88C117.55 27.88 116.67 27.74 116.08 27.44C115.35 27.15 114.76 26.71 114.32 26.12C113.88 25.53 113.43 24.94 113.29 24.21C112.99 23.47 112.99 22.74 112.99 21.85C112.99 20.97 113.14 20.23 113.29 19.5ZM115.35 23.77C115.49 24.35 115.79 24.79 116.08 25.09C116.38 25.38 116.82 25.68 117.26 25.97C117.7 26.12 118.14 26.27 118.58 26.27C119.03 26.27 119.47 26.12 119.91 25.97C120.35 25.83 120.79 25.53 121.09 25.09C121.38 24.79 121.67 24.21 121.82 23.77C121.97 23.18 122.12 22.59 122.12 21.85C122.12 21.12 121.97 20.53 121.82 19.94C121.67 19.35 121.38 18.91 121.09 18.62C120.79 18.17 120.35 18.03 119.91 17.73C119.47 17.59 119.03 17.44 118.58 17.44C118.14 17.44 117.7 17.59 117.26 17.73C116.82 17.88 116.38 18.17 116.08 18.62C115.79 19.06 115.49 19.5 115.35 19.94C115.2 20.53 115.05 21.12 115.05 21.85C115.05 22.59 115.05 23.18 115.35 23.77Z" fill="#232842" fill-opacity="1.000000" fill-rule="evenodd"/>
				<path id="Vector" d="M128.44 16.11L128.44 17.88C129.18 16.56 130.5 15.82 132.12 15.82C132.85 15.82 133.44 15.97 134.03 16.11C134.47 16.26 134.91 16.56 135.21 17C135.5 17.44 135.8 17.88 135.8 18.32C135.94 18.76 135.94 19.35 135.94 20.09L135.94 27.59L134.03 27.59L134.03 19.79C134.03 19.06 133.89 18.47 133.44 18.17C133 17.73 132.41 17.59 131.68 17.59C131.09 17.59 130.65 17.73 130.21 17.88C129.77 18.03 129.47 18.32 129.18 18.62C128.88 18.91 128.74 19.35 128.59 19.79C128.44 20.23 128.44 20.68 128.44 21.26L128.44 27.74L126.53 27.74L126.53 16.26L128.44 16.26L128.44 16.11Z" fill="#232842" fill-opacity="1.000000" fill-rule="evenodd"/>
				<path id="Vector" d="M146.1 18.03C145.66 17.59 144.92 17.44 144.18 17.44C143.45 17.44 142.86 17.59 142.42 17.88C141.98 18.17 141.53 18.47 141.39 18.91C141.09 19.35 140.95 19.79 140.8 20.38C140.65 20.97 140.65 21.41 140.65 22C140.65 22.59 140.65 23.03 140.8 23.62C140.95 24.06 141.09 24.5 141.39 24.94C141.68 25.38 141.98 25.68 142.42 25.83C142.86 26.12 143.3 26.12 143.89 26.12C144.77 26.12 145.51 25.83 146.1 25.38C146.68 24.94 146.98 24.21 147.13 23.32L149.04 23.32C148.89 24.79 148.3 25.83 147.42 26.56C146.54 27.3 145.36 27.74 143.89 27.74C143.01 27.74 142.27 27.59 141.53 27.3C140.8 27 140.36 26.56 139.92 26.12C139.48 25.53 139.18 24.94 138.89 24.21C138.59 23.47 138.59 22.74 138.59 21.85C138.59 20.97 138.74 20.23 138.89 19.5C139.18 18.76 139.48 18.03 139.92 17.59C140.36 17 140.95 16.56 141.68 16.26C142.42 15.97 143.15 15.82 144.04 15.82C144.63 15.82 145.36 15.97 145.8 16.11C146.39 16.26 146.83 16.56 147.27 16.85C147.72 17.14 148.01 17.59 148.3 18.03C148.6 18.47 148.74 19.06 148.89 19.79L146.98 19.79C146.83 19.06 146.54 18.47 146.1 18.03Z" fill="#232842" fill-opacity="1.000000" fill-rule="evenodd"/>
				<path id="Vector" d="M151.39 14.06L151.39 11.7L153.31 11.7L153.31 14.06L151.39 14.06ZM153.31 16.12L153.31 27.59L151.39 27.59L151.39 16.12L153.31 16.12Z" fill="#232842" fill-opacity="1.000000" fill-rule="evenodd"/>
				<path id="Vector" d="M164.63 26.85C163.75 27.44 162.72 27.88 161.4 27.88C160.52 27.88 159.63 27.74 159.04 27.44C158.31 27.15 157.87 26.71 157.28 26.27C156.84 25.68 156.54 25.09 156.25 24.35C155.95 23.62 155.95 22.74 155.81 22C155.81 21.12 155.95 20.38 156.25 19.65C156.54 18.91 156.84 18.32 157.42 17.73C157.87 17.14 158.46 16.85 159.19 16.56C159.78 16.26 160.52 16.11 161.4 16.11C162.43 16.11 163.31 16.26 163.9 16.7C164.63 17.14 165.08 17.73 165.52 18.32C165.96 18.91 166.25 19.65 166.4 20.53C166.55 21.26 166.55 22 166.55 22.74L157.87 22.74C157.87 23.18 157.87 23.76 158.01 24.21C158.16 24.65 158.31 25.09 158.6 25.38C158.9 25.68 159.34 25.97 159.78 26.27C160.22 26.41 160.81 26.56 161.4 26.56C162.13 26.56 162.87 26.41 163.31 25.97C163.75 25.53 164.19 25.09 164.34 24.35L166.25 24.35C165.96 25.24 165.52 26.27 164.63 26.85ZM164.19 19.5C164.05 19.06 163.75 18.76 163.46 18.47C163.16 18.17 162.87 17.88 162.43 17.73C161.99 17.59 161.55 17.44 161.1 17.44C160.66 17.44 160.22 17.59 159.78 17.73C159.34 17.88 159.04 18.17 158.75 18.47C158.46 18.76 158.31 19.06 158.01 19.5C157.87 19.94 157.72 20.38 157.72 20.82L164.34 20.82C164.34 20.23 164.34 19.94 164.19 19.5Z" fill="#232842" fill-opacity="1.000000" fill-rule="evenodd"/>
				<path id="Vector" d="M170.37 16.11L170.37 18.47C170.81 17.59 171.4 16.85 171.99 16.41C172.73 15.97 173.46 15.82 174.49 15.82L174.49 17.88C173.76 17.88 173.02 18.03 172.58 18.17C171.99 18.32 171.55 18.62 171.26 19.06C170.96 19.5 170.67 19.94 170.52 20.53C170.37 21.12 170.23 21.71 170.23 22.44L170.23 27.59L168.46 27.59L168.46 16.11L170.37 16.11Z" fill="#232842" fill-opacity="1.000000" fill-rule="evenodd"/>
				<path id="Vector" d="M197.3 26.85C196.41 27.44 195.38 27.88 194.06 27.88C193.18 27.88 192.29 27.74 191.71 27.44C190.97 27.15 190.53 26.71 189.94 26.27C189.5 25.68 189.2 25.09 188.91 24.35C188.62 23.62 188.62 22.74 188.47 22C188.47 21.12 188.62 20.38 188.91 19.65C189.2 18.91 189.5 18.32 190.09 17.73C190.53 17.14 191.12 16.85 191.85 16.56C192.44 16.26 193.18 16.11 194.06 16.11C195.09 16.11 195.97 16.26 196.56 16.7C197.3 17.14 197.74 17.73 198.18 18.32C198.62 18.91 198.92 19.65 199.06 20.53C199.21 21.26 199.21 22 199.21 22.74L190.53 22.74C190.53 23.18 190.53 23.76 190.68 24.21C190.82 24.65 190.97 25.09 191.26 25.38C191.56 25.68 192 25.97 192.44 26.27C192.88 26.41 193.47 26.56 194.06 26.56C194.8 26.56 195.53 26.41 195.97 25.97C196.41 25.53 196.85 25.09 197 24.35L198.92 24.35C198.77 25.24 198.18 26.27 197.3 26.85ZM196.85 19.5C196.71 19.06 196.41 18.76 196.12 18.47C195.83 18.17 195.53 17.88 195.09 17.73C194.65 17.59 194.21 17.44 193.77 17.44C193.32 17.44 192.88 17.59 192.44 17.73C192 17.88 191.71 18.17 191.41 18.47C191.12 18.76 190.97 19.06 190.68 19.5C190.53 19.94 190.38 20.38 190.38 20.82L197 20.82C197.15 20.23 197 19.94 196.85 19.5Z" fill="#232842" fill-opacity="1.000000" fill-rule="evenodd"/>
				<path id="Vector" d="M95.34 34.06L97.25 34.06L97.25 36.42L95.34 36.42L95.34 34.06Z" fill="#232842" fill-opacity="1.000000" fill-rule="evenodd"/>
				<path id="Vector" d="M57.82 36.12C57.08 35.68 56.2 35.39 55.17 35.39C54.73 35.39 54.29 35.39 53.85 35.54C53.41 35.68 52.96 35.83 52.67 35.98C52.38 36.12 52.08 36.42 51.93 36.86C51.79 37.15 51.64 37.59 51.64 38.18C51.64 38.62 51.79 39.07 52.08 39.36C52.38 39.66 52.82 39.95 53.26 40.1C53.7 40.24 54.29 40.39 54.88 40.54C55.47 40.68 56.05 40.83 56.79 40.98C57.38 41.13 57.97 41.27 58.7 41.57C59.29 41.71 59.88 42.01 60.32 42.45C60.76 42.74 61.2 43.19 61.5 43.77C61.79 44.36 61.94 44.95 61.94 45.69C61.94 46.57 61.79 47.31 61.35 47.89C60.91 48.48 60.47 48.92 59.88 49.37C59.29 49.81 58.56 49.95 57.82 50.25C57.08 50.4 56.35 50.54 55.61 50.54C54.73 50.54 53.85 50.4 53.11 50.25C52.38 49.95 51.64 49.66 51.05 49.22C50.46 48.78 50.02 48.19 49.58 47.45C49.29 46.72 48.99 45.98 48.99 44.95L51.05 44.95C51.05 45.69 51.2 46.13 51.49 46.72C51.79 47.16 52.08 47.6 52.52 47.89C52.96 48.19 53.41 48.48 53.99 48.63C54.58 48.78 55.17 48.92 55.76 48.92C56.2 48.92 56.64 48.92 57.23 48.78C57.67 48.63 58.11 48.48 58.56 48.33C59 48.19 59.29 47.89 59.44 47.45C59.73 47.01 59.73 46.57 59.73 45.98C59.73 45.39 59.58 44.95 59.29 44.66C59 44.36 58.56 44.07 58.11 43.77C57.67 43.63 57.08 43.33 56.5 43.19C55.91 43.04 55.32 42.89 54.58 42.74C53.99 42.6 53.41 42.45 52.67 42.3C52.08 42.16 51.49 41.86 51.05 41.57C50.61 41.27 50.17 40.83 49.87 40.39C49.58 39.95 49.43 39.36 49.43 38.62C49.43 37.89 49.58 37.15 49.87 36.57C50.17 35.98 50.61 35.54 51.2 35.09C51.79 34.65 52.38 34.51 53.11 34.21C53.85 34.06 54.58 33.92 55.17 33.92C56.05 33.92 56.79 34.06 57.38 34.21C58.11 34.36 58.7 34.65 59.14 35.09C59.73 35.54 60.03 35.98 60.32 36.71C60.62 37.3 60.76 38.04 60.76 38.92L58.7 38.92C59 37.45 58.56 36.71 57.82 36.12Z" fill="#232842" fill-opacity="1.000000" fill-rule="evenodd"/>
				<path id="Vector" d="M72.38 49.22C71.5 49.81 70.47 50.25 69.15 50.25C68.27 50.25 67.38 50.1 66.79 49.81C66.06 49.51 65.62 49.07 65.03 48.63C64.59 48.04 64.29 47.45 64 46.72C63.71 45.98 63.71 45.1 63.56 44.36C63.56 43.48 63.71 42.74 64 42.01C64.29 41.27 64.59 40.68 65.18 40.1C65.62 39.51 66.21 39.21 66.94 38.92C67.53 38.62 68.27 38.48 69.15 38.48C70.18 38.48 71.06 38.62 71.65 39.07C72.24 39.51 72.83 40.1 73.27 40.68C73.71 41.27 74 42.01 74.15 42.89C74.3 43.63 74.3 44.36 74.3 45.1L65.62 45.1C65.62 45.54 65.62 46.13 65.76 46.57C65.91 47.01 66.06 47.45 66.35 47.75C66.65 48.04 67.09 48.33 67.53 48.63C67.97 48.78 68.56 48.92 69.15 48.92C69.88 48.92 70.62 48.78 71.06 48.33C71.5 47.89 71.94 47.45 72.09 46.72L74 46.72C73.71 47.6 73.27 48.48 72.38 49.22ZM71.94 41.71C71.8 41.27 71.5 40.98 71.21 40.68C70.91 40.39 70.62 40.1 70.18 39.95C69.74 39.8 69.3 39.65 68.85 39.65C68.41 39.65 67.97 39.8 67.53 39.95C67.09 40.1 66.79 40.39 66.5 40.68C66.21 40.98 66.06 41.27 65.76 41.71C65.62 42.16 65.47 42.6 65.47 43.04L72.09 43.04C72.24 42.6 72.09 42.16 71.94 41.71Z" fill="#232842" fill-opacity="1.000000" fill-rule="evenodd"/>
				<path id="Vector" d="M78.12 38.33L78.12 40.68C78.56 39.8 79.15 39.07 79.74 38.62C80.48 38.18 81.21 38.04 82.24 38.04L82.24 40.1C81.51 40.1 80.77 40.24 80.33 40.39C79.74 40.54 79.3 40.83 79.01 41.27C78.71 41.71 78.42 42.16 78.27 42.74C78.12 43.33 77.98 43.92 77.98 44.66L77.98 49.81L76.06 49.81L76.06 38.33L78.12 38.33Z" fill="#232842" fill-opacity="1.000000" fill-rule="evenodd"/>
				<path id="Vector" d="M87.1 49.95L82.83 38.48L84.89 38.48L88.13 48.04L91.22 38.48L93.42 38.48L89.16 49.95L87.1 49.95Z" fill="#232842" fill-opacity="1.000000" fill-rule="evenodd"/>
				<path id="Vector" d="M95.34 38.33L97.25 38.33L97.25 49.81L95.34 49.81L95.34 38.33Z" fill="#232842" fill-opacity="1.000000" fill-rule="evenodd"/>
				<path id="Vector" d="M107.26 40.39C106.81 39.95 106.08 39.8 105.34 39.8C104.61 39.8 104.02 39.95 103.58 40.24C103.14 40.54 102.69 40.83 102.55 41.27C102.25 41.71 102.11 42.16 101.96 42.74C101.81 43.33 101.81 43.77 101.81 44.36C101.81 44.95 101.81 45.39 101.96 45.98C102.11 46.42 102.25 46.86 102.55 47.31C102.84 47.75 103.14 48.04 103.58 48.19C104.02 48.48 104.46 48.48 105.05 48.48C105.93 48.48 106.67 48.19 107.26 47.75C107.84 47.31 108.14 46.57 108.28 45.69L110.2 45.69C110.05 47.16 109.46 48.19 108.58 48.92C107.7 49.66 106.52 50.1 105.05 50.1C104.17 50.1 103.43 49.95 102.69 49.66C101.96 49.37 101.52 48.92 101.08 48.48C100.63 47.89 100.34 47.31 100.05 46.57C99.75 45.83 99.75 45.1 99.75 44.22C99.75 43.33 99.9 42.6 100.05 41.86C100.34 41.13 100.63 40.39 101.08 39.95C101.52 39.36 102.11 38.92 102.84 38.62C103.58 38.33 104.31 38.18 105.19 38.18C105.78 38.18 106.52 38.33 106.96 38.48C107.55 38.62 107.99 38.92 108.43 39.21C108.87 39.51 109.17 39.95 109.46 40.39C109.76 40.83 109.9 41.42 110.05 42.16L108.14 42.16C108.14 41.42 107.84 40.83 107.26 40.39Z" fill="#232842" fill-opacity="1.000000" fill-rule="evenodd"/>
				<path id="Vector" d="M120.79 49.22C119.91 49.81 118.88 50.25 117.55 50.25C116.67 50.25 115.79 50.1 115.2 49.81C114.46 49.51 114.02 49.07 113.43 48.63C112.99 48.04 112.7 47.45 112.4 46.72C112.11 45.98 112.11 45.1 111.96 44.36C111.96 43.48 112.11 42.74 112.4 42.01C112.7 41.27 112.99 40.68 113.58 40.1C114.02 39.51 114.61 39.21 115.35 38.92C115.94 38.62 116.67 38.48 117.55 38.48C118.58 38.48 119.47 38.62 120.06 39.07C120.64 39.51 121.23 40.1 121.67 40.68C122.11 41.27 122.41 42.01 122.56 42.89C122.7 43.63 122.7 44.36 122.7 45.1L114.02 45.1C114.02 45.54 114.02 46.13 114.17 46.57C114.32 47.01 114.46 47.45 114.76 47.75C115.05 48.04 115.49 48.33 115.94 48.63C116.38 48.78 116.97 48.92 117.55 48.92C118.29 48.92 119.03 48.78 119.47 48.33C119.91 47.89 120.35 47.45 120.5 46.72L122.41 46.72C122.11 47.6 121.53 48.48 120.79 49.22ZM120.2 41.71C120.06 41.27 119.76 40.98 119.47 40.68C119.17 40.39 118.88 40.1 118.44 39.95C118 39.8 117.55 39.65 117.11 39.65C116.67 39.65 116.23 39.8 115.79 39.95C115.35 40.1 115.05 40.39 114.76 40.68C114.46 40.98 114.32 41.27 114.02 41.71C114.02 42.16 114.02 42.6 114.02 43.04L120.64 43.04C120.5 42.6 120.5 42.16 120.2 41.71Z" fill="#232842" fill-opacity="1.000000" fill-rule="evenodd"/>
				<path id="Vector" d="M20.01 33.92L15.15 33.92L19.86 10.23L-0.59 10.23L-0.74 10.38L13.83 51.28L30.45 51.28L45.17 10.23L32.96 10.23L20.01 33.92Z" fill="#EF414B" fill-opacity="1.000000" fill-rule="evenodd"/>
				<path id="Vector" d="M28.25 0.81L27.81 0.96L27.66 0.96L28.84 3.17L29.13 4.2L29.28 4.2L31.04 3.76L28.25 0.81Z" fill="#232842" fill-opacity="1.000000" fill-rule="evenodd"/>
				<path id="Vector" d="M31.19 4.34L29.28 4.79L29.13 4.93L29.57 5.96L29.57 8.46L30.16 8.32L30.31 8.32L31.19 4.34Z" fill="#232842" fill-opacity="1.000000" fill-rule="evenodd"/>
				<path id="Vector" d="M26.48 5.23C26.48 5.23 25.75 3.9 25.45 3.9L25.16 3.9L25.6 5.37L25.89 6.85L26.19 6.7C26.33 6.85 26.48 5.23 26.48 5.23Z" fill="#232842" fill-opacity="1.000000" fill-rule="evenodd"/>
				<path id="Vector" d="" fill="#232842" fill-opacity="1.000000" fill-rule="nonzero"/>
				<path id="Vector" d="" fill="#232842" fill-opacity="1.000000" fill-rule="nonzero"/>
				<path id="Vector" d="" fill="#232842" fill-opacity="1.000000" fill-rule="nonzero"/>
				<path id="Vector" d="" fill="#232842" fill-opacity="1.000000" fill-rule="nonzero"/>
				<path id="Vector" d="" fill="#232842" fill-opacity="1.000000" fill-rule="nonzero"/>
				<path id="Vector" d="" fill="#232842" fill-opacity="1.000000" fill-rule="nonzero"/>
				<path id="Vector" d="" fill="#232842" fill-opacity="1.000000" fill-rule="nonzero"/>
				<path id="Vector" d="" fill="#232842" fill-opacity="1.000000" fill-rule="nonzero"/>
				<path id="Vector" d="" fill="#232842" fill-opacity="1.000000" fill-rule="nonzero"/>
				<path id="Vector" d="" fill="#232842" fill-opacity="1.000000" fill-rule="nonzero"/>
				<path id="Vector" d="" fill="#232842" fill-opacity="1.000000" fill-rule="nonzero"/>
				<path id="Vector" d="" fill="#232842" fill-opacity="1.000000" fill-rule="nonzero"/>
				<path id="Vector" d="" fill="#232842" fill-opacity="1.000000" fill-rule="nonzero"/>
				<path id="Vector" d="" fill="#232842" fill-opacity="1.000000" fill-rule="nonzero"/>
				<path id="Vector" d="" fill="#232842" fill-opacity="1.000000" fill-rule="nonzero"/>
				<path id="Vector" d="" fill="#232842" fill-opacity="1.000000" fill-rule="nonzero"/>
				<path id="Vector" d="" fill="#232842" fill-opacity="1.000000" fill-rule="nonzero"/>
				<path id="Vector" d="" fill="#232842" fill-opacity="1.000000" fill-rule="nonzero"/>
				<path id="Vector" d="" fill="#232842" fill-opacity="1.000000" fill-rule="nonzero"/>
				<path id="Vector" d="" fill="#232842" fill-opacity="1.000000" fill-rule="nonzero"/>
				<path id="Vector" d="" fill="#232842" fill-opacity="1.000000" fill-rule="nonzero"/>
				<path id="Vector" d="" fill="#232842" fill-opacity="1.000000" fill-rule="nonzero"/>
				<path id="Vector" d="" fill="#232842" fill-opacity="1.000000" fill-rule="nonzero"/>
				<path id="Vector" d="" fill="#232842" fill-opacity="1.000000" fill-rule="nonzero"/>
				<path id="Vector" d="" fill="#232842" fill-opacity="1.000000" fill-rule="nonzero"/>
				<path id="Vector" d="" fill="#232842" fill-opacity="1.000000" fill-rule="nonzero"/>
				<path id="Vector" d="" fill="#232842" fill-opacity="1.000000" fill-rule="nonzero"/>
				<path id="Vector" d="" fill="#232842" fill-opacity="1.000000" fill-rule="nonzero"/>
				<path id="Vector" d="" fill="#232842" fill-opacity="1.000000" fill-rule="nonzero"/>
				<path id="Vector" d="" fill="#232842" fill-opacity="1.000000" fill-rule="nonzero"/>
				<path id="Vector" d="" fill="#232842" fill-opacity="1.000000" fill-rule="nonzero"/>
				<path id="Vector" d="" fill="#232842" fill-opacity="1.000000" fill-rule="nonzero"/>
				<path id="Vector" d="" fill="#232842" fill-opacity="1.000000" fill-rule="nonzero"/>
				<path id="Vector" d="" fill="#232842" fill-opacity="1.000000" fill-rule="nonzero"/>
				<path id="Vector" d="" fill="#232842" fill-opacity="1.000000" fill-rule="nonzero"/>
				<path id="Vector" d="" fill="#232842" fill-opacity="1.000000" fill-rule="nonzero"/>
				<path id="Vector" d="" fill="#232842" fill-opacity="1.000000" fill-rule="nonzero"/>
				<path id="Vector" d="M28.25 0.67L27.66 0.81L27.51 0.81L28.84 3.02L29.13 4.2L29.28 4.05L31.04 3.61L28.25 0.67Z" fill="#232842" fill-opacity="1.000000" fill-rule="evenodd"/>
				<path id="Vector" d="M31.19 4.49L29.28 4.93L29.13 4.93L29.57 5.96L29.57 8.46L30.16 8.32L30.31 8.32L31.19 4.49Z" fill="#232842" fill-opacity="1.000000" fill-rule="evenodd"/>
				<path id="Vector" d="M26.48 5.23C26.48 5.23 25.75 3.9 25.45 3.9L25.16 3.9L25.6 5.37L25.89 6.85L26.19 6.7C26.33 6.85 26.48 5.23 26.48 5.23Z" fill="#232842" fill-opacity="1.000000" fill-rule="evenodd"/>
				<path id="Vector" d="M26.78 4.79C26.78 4.79 25.89 5.23 25.6 5.37C25.75 5.37 25.89 5.37 25.89 5.23C26.19 5.23 26.48 5.08 26.63 5.08C26.33 5.08 26.04 5.23 25.89 5.23C25.75 5.23 25.6 5.23 25.6 5.37C25.89 5.37 26.92 5.37 26.92 5.37C27.66 5.37 28.84 5.08 30.01 4.79C31.19 4.49 32.07 4.34 32.07 4.34C32.81 4.2 33.1 3.9 33.25 3.76C33.54 3.61 33.54 3.46 33.54 3.46C33.54 3.46 33.54 3.46 33.4 3.31C33.25 3.17 32.81 3.02 31.93 3.31C31.93 3.31 30.9 3.61 29.87 3.9C28.69 4.2 27.51 4.49 26.78 4.79Z" fill="#232842" fill-opacity="1.000000" fill-rule="evenodd"/>
				<path id="Vector" d="M32.96 3.31C32.96 3.31 33.4 3.46 33.1 3.9L32.96 3.31Z" fill="#232842" fill-opacity="1.000000" fill-rule="evenodd"/>
			</g>
		</g>
	</g>
</svg>
