<svg width="70.000000" height="46.000000" viewBox="0 0 70 46" fill="none" xmlns="http://www.w3.org/2000/svg" xmlns:xlink="http://www.w3.org/1999/xlink">
	<desc>
			Created with Pixso.
	</desc>
	<defs/>
	<path id="Vector" d="M-0.52 39.74C-0.47 39.93 -0.41 40.09 -0.33 40.28C-0.13 40.72 0.08 41.17 0.32 41.61C1.65 43.73 4.12 45.11 7.04 45.11L61.49 45.11C64.35 45.11 66.82 43.68 68.2 41.61C68.45 41.21 68.69 40.77 68.85 40.33C68.91 40.14 68.99 39.98 69.04 39.79C69.1 39.65 69.15 39.44 69.15 39.3C69.25 38.9 69.29 38.51 69.29 38.11L69.29 38.06L69.29 34.56L69.29 31.06L69.29 27.56L69.29 24.06L69.29 20.56L69.29 17.06L69.29 13.4L69.29 9.9L69.29 6.4C69.29 6 69.24 5.61 69.15 5.21C69.1 5.07 69.1 4.86 69.04 4.72C68.99 4.53 68.94 4.37 68.85 4.18C68.66 3.74 68.45 3.29 68.2 2.9C66.87 0.78 64.41 -0.6 61.49 -0.6L34.25 -0.6L34.25 2.9L34.25 6.4L34.25 9.9L34.25 13.4L34.25 16.9L34.25 20.4L34.25 23.9L-0.76 23.9L-0.76 27.4L-0.76 30.9L-0.76 34.4L-0.76 37.9C-0.76 38.3 -0.71 38.69 -0.62 39.09C-0.62 39.44 -0.57 39.58 -0.52 39.74Z" fill="#EEEEEE" fill-opacity="1.000000" fill-rule="evenodd"/>
	<path id="Vector" d="M68.15 2.78C66.82 0.66 64.35 -0.72 61.43 -0.72L34.25 -0.72L34.25 2.78L68.15 2.78Z" fill="#B22334" fill-opacity="1.000000" fill-rule="evenodd"/>
	<path id="Vector" d="M-0.76 38.06L69.24 38.06L69.24 34.54L-0.76 34.54L-0.76 38.06Z" fill="#B22334" fill-opacity="1.000000" fill-rule="evenodd"/>
	<path id="Vector" d="M34.25 20.42L69.27 20.42L69.27 23.92L34.25 23.92L34.25 20.42Z" fill="#B22334" fill-opacity="1.000000" fill-rule="evenodd"/>
	<path id="Vector" d="M34.25 13.35L69.27 13.35L69.27 16.85L34.25 16.85L34.25 13.35Z" fill="#B22334" fill-opacity="1.000000" fill-rule="evenodd"/>
	<path id="Vector" d="M-0.76 27.47L69.24 27.47L69.24 30.97L-0.76 30.97L-0.76 27.47Z" fill="#B22334" fill-opacity="1.000000" fill-rule="evenodd"/>
	<path id="Vector" d="M61.49 45.11C64.36 45.11 66.82 43.68 68.21 41.61L0.32 41.61C1.65 43.73 4.12 45.11 7.04 45.11L61.49 45.11Z" fill="#B22334" fill-opacity="1.000000" fill-rule="evenodd"/>
	<path id="Vector" d="M34.25 6.28L69.27 6.28L69.27 9.78L34.25 9.78L34.25 6.28Z" fill="#B22334" fill-opacity="1.000000" fill-rule="evenodd"/>
	<path id="Vector" d="M-0.76 6.28C-0.76 5.87 -0.71 5.49 -0.62 5.09C-0.71 5.49 -0.76 5.89 -0.76 6.28Z" fill="#EEEEEE" fill-opacity="1.000000" fill-rule="evenodd"/>
	<path id="Vector" d="M-0.52 4.6C-0.47 4.41 -0.41 4.25 -0.33 4.06C-0.41 4.27 -0.47 4.41 -0.52 4.6Z" fill="#EEEEEE" fill-opacity="1.000000" fill-rule="evenodd"/>
	<path id="Vector" d="M34.25 -0.77L6.99 -0.77C2.74 -0.77 -0.76 2.38 -0.76 6.28L-0.76 23.92L34.25 23.92L34.25 -0.77Z" fill="#3C3B6E" fill-opacity="1.000000" fill-rule="evenodd"/>
	<path id="Vector" d="M3.14 4.06L4.33 4.84L3.89 6.12L5.08 5.33L6.27 6.12L5.83 4.84L7.02 4.06L5.54 4.06L5.1 2.78L4.66 4.06L3.14 4.06Z" fill="#FFFFFF" fill-opacity="1.000000" fill-rule="evenodd"/>
	<path id="Vector" d="M7.04 7.57L8.23 8.36L7.79 9.64L8.99 8.85L10.17 9.64L9.74 8.36L10.93 7.57L9.44 7.57L9 6.3L8.57 7.57L7.04 7.57Z" fill="#FFFFFF" fill-opacity="1.000000" fill-rule="evenodd"/>
	<path id="Vector" d="M14.79 7.57L15.98 8.36L15.55 9.64L16.74 8.85L17.93 9.64L17.49 8.36L18.68 7.57L17.19 7.57L16.75 6.3L16.32 7.57L14.79 7.57Z" fill="#FFFFFF" fill-opacity="1.000000" fill-rule="evenodd"/>
	<path id="Vector" d="M22.55 7.57L23.74 8.36L23.3 9.64L24.49 8.85L25.68 9.64L25.24 8.36L26.43 7.57L24.95 7.57L24.51 6.3L24.07 7.57L22.55 7.57Z" fill="#FFFFFF" fill-opacity="1.000000" fill-rule="evenodd"/>
	<path id="Vector" d="M7.04 14.64L8.23 15.43L7.79 16.71L8.99 15.92L10.17 16.71L9.74 15.43L10.93 14.64L9.44 14.64L9 13.37L8.57 14.64L7.04 14.64Z" fill="#FFFFFF" fill-opacity="1.000000" fill-rule="evenodd"/>
	<path id="Vector" d="M14.79 14.64L15.98 15.43L15.55 16.71L16.74 15.92L17.93 16.71L17.49 15.43L18.68 14.64L17.19 14.64L16.75 13.37L16.32 14.64L14.79 14.64Z" fill="#FFFFFF" fill-opacity="1.000000" fill-rule="evenodd"/>
	<path id="Vector" d="M22.55 14.64L23.74 15.43L23.3 16.71L24.49 15.92L25.68 16.71L25.24 15.43L26.43 14.64L24.95 14.64L24.54 13.37L24.09 14.64L22.55 14.64Z" fill="#FFFFFF" fill-opacity="1.000000" fill-rule="evenodd"/>
	<path id="Vector" d="M10.89 4.06L12.08 4.84L11.64 6.12L12.83 5.33L14.02 6.12L13.59 4.84L14.78 4.06L13.29 4.06L12.85 2.78L12.41 4.06L10.89 4.06Z" fill="#FFFFFF" fill-opacity="1.000000" fill-rule="evenodd"/>
	<path id="Vector" d="M18.7 4.06L19.89 4.84L19.45 6.12L20.64 5.33L21.83 6.12L21.39 4.84L22.58 4.06L21.1 4.06L20.66 2.78L20.22 4.06L18.7 4.06Z" fill="#FFFFFF" fill-opacity="1.000000" fill-rule="evenodd"/>
	<path id="Vector" d="M26.45 4.06L27.64 4.84L27.2 6.12L28.39 5.33L29.58 6.12L29.15 4.84L30.33 4.06L28.85 4.06L28.41 2.78L27.97 4.06L26.45 4.06Z" fill="#FFFFFF" fill-opacity="1.000000" fill-rule="evenodd"/>
	<path id="Vector" d="M3.14 11.12L4.33 11.91L3.89 13.19L5.08 12.4L6.27 13.19L5.83 11.91L7.02 11.12L5.54 11.12L5.1 9.85L4.66 11.12L3.14 11.12Z" fill="#FFFFFF" fill-opacity="1.000000" fill-rule="evenodd"/>
	<path id="Vector" d="M11.64 13.21L12.83 12.42L14.02 13.21L13.59 11.93L14.78 11.14L13.29 11.14L12.85 9.87L12.41 11.14L10.93 11.14L12.12 11.93L11.64 13.21Z" fill="#FFFFFF" fill-opacity="1.000000" fill-rule="evenodd"/>
	<path id="Vector" d="M18.7 11.12L19.89 11.91L19.45 13.19L20.64 12.4L21.83 13.19L21.39 11.91L22.58 11.12L21.1 11.12L20.66 9.85L20.22 11.12L18.7 11.12Z" fill="#FFFFFF" fill-opacity="1.000000" fill-rule="evenodd"/>
	<path id="Vector" d="M26.45 11.12L27.64 11.91L27.2 13.19L28.39 12.4L29.58 13.19L29.15 11.91L30.33 11.12L28.85 11.12L28.41 9.85L27.97 11.12L26.45 11.12Z" fill="#FFFFFF" fill-opacity="1.000000" fill-rule="evenodd"/>
	<path id="Vector" d="M3.14 18.14L4.33 18.93L3.89 20.21L5.08 19.42L6.27 20.21L5.83 18.93L7.02 18.14L5.54 18.14L5.1 16.87L4.66 18.14L3.14 18.14Z" fill="#FFFFFF" fill-opacity="1.000000" fill-rule="evenodd"/>
	<path id="Vector" d="M11.64 20.21L12.83 19.42L14.02 20.21L13.59 18.93L14.78 18.14L13.29 18.14L12.85 16.87L12.41 18.14L10.93 18.14L12.12 18.93L11.64 20.21Z" fill="#FFFFFF" fill-opacity="1.000000" fill-rule="evenodd"/>
	<path id="Vector" d="M18.7 18.14L19.89 18.93L19.45 20.21L20.64 19.42L21.83 20.21L21.39 18.93L22.58 18.14L21.1 18.14L20.66 16.87L20.22 18.14L18.7 18.14Z" fill="#FFFFFF" fill-opacity="1.000000" fill-rule="evenodd"/>
	<path id="Vector" d="M26.45 18.14L27.64 18.93L27.2 20.21L28.39 19.42L29.58 20.21L29.15 18.93L30.33 18.14L28.85 18.14L28.41 16.87L27.94 18.14L26.45 18.14Z" fill="#FFFFFF" fill-opacity="1.000000" fill-rule="evenodd"/>
</svg>
