<svg width="165.000000" height="165.000000" viewBox="0 0 165 165" fill="none" xmlns="http://www.w3.org/2000/svg" xmlns:xlink="http://www.w3.org/1999/xlink">
	<desc>
			Created with Pixso.
	</desc>
	<defs>
		<clipPath id="clip4454_7642">
			<rect id="database_3.svg" width="165.000000" height="165.000000" transform="translate(-0.269531 -0.789062)" fill="white" fill-opacity="0"/>
		</clipPath>
	</defs>
	<g clip-path="url(#clip4454_7642)">
		<path id="Vector" d="M51.91 74.74L96.04 67.19L94.39 60.05L50.3 67.31L51.91 74.74Z" fill="#3D8CEA" fill-opacity="1.000000" fill-rule="evenodd"/>
		<path id="Vector" d="M58.51 104.85L60.16 112.36L78.14 108.81L78.14 108.73L78.14 101.05L58.51 104.85Z" fill="#3D8CEA" fill-opacity="1.000000" fill-rule="evenodd"/>
		<path id="Vector" d="M55.99 93.46L78.1 89.42L78.1 83.48C78.1 82.94 78.18 82.37 78.27 81.83L54.34 86.08L55.99 93.46Z" fill="#3D8CEA" fill-opacity="1.000000" fill-rule="evenodd"/>
		<path id="Vector" d="M78.1 120.4L55.74 124.98L41.14 58.11L98.56 49.04L103.14 69.33C104.17 69.25 105.2 69.25 106.23 69.16L97.61 30.89L33.8 40.17L53.31 129.39L78.18 124.28C78.18 124.19 78.18 124.03 78.18 123.95L78.1 120.4Z" fill="#3D8CEA" fill-opacity="1.000000" fill-rule="evenodd"/>
		<path id="Vector" d="M107.64 108.68C93.65 108.68 82.35 104.19 82.35 98.58L82.35 108.68C82.35 114.29 93.65 118.79 107.64 118.79C121.62 118.79 132.92 114.29 132.92 108.68L132.92 98.58C132.92 104.19 121.54 108.68 107.64 108.68Z" fill="#D45553" fill-opacity="1.000000" fill-rule="evenodd"/>
		<path id="Vector" d="M107.64 123.86C93.65 123.86 82.35 119.37 82.35 113.76L82.35 123.86C82.35 129.47 93.65 133.97 107.64 133.97C121.62 133.97 132.92 129.47 132.92 123.86L132.92 113.76C132.92 119.37 121.54 123.86 107.64 123.86Z" fill="#D45553" fill-opacity="1.000000" fill-rule="evenodd"/>
		<path id="Vector" d="M107.64 73.41C93.65 73.41 82.35 77.91 82.35 83.52L82.35 93.63C82.35 99.24 93.65 103.73 107.64 103.73C121.62 103.73 132.92 99.24 132.92 93.63L132.92 83.52C132.92 77.91 121.54 73.41 107.64 73.41ZM107.64 91.03C93.73 91.03 84.91 86.53 84.91 83.44C84.91 80.34 93.73 75.85 107.64 75.85C121.54 75.85 130.36 80.34 130.36 83.44C130.36 86.57 121.54 91.03 107.64 91.03Z" fill="#D45553" fill-opacity="1.000000" fill-rule="evenodd"/>
	</g>
</svg>
