<svg width="165.000000" height="165.000000" viewBox="0 0 165 165" fill="none" xmlns="http://www.w3.org/2000/svg" xmlns:xlink="http://www.w3.org/1999/xlink">
	<desc>
			Created with Pixso.
	</desc>
	<defs>
		<clipPath id="clip4454_7657">
			<rect id="stamp1.svg" width="165.000000" height="165.000000" transform="translate(-0.269531 -0.789062)" fill="white" fill-opacity="0"/>
		</clipPath>
	</defs>
	<g clip-path="url(#clip4454_7657)">
		<path id="Vector" d="M120.67 116.36C121.7 116.36 122.53 117.18 122.53 118.21C122.53 119.24 121.7 120.07 120.67 120.07C119.64 120.07 118.81 119.24 118.81 118.21C118.85 117.18 119.68 116.36 120.67 116.36Z" fill="#D45553" fill-opacity="1.000000" fill-rule="evenodd"/>
		<path id="Vector" d="M113.2 105.22C115.35 103.94 117.95 103.2 120.71 103.2C123.43 103.2 126.03 103.94 128.22 105.22C130.49 106.54 132.39 108.44 133.7 110.71C134.98 112.85 135.73 115.45 135.73 118.21C135.73 120.94 134.98 123.53 133.7 125.72C132.39 127.99 130.49 129.89 128.22 131.21C126.07 132.49 123.48 133.23 120.71 133.23C117.99 133.23 115.39 132.53 113.2 131.21C110.93 129.89 109.04 127.99 107.76 125.72C106.48 123.58 105.74 120.98 105.74 118.21C105.74 115.49 106.48 112.89 107.76 110.71C109.04 108.44 110.93 106.54 113.2 105.22ZM120.67 106.99C114.48 106.99 109.45 112.07 109.45 118.21C109.45 124.4 114.44 129.43 120.67 129.43C126.86 129.43 131.89 124.44 131.89 118.21C131.93 112.03 126.9 106.99 120.67 106.99Z" fill="#D45553" fill-opacity="1.000000" fill-rule="evenodd"/>
		<path id="Vector" d="M113.2 119.16C112.71 119.16 112.26 118.71 112.26 118.21C112.26 113.55 116.05 109.8 120.67 109.8C121.17 109.8 121.62 110.25 121.62 110.75C121.62 111.24 121.17 111.7 120.67 111.7C117.04 111.7 114.11 114.62 114.11 118.26C114.11 118.75 113.74 119.16 113.2 119.16Z" fill="#D45553" fill-opacity="1.000000" fill-rule="evenodd"/>
		<path id="Vector" d="M128.22 119.16C127.72 119.16 127.27 118.71 127.27 118.21C127.27 114.62 124.34 111.66 120.71 111.66C120.22 111.66 119.76 111.2 119.76 110.71C119.76 110.21 120.22 109.76 120.71 109.76C125.37 109.76 129.13 113.55 129.13 118.17C129.17 118.75 128.71 119.16 128.22 119.16Z" fill="#D45553" fill-opacity="1.000000" fill-rule="evenodd"/>
		<path id="Vector" d="M120.67 126.67C120.18 126.67 119.72 126.22 119.72 125.72C119.72 125.23 120.18 124.77 120.67 124.77C122.57 124.77 124.34 123.99 125.58 122.54C125.95 122.17 126.53 122.09 126.9 122.46C127.27 122.83 127.35 123.41 126.98 123.78C125.42 125.64 123.15 126.67 120.67 126.67Z" fill="#D45553" fill-opacity="1.000000" fill-rule="evenodd"/>
		<path id="Vector" d="M120.67 126.67C118.19 126.67 115.93 125.6 114.36 123.78C113.99 123.41 114.03 122.79 114.44 122.46C114.81 122.09 115.43 122.13 115.76 122.54C116.96 123.99 118.77 124.77 120.67 124.77C121.17 124.77 121.62 125.22 121.62 125.72C121.62 126.21 121.21 126.67 120.67 126.67Z" fill="#D45553" fill-opacity="1.000000" fill-rule="evenodd"/>
		<path id="Vector" d="M113.2 34.81C113.2 37.4 111.1 39.51 108.5 39.51C105.9 39.51 103.8 37.4 103.8 34.81C103.8 32.21 105.9 30.1 108.5 30.1C111.14 30.14 113.2 32.21 113.2 34.81Z" fill="#3D8CEA" fill-opacity="1.000000" fill-rule="evenodd"/>
		<path id="Vector" d="M137.58 34.81C137.58 37.4 135.48 39.51 132.88 39.51C130.28 39.51 128.18 37.4 128.18 34.81C128.18 32.21 130.28 30.1 132.88 30.1C135.48 30.14 137.58 32.21 137.58 34.81Z" fill="#3D8CEA" fill-opacity="1.000000" fill-rule="evenodd"/>
		<path id="Vector" d="M103.84 34.81L137.54 34.81L137.54 67.64L103.84 67.64L103.84 34.81Z" fill="#3D8CEA" fill-opacity="1.000000" fill-rule="evenodd"/>
		<path id="Vector" d="M108.54 30.14L132.88 30.14L132.88 34.85L108.54 34.85L108.54 30.14Z" fill="#3D8CEA" fill-opacity="1.000000" fill-rule="evenodd"/>
		<path id="Vector" d="M120.67 45.12C121.7 45.12 122.53 45.94 122.53 46.97C122.53 48 121.7 48.83 120.67 48.83C119.64 48.83 118.81 48 118.81 46.97C118.85 45.99 119.68 45.12 120.67 45.12Z" fill="#3D8CEA" fill-opacity="1.000000" fill-rule="evenodd"/>
		<path id="Vector" d="M120.67 48.87C121.7 48.87 122.53 48.05 122.53 47.01C122.53 45.98 121.7 45.16 120.67 45.16C119.64 45.16 118.82 45.98 118.82 47.01C118.86 48.05 119.68 48.87 120.67 48.87ZM120.67 41.41C123.77 41.41 126.28 43.92 126.28 47.01C126.28 50.11 123.77 52.63 120.67 52.63C117.58 52.63 115.06 50.11 115.06 47.01C115.06 43.88 117.62 41.41 120.67 41.41Z" fill="#003C95" fill-opacity="1.000000" fill-rule="evenodd"/>
		<path id="Vector" d="M92.46 40.46L92.46 113.55C92.46 115.08 91.18 116.36 89.65 116.36L29.67 116.36C28.15 116.36 26.87 117.64 26.87 119.16L26.87 40.46C26.87 38.93 28.15 37.65 29.67 37.65L89.65 37.65C91.26 37.65 92.46 38.89 92.46 40.46ZM77.48 74.16C77.48 71.89 77.03 69.66 76.29 67.64C74.47 62.94 70.72 59.27 66.01 57.45C64.08 56.71 61.97 56.3 59.75 56.3C51.12 56.3 43.99 62.36 42.3 70.53C42.05 71.68 41.92 72.88 41.92 74.12C41.92 78.41 43.45 82.41 46.09 85.54L46.13 85.54C49.35 89.46 54.3 91.94 59.79 91.94C69.52 91.98 77.48 84.02 77.48 74.16Z" fill="#3D8CEA" fill-opacity="1.000000" fill-rule="evenodd"/>
		<path id="Vector" d="M89.65 116.36L29.67 116.36C28.15 116.36 26.87 117.64 26.87 119.16C26.87 120.69 28.15 121.97 29.67 121.97L89.65 121.97C91.18 121.97 92.46 120.69 92.46 119.16L92.46 113.55C92.46 115.08 91.26 116.36 89.65 116.36Z" fill="#545C66" fill-opacity="1.000000" fill-rule="evenodd"/>
		<path id="Vector" d="M29.67 117.31C28.64 117.31 27.82 118.13 27.82 119.16C27.82 120.19 28.64 121.02 29.67 121.02L89.65 121.02C90.68 121.02 91.51 120.19 91.51 119.16L91.51 116.77C90.93 117.1 90.31 117.26 89.65 117.26L29.67 117.26L29.67 117.31Z" fill="#F5F7FA" fill-opacity="1.000000" fill-rule="evenodd"/>
		<path id="Vector" d="M113.2 33.86L111.35 30.1L130.08 30.1L128.22 33.86L113.2 33.86Z" fill="#E6E9ED" fill-opacity="1.000000" fill-rule="evenodd"/>
		<path id="Vector" d="M103.84 60.13L137.54 60.13L137.54 63.89L103.84 63.89L103.84 60.13Z" fill="#656D78" fill-opacity="1.000000" fill-rule="evenodd"/>
		<path id="Vector" d="M81.36 102.29L38.25 102.29C37.76 102.29 37.3 101.84 37.3 101.34C37.3 100.85 37.76 100.39 38.25 100.39L81.32 100.39C81.81 100.39 82.27 100.85 82.27 101.34C82.31 101.88 81.85 102.29 81.36 102.29Z" fill="#FFFFFF" fill-opacity="1.000000" fill-rule="evenodd"/>
		<path id="Vector" d="M81.36 47.96L38.25 47.96C37.76 47.96 37.3 47.51 37.3 47.01C37.3 46.52 37.76 46.07 38.25 46.07L81.32 46.07C81.81 46.07 82.27 46.52 82.27 47.01C82.31 47.51 81.85 47.96 81.36 47.96Z" fill="#FFFFFF" fill-opacity="1.000000" fill-rule="evenodd"/>
		<path id="Vector" d="M73.85 107.94L45.76 107.94C45.26 107.94 44.81 107.49 44.81 106.99C44.81 106.5 45.26 106.04 45.76 106.04L73.85 106.04C74.35 106.04 74.8 106.5 74.8 106.99C74.8 107.49 74.39 107.94 73.85 107.94Z" fill="#FFFFFF" fill-opacity="1.000000" fill-rule="evenodd"/>
		<path id="Vector" d="M105.7 91.03C105.2 91.03 104.75 90.58 104.75 90.08L104.75 76.96C104.75 76.47 105.2 76.01 105.7 76.01C106.19 76.01 106.65 76.47 106.65 76.96L106.65 90.08C106.65 90.66 106.23 91.03 105.7 91.03Z" fill="#CCD1D9" fill-opacity="1.000000" fill-rule="evenodd"/>
		<path id="Vector" d="M135.73 91.03C135.23 91.03 134.78 90.58 134.78 90.08L134.78 76.96C134.78 76.47 135.23 76.01 135.73 76.01C136.22 76.01 136.68 76.47 136.68 76.96L136.68 90.08C136.63 90.66 136.22 91.03 135.73 91.03Z" fill="#CCD1D9" fill-opacity="1.000000" fill-rule="evenodd"/>
		<path id="Vector" d="M103.84 67.64L103.84 77L107.6 77C107.6 73.91 110.11 71.39 113.2 71.39L128.18 71.39C131.27 71.39 133.79 73.91 133.79 77L137.54 77L137.54 67.64L103.84 67.64Z" fill="#E6E9ED" fill-opacity="1.000000" fill-rule="evenodd"/>
		<path id="Vector" d="M107.6 77C107.6 78.03 106.77 78.86 105.74 78.86C104.71 78.86 103.88 78.03 103.88 77C103.88 75.97 104.71 75.15 105.74 75.15C106.73 75.15 107.6 75.93 107.6 77Z" fill="#E6E9ED" fill-opacity="1.000000" fill-rule="evenodd"/>
		<path id="Vector" d="M137.58 77C137.58 78.03 136.76 78.86 135.73 78.86C134.69 78.86 133.87 78.03 133.87 77C133.87 75.97 134.69 75.15 135.73 75.15C136.76 75.11 137.58 75.93 137.58 77Z" fill="#E6E9ED" fill-opacity="1.000000" fill-rule="evenodd"/>
		<path id="Vector" d="M104.75 90.08L106.6 90.08L134.7 90.08L136.55 90.08C137.05 90.08 137.5 90.53 137.5 91.03L137.5 96.64C137.5 97.14 137.05 97.59 136.55 97.59L104.71 97.59C104.21 97.59 103.76 97.14 103.76 96.64L103.76 91.03C103.84 90.53 104.25 90.08 104.75 90.08Z" fill="#656D78" fill-opacity="1.000000" fill-rule="evenodd"/>
		<path id="Vector" d="M77.24 74.2C77.24 83.95 69.33 91.85 59.58 91.85C49.83 91.85 41.92 83.95 41.92 74.2C41.92 64.45 49.83 56.54 59.58 56.54C69.33 56.54 77.24 64.45 77.24 74.2Z" fill="#F0F0F0" fill-opacity="1.000000" fill-rule="evenodd"/>
		<path id="Vector" d="M77.19 74.2C77.19 67.19 73.11 61.16 67.21 58.32L67.21 90.08C73.15 87.23 77.19 81.17 77.19 74.2Z" fill="#D45553" fill-opacity="1.000000" fill-rule="evenodd"/>
		<path id="Vector" d="M41.92 74.2C41.92 81.21 46.01 87.23 51.91 90.08L51.91 58.28C46.01 61.16 41.92 67.19 41.92 74.2Z" fill="#D45553" fill-opacity="1.000000" fill-rule="evenodd"/>
		<path id="Vector" d="M62.63 76.51L65.68 74.94L64.16 74.2L64.16 72.67L61.1 74.2L62.63 71.11L61.1 71.11L59.58 68.84L58.05 71.11L56.49 71.11L58.05 74.2L54.96 72.67L54.96 74.2L53.43 74.94L56.49 76.51L55.74 78.04L58.8 78.04L58.8 80.34L60.32 80.34L60.32 78.04L63.41 78.04L62.63 76.51Z" fill="#D45553" fill-opacity="1.000000" fill-rule="evenodd"/>
	</g>
</svg>
