<svg width="165.000000" height="165.000000" viewBox="0 0 165 165" fill="none" xmlns="http://www.w3.org/2000/svg" xmlns:xlink="http://www.w3.org/1999/xlink">
	<desc>
			Created with Pixso.
	</desc>
	<defs>
		<clipPath id="clip4454_7600">
			<rect id="curriculum.svg" width="165.000000" height="165.000000" transform="translate(-0.269531 -0.578125)" fill="white" fill-opacity="0"/>
		</clipPath>
	</defs>
	<g clip-path="url(#clip4454_7600)">
		<path id="Vector" d="M52.77 133.48L111.72 133.48C116.63 133.44 120.63 129.48 120.67 124.53L120.67 54.4C120.67 54.07 120.51 53.74 120.26 53.5L98.23 30.81C97.98 30.56 97.65 30.4 97.28 30.4L52.77 30.4C47.86 30.44 43.86 34.4 43.82 39.35L43.82 124.57C43.86 129.48 47.82 133.44 52.77 133.48ZM98.6 34.89L116.22 53L101.41 53C100.66 53 99.96 52.75 99.43 52.22C98.89 51.68 98.6 50.98 98.64 50.28L98.64 34.89L98.6 34.89ZM46.42 39.31C46.46 35.8 49.27 33 52.77 32.95L96.04 32.95L96.04 50.28C96.04 51.68 96.58 53.08 97.61 54.07C98.6 55.06 100 55.64 101.41 55.6L118.07 55.6L118.07 124.53C118.03 128.03 115.23 130.84 111.72 130.88L52.77 130.88C49.27 130.84 46.46 128.03 46.42 124.53L46.42 39.31Z" fill="#D45553" fill-opacity="1.000000" fill-rule="evenodd"/>
		<path id="Vector" d="M57.89 118.18L105.33 118.18C106.03 118.18 106.6 117.6 106.6 116.9C106.6 116.2 106.03 115.62 105.33 115.62L57.89 115.62C57.19 115.62 56.61 116.2 56.61 116.9C56.61 117.6 57.15 118.18 57.89 118.18Z" fill="#D45553" fill-opacity="1.000000" fill-rule="evenodd"/>
		<path id="Vector" d="M57.89 107.16L86.31 107.16C87.01 107.16 87.59 106.59 87.59 105.88C87.59 105.18 87.01 104.6 86.31 104.6L57.89 104.6C57.19 104.6 56.61 105.18 56.61 105.88C56.61 106.59 57.15 107.16 57.89 107.16Z" fill="#D45553" fill-opacity="1.000000" fill-rule="evenodd"/>
		<path id="Vector" d="M79.01 52.75C79.01 49.7 76.53 47.18 73.44 47.18L73.32 47.18C70.26 47.18 67.75 49.66 67.75 52.75L67.75 54.61C67.75 57.66 70.22 60.18 73.32 60.18L73.44 60.18C76.49 60.18 79.01 57.7 79.01 54.61L79.01 52.75ZM76.41 54.57C76.41 56.22 75.09 57.54 73.44 57.54L73.32 57.54C71.66 57.54 70.35 56.22 70.35 54.57L70.35 52.71C70.35 51.06 71.66 49.74 73.32 49.74L73.44 49.74C75.09 49.74 76.41 51.06 76.41 52.71L76.41 54.57Z" fill="#D45553" fill-opacity="1.000000" fill-rule="evenodd"/>
		<path id="Vector" d="M62.8 75.73C62.8 77.38 63.5 78.95 64.65 80.06L65.44 80.8C66.06 81.42 66.43 82.25 66.47 83.11L67.17 97.3C67.21 98 67.79 98.54 68.45 98.54L78.68 98.54C79.38 98.54 79.96 98 79.96 97.3L80.62 83.07C80.66 82.2 81.03 81.38 81.65 80.76L82.43 80.02C83.59 78.91 84.29 77.34 84.29 75.69L84.29 67.4C84.29 65.79 83.88 64.22 82.8 63.02C81.69 61.83 80.16 61.13 78.51 61.13L77.69 61.13C77.15 61.13 76.66 61.46 76.45 61.99L75.71 64.1L74.39 62.69C74.14 62.45 73.81 62.28 73.44 62.28C73.07 62.28 72.74 62.45 72.49 62.69L71.38 63.97L70.72 61.99C70.55 61.46 70.06 61.08 69.48 61.08L68.49 61.08C66.84 61.08 65.31 61.79 64.2 62.98C63.13 64.18 62.71 65.75 62.71 67.35L62.71 75.73L62.8 75.73ZM73.56 65.58L74.02 66.08L75.09 75.98L73.6 77.46L72.12 75.98L73.19 65.99L73.56 65.58ZM66.26 64.84C66.84 64.18 67.71 63.81 68.61 63.81L68.65 63.81L69.68 67.02C69.81 67.35 70.06 67.64 70.39 67.81L69.48 76.35C69.44 76.72 69.56 77.13 69.85 77.42L72.7 80.27C73.19 80.76 74.02 80.76 74.51 80.27L77.36 77.42C77.65 77.13 77.77 76.76 77.73 76.35L76.82 67.81C77.15 67.68 77.4 67.4 77.52 67.07L78.68 63.81C79.54 63.85 80.37 64.22 80.99 64.88C81.57 65.54 81.85 66.41 81.77 67.27C81.77 67.31 81.81 67.35 81.81 67.4L81.81 75.73C81.81 76.68 81.4 77.54 80.74 78.2L79.96 78.95C78.84 80.02 78.22 81.46 78.14 82.95L77.52 95.94L69.77 95.94L69.15 82.99C69.07 81.46 68.41 80.02 67.33 78.95L66.55 78.2C65.89 77.54 65.48 76.68 65.48 75.73L65.48 67.4C65.48 67.35 65.52 67.31 65.52 67.27C65.35 66.36 65.64 65.5 66.26 64.84Z" fill="#D45553" fill-opacity="1.000000" fill-rule="evenodd"/>
	</g>
</svg>
