<svg width="26.000000" height="50.000000" viewBox="0 0 26 50" fill="none" xmlns="http://www.w3.org/2000/svg" xmlns:xlink="http://www.w3.org/1999/xlink">
	<desc>
			Created with Pixso.
	</desc>
	<defs/>
	<path id="Vector" d="M22.74 -0.75L15.64 -0.75C8.44 -0.75 1.14 4.55 1.14 16.45C1.14 22.65 3.74 27.35 8.54 30.15L-0.16 45.95C-0.56 46.65 -0.56 47.55 -0.16 48.25C0.24 48.95 0.94 49.25 1.74 49.25L6.14 49.25C7.14 49.25 7.94 48.75 8.34 47.95L16.54 31.95L17.14 31.95L17.14 47.25C17.14 48.35 18.04 49.25 19.14 49.25L23.04 49.25C24.24 49.25 25.14 48.45 25.14 47.15L25.14 1.45C24.94 0.15 24.04 -0.75 22.74 -0.75ZM17.04 24.75L15.94 24.75C11.84 24.75 9.44 21.45 9.44 15.85C9.44 8.85 12.54 6.45 15.44 6.45L17.04 6.45L17.04 24.75Z" fill="#D7143A" fill-opacity="1.000000" fill-rule="evenodd"/>
</svg>
