<svg width="70.000000" height="46.000000" viewBox="0 0 70 46" fill="none" xmlns="http://www.w3.org/2000/svg" xmlns:xlink="http://www.w3.org/1999/xlink">
	<desc>
			Created with Pixso.
	</desc>
	<defs/>
	<path id="Vector" d="M15.39 -0.7L53.08 -0.7C53.33 -0.7 53.52 -0.51 53.52 -0.27L53.52 44.74C53.52 44.99 53.33 45.18 53.08 45.18L15.39 45.18C15.15 45.18 14.95 44.99 14.95 44.74L14.95 -0.3C14.95 -0.49 15.15 -0.7 15.39 -0.7Z" fill="#F5F5F5" fill-opacity="1.000000" fill-rule="evenodd"/>
	<path id="Vector" d="M4.42 -0.7C1.6 -0.7 -0.67 1.57 -0.67 4.39L-0.67 40C-0.67 42.82 1.65 45.15 4.47 45.15L14.55 45.15C14.8 45.15 14.99 44.95 14.99 44.71L14.99 -0.3C14.99 -0.55 14.8 -0.74 14.55 -0.74L4.42 -0.74L4.42 -0.7Z" fill="#FF4B55" fill-opacity="1.000000" fill-rule="evenodd"/>
	<path id="Vector" d="M64.09 -0.7L53.91 -0.7C53.66 -0.7 53.47 -0.51 53.47 -0.27L53.47 44.74C53.47 44.99 53.66 45.18 53.91 45.18L64.04 45.18C66.86 45.18 69.18 42.85 69.18 40.04L69.18 4.34C69.18 1.57 66.91 -0.7 64.09 -0.7Z" fill="#FF4B55" fill-opacity="1.000000" fill-rule="evenodd"/>
	<path id="Vector" d="M41.87 27.31L47.99 23.81C48.29 23.67 48.29 23.22 47.99 23.08L47.34 22.73C46.7 22.43 46.36 21.75 46.45 21.05L46.85 17.99C46.91 17.69 46.61 17.44 46.31 17.55L44.33 18.14C43.44 18.39 42.51 17.85 42.25 16.9L42.25 16.85C42.15 16.5 41.76 16.41 41.52 16.66L40.24 18.14C39.54 18.93 38.26 18.34 38.45 17.3L39.29 12.42C39.35 12.12 39.05 11.83 38.75 11.93L37.86 12.18C37.12 12.37 36.32 12.04 35.99 11.39L34.22 7.99L32.43 11.41C32.08 12.11 31.3 12.39 30.56 12.19L29.67 11.95C29.37 11.84 29.08 12.14 29.13 12.44L29.97 17.32C30.16 18.35 28.83 18.95 28.18 18.16L26.91 16.67C26.66 16.43 26.2 16.53 26.17 16.87L26.17 16.92C25.98 17.86 25.03 18.41 24.09 18.16L22.11 17.57C21.81 17.46 21.51 17.71 21.57 18L21.97 21.07C22.08 21.77 21.72 22.45 21.08 22.75L20.48 23.04C20.18 23.18 20.18 23.64 20.48 23.78L26.61 27.28C27.55 27.82 27.94 28.91 27.55 29.94L27.31 30.59C27.2 30.88 27.45 31.18 27.75 31.18L32.73 30.74C33.33 30.69 33.82 31.18 33.82 31.78L33.68 37.41C33.68 37.66 33.87 37.85 34.11 37.85L34.46 37.85C34.71 37.85 34.9 37.66 34.9 37.41L34.76 31.78C34.76 31.18 35.25 30.69 35.85 30.74L40.73 31.18C41.03 31.23 41.27 30.88 41.17 30.59L40.92 29.94C40.54 28.99 40.92 27.86 41.87 27.31Z" fill="#FF4B55" fill-opacity="1.000000" fill-rule="evenodd"/>
</svg>
