<svg width="45.000000" height="46.000000" viewBox="0 0 45 46" fill="none" xmlns="http://www.w3.org/2000/svg" xmlns:xlink="http://www.w3.org/1999/xlink">
	<desc>
			Created with Pixso.
	</desc>
	<defs/>
	<path id="Vector" d="M37.55 19.87L13.55 19.87C13.18 19.87 12.88 20.17 12.88 20.54C12.88 20.92 13.18 21.22 13.55 21.22L37.55 21.22C37.93 21.22 38.23 20.92 38.23 20.54C38.23 20.17 37.93 19.87 37.55 19.87Z" fill="#000000" fill-opacity="1.000000" fill-rule="evenodd"/>
	<path id="Vector" d="M37.55 23.39L20.49 23.39C20.11 23.39 19.81 23.69 19.81 24.07C19.81 24.44 20.11 24.74 20.49 24.74L37.55 24.74C37.93 24.74 38.23 24.44 38.23 24.07C38.23 23.69 37.93 23.39 37.55 23.39Z" fill="#000000" fill-opacity="1.000000" fill-rule="evenodd"/>
	<path id="Vector" d="M37.55 26.92L22.78 26.92C22.4 26.92 22.1 27.22 22.1 27.59C22.1 27.97 22.4 28.27 22.78 28.27L37.55 28.27C37.92 28.27 38.23 27.97 38.23 27.59C38.23 27.22 37.92 26.92 37.55 26.92Z" fill="#000000" fill-opacity="1.000000" fill-rule="evenodd"/>
	<path id="Vector" d="M26.71 30.4L23.71 30.4C23.34 30.4 23.04 30.7 23.04 31.08C23.04 31.45 23.34 31.75 23.71 31.75L26.71 31.75C27.09 31.75 27.39 31.45 27.39 31.08C27.39 30.7 27.09 30.4 26.71 30.4Z" fill="#000000" fill-opacity="1.000000" fill-rule="evenodd"/>
	<path id="Vector" d="M13.55 11.47L22.36 11.47C22.74 11.47 23.04 11.17 23.04 10.79C23.04 10.42 22.74 10.12 22.36 10.12L13.55 10.12C13.18 10.12 12.88 10.42 12.88 10.79C12.88 11.17 13.18 11.47 13.55 11.47Z" fill="#000000" fill-opacity="1.000000" fill-rule="evenodd"/>
	<path id="Vector" d="M15.5 28.04C15.16 27.89 14.79 28 14.6 28.34L9.65 38.16L5.75 34.27C5.49 34 5.08 34 4.81 34.27C4.55 34.53 4.55 34.94 4.81 35.2L9.39 39.78C9.5 39.89 9.69 39.97 9.84 39.97C9.88 39.97 9.91 39.97 9.95 39.97C10.17 39.93 10.33 39.82 10.44 39.63L15.8 28.98C15.95 28.6 15.84 28.19 15.5 28.04Z" fill="#000000" fill-opacity="1.000000" fill-rule="evenodd"/>
	<path id="Vector" d="M44.23 17.47C44.23 14.58 43.1 11.88 41.08 9.85L34.36 3.14C32.34 1.12 29.64 -0.01 26.75 -0.01L11.19 -0.01C8.9 -0.01 7.03 1.87 7.03 4.15L7.03 22.53C5.41 23.09 3.91 23.99 2.6 25.3C0.42 27.48 -0.77 30.4 -0.77 33.48C-0.77 36.55 0.42 39.48 2.6 41.65C4.59 43.64 7.25 44.84 10.06 45.03C10.33 45.03 10.55 45.07 10.81 45.07C10.89 45.07 40.06 45.07 40.06 45.07C42.35 45.07 44.23 43.19 44.23 40.9L44.23 17.47ZM40.06 43.79L16.17 43.79C16.74 43.49 17.3 43.15 17.83 42.74C18.13 42.52 18.16 42.1 17.94 41.8C17.71 41.5 17.3 41.47 17 41.69C12.95 44.8 7.14 44.39 3.54 40.79C1.59 38.84 0.54 36.29 0.54 33.55C0.54 30.82 1.59 28.23 3.54 26.32C7.55 22.3 14.04 22.3 18.05 26.32C21.65 29.92 22.06 35.73 18.95 39.78C18.73 40.08 18.8 40.49 19.06 40.72C19.36 40.94 19.78 40.87 20 40.6C21.69 38.39 22.51 35.65 22.33 32.84C22.14 30.03 20.94 27.37 18.95 25.38C16.06 22.49 12.01 21.44 8.3 22.27L8.3 4.19C8.3 2.62 9.58 1.34 11.15 1.34L25.21 1.34C27.46 1.34 29.45 2.88 30.05 5.05C30.16 5.39 30.5 5.62 30.88 5.5C31.21 5.39 31.44 5.05 31.33 4.68C31.03 3.55 30.42 2.54 29.6 1.75C30.99 2.2 32.3 2.99 33.35 4.04L40.06 10.75C41.15 11.84 41.9 13.12 42.39 14.5C41.23 13.3 39.61 12.55 37.85 12.55L34.4 12.55C32.83 12.55 31.55 11.28 31.55 9.7L31.55 7.72C31.55 7.34 31.25 7.04 30.88 7.04C30.5 7.04 30.2 7.34 30.2 7.72L30.2 9.7C30.2 11.99 32.08 13.87 34.36 13.87L37.81 13.87C40.55 13.87 42.8 16.08 42.8 18.85L42.8 40.94C42.91 42.52 41.64 43.79 40.06 43.79Z" fill="#D45553" fill-opacity="1.000000" fill-rule="evenodd"/>
</svg>
