<svg width="70.000000" height="46.000000" viewBox="0 0 70 46" fill="none" xmlns="http://www.w3.org/2000/svg" xmlns:xlink="http://www.w3.org/1999/xlink">
	<desc>
			Created with Pixso.
	</desc>
	<defs/>
	<path id="Vector" d="M67.61 1.82C67.5 1.71 67.42 1.67 67.31 1.57C67.17 1.38 66.96 1.22 66.77 1.08C66.72 1.03 66.66 1.03 66.63 0.97C66.33 0.78 66.09 0.54 65.79 0.33C64.84 -0.21 63.76 -0.37 62.73 -0.62C62.67 -0.62 62.59 -0.67 62.54 -0.67L4.87 -0.67C4.82 -0.67 4.77 -0.67 4.73 -0.67C4.7 -0.67 4.59 -0.62 4.54 -0.62C4.35 -0.51 4.19 -0.42 4 -0.42C3.94 -0.42 3.89 -0.42 3.86 -0.37C3.86 -0.37 3.81 -0.37 3.81 -0.32L3.86 -0.37C3.51 -0.18 3.16 -0.02 2.77 0.03C2.37 0.52 1.88 0.87 1.29 0.97C0.8 1.41 0.34 1.87 0.01 2.36C-0.13 2.5 -0.24 2.71 -0.34 2.85L-0.34 2.9C-0.4 3.04 -0.45 3.2 -0.48 3.34C-0.48 3.39 -0.48 3.44 -0.53 3.48C-0.62 3.79 -0.66 4.14 -0.66 4.44L-0.66 39.81C-0.66 40.11 -0.6 40.4 -0.55 40.7C-0.5 40.84 -0.45 41 -0.41 41.19C-0.27 42.28 1.16 43.76 2.16 44.39C2.3 44.45 2.46 44.53 2.6 44.64C2.65 44.64 2.65 44.64 2.7 44.69C2.95 44.74 3.19 44.79 3.44 44.94C3.63 44.99 3.84 45.04 4.08 45.04L63.32 45.04C64.35 44.79 65.41 44.55 66.39 44.06C67.08 43.71 67.66 43.46 68.17 42.87C68.36 42.62 68.61 42.38 68.82 42.13C68.92 42 68.96 41.79 69.06 41.59C69.12 41.45 69.17 41.29 69.2 41.16C69.25 41.01 69.25 40.86 69.31 40.75L69.31 4.35C68.8 3.46 68.26 2.57 67.61 1.82Z" fill="#41479B" fill-opacity="1.000000" fill-rule="evenodd"/>
	<path id="Vector" d="M68.89 3.65C68.29 2.62 67.61 1.62 66.77 0.89C66.47 0.7 66.17 0.49 65.88 0.29C64.93 -0.3 63.85 -0.41 62.76 -0.65C62.66 -0.7 62.57 -0.7 62.46 -0.76L53.96 -0.76L44.96 6.16L44.96 -0.74L23.39 -0.74L23.39 6.17L14.41 -0.74L5.12 -0.74L5.07 -0.74C4.96 -0.69 4.82 -0.69 4.66 -0.69L4.61 -0.69C4.01 -0.55 3.42 -0.39 2.88 -0.2C1.69 0.4 0.51 1.34 -0.13 2.27C-0.18 2.52 -0.27 2.71 -0.38 2.87L-0.38 2.92C-0.43 3.06 -0.48 3.22 -0.52 3.36C-0.52 3.41 -0.57 3.5 -0.57 3.55L13.06 14.03L-0.71 14.03L-0.71 28.64C-0.71 28.84 -0.71 29.05 -0.76 29.24L-0.76 30.52L13.06 30.52L-0.52 40.89C-0.47 41 -0.41 41.14 -0.41 41.24C-0.27 42.38 1.21 43.87 2.25 44.45C2.74 44.64 3.28 44.8 3.82 44.94C3.93 44.94 4.01 44.99 4.12 44.99L14.79 44.99L23.25 38.51L23.11 44.99L45.03 44.99L45.03 38.37L53.68 44.99L63.41 44.99C64.44 44.74 65.49 44.5 66.47 44.01C67.17 43.66 67.75 43.41 68.26 42.82C68.45 42.52 68.69 42.28 68.96 42.03C69.01 41.98 69.06 41.93 69.1 41.89C69.1 41.59 69.2 41.35 69.29 41.16L55.36 30.48L69.4 30.48L69.4 14.03L55.41 14.03L68.89 3.65Z" fill="#FFFFFF" fill-opacity="1.000000" fill-rule="evenodd"/>
	<path id="Vector" d="M29.08 45.04L39.4 45.04L39.4 26.67L69.24 26.67L69.24 17.88L39.4 17.88L39.4 -0.74L29.42 -0.74L29.42 17.83L-0.71 17.83L-0.71 23.27C-0.71 23.46 -0.71 23.67 -0.76 23.87L-0.76 26.68L29.42 26.68L29.08 45.04Z" fill="#FF337A" fill-opacity="1.000000" fill-rule="evenodd"/>
	<path id="Vector" d="M23.14 29.1L2.79 44.74C2.98 44.79 3.19 44.85 3.39 44.94C3.49 44.94 3.58 44.99 3.68 45.04C3.79 45.04 3.82 45.04 3.93 45.09C3.98 45.09 4.03 45.09 4.03 45.09L9.51 45.09L26.69 31.84L26.69 29.13L23.14 29.13L23.14 29.1Z" fill="#FF337A" fill-opacity="1.000000" fill-rule="evenodd"/>
	<path id="Vector" d="M8.67 -0.74L5.17 -0.74L5.12 -0.74C5.01 -0.69 4.87 -0.69 4.72 -0.69L4.66 -0.69C3.93 -0.49 3.17 -0.25 2.49 0.01L23.09 15.48L26.71 15.48L26.71 12.77L8.67 -0.74Z" fill="#FF337A" fill-opacity="1.000000" fill-rule="evenodd"/>
	<path id="Vector" d="M65.88 0.29C64.93 -0.3 63.85 -0.41 62.76 -0.65C62.66 -0.7 62.57 -0.7 62.46 -0.76L61.33 -0.76L42.11 12.79L42.11 15.41L45.82 15.41L66.58 0.78C66.37 0.59 66.12 0.43 65.88 0.29Z" fill="#FF337A" fill-opacity="1.000000" fill-rule="evenodd"/>
	<path id="Vector" d="M63.31 45.04C64.15 44.85 64.99 44.64 65.83 44.31L45.72 29.05L42.16 29.05L42.16 31.76L59.65 45.04L63.31 45.04Z" fill="#FF337A" fill-opacity="1.000000" fill-rule="evenodd"/>
</svg>
