<svg width="35.000000" height="35.000000" viewBox="0 0 35 35" fill="none" xmlns="http://www.w3.org/2000/svg" xmlns:xlink="http://www.w3.org/1999/xlink">
	<desc>
			Created with Pixso.
	</desc>
	<defs/>
	<path id="Vector" d="M7.51 20.89L6.32 25.44L1.84 25.51C0.51 23.06 -0.26 20.19 -0.26 17.25C-0.26 14.38 0.44 11.58 1.7 9.2L5.69 9.9L7.44 13.82C7.09 14.87 6.88 15.99 6.88 17.18C6.81 18.51 7.09 19.77 7.51 20.89Z" fill="#FBBB00" fill-opacity="1.000000" fill-rule="evenodd"/>
	<path id="Vector" d="M34.46 13.96C34.67 15.01 34.74 16.13 34.74 17.25C34.74 18.51 34.6 19.7 34.39 20.89C33.48 24.95 31.31 28.45 28.23 30.9L23.26 30.62L22.56 26.21C24.59 25.02 26.2 23.13 27.04 20.89L17.59 20.89L17.59 13.96L27.11 13.96L34.46 13.96Z" fill="#518EF8" fill-opacity="1.000000" fill-rule="evenodd"/>
	<path id="Vector" d="M28.16 30.9C25.22 33.28 21.37 34.75 17.24 34.75C10.59 34.75 4.78 31.04 1.84 25.51L7.51 20.89C8.98 24.81 12.76 27.61 17.24 27.61C19.13 27.61 20.95 27.12 22.49 26.21L28.16 30.9Z" fill="#28B446" fill-opacity="1.000000" fill-rule="evenodd"/>
	<path id="Vector" d="M28.44 3.81L22.77 8.43C21.16 7.45 19.27 6.89 17.24 6.89C12.69 6.89 8.77 9.83 7.37 13.89L1.7 9.2C4.64 3.6 10.45 -0.25 17.24 -0.25C21.51 -0.25 25.36 1.29 28.44 3.81Z" fill="#F14336" fill-opacity="1.000000" fill-rule="evenodd"/>
</svg>
