<svg width="120.000000" height="120.000000" viewBox="0 0 120 120" fill="none" xmlns="http://www.w3.org/2000/svg" xmlns:xlink="http://www.w3.org/1999/xlink">
	<desc>
			Created with Pixso.
	</desc>
	<defs>
		<clipPath id="clip3358_2096">
			<rect id="checklist220.svg" width="120.000000" height="120.000000" transform="translate(-0.757812 -0.216797)" fill="white" fill-opacity="0"/>
		</clipPath>
	</defs>
	<g clip-path="url(#clip3358_2096)">
		<path id="Vector" d="M114.44 113.07L114.44 81.27L113.18 81.27C113.18 81.27 108.38 81.71 105.44 81.27C102.49 80.83 95.4 81.27 89.62 80.12C83.84 78.98 65.89 80.34 61.75 80.12C57.6 79.91 41.78 80.78 35.95 79.09C30.11 77.4 8.62 80.34 5.35 80.12L4.04 79.58L4.04 113.07L114.44 113.07Z" fill="#CEAE9D" fill-opacity="1.000000" fill-rule="evenodd"/>
		<path id="Vector" d="M34.91 88.03C34.75 88.8 27.38 108.21 27.16 108.76C28.64 109.14 41.07 109.52 43.04 109.52C45 109.52 64.69 110.12 67.09 110.07C69.49 110.02 78.38 109.63 79.69 109.41C80.24 108.27 80.51 101.23 80.02 99.32C79.47 97.41 77.4 91.36 76.64 90.92C74.89 90.54 66.06 90.38 63.87 90.27C61.69 90.16 57.6 90.32 56.67 90.27C55.04 90.05 36 87.7 34.91 88.03Z" fill="#FFFFFF" fill-opacity="1.000000" fill-rule="evenodd"/>
		<path id="Vector" d="M103.69 91.14C103.69 91.74 100.52 92.23 96.6 92.23C92.68 92.23 89.51 91.74 89.51 91.14C89.51 90.54 92.68 90.05 96.6 90.05C100.52 90.05 103.69 90.54 103.69 91.14Z" fill="#B2948A" fill-opacity="1.000000" fill-rule="evenodd"/>
		<path id="Vector" d="M98.51 74.5C102.06 74.72 105.98 75.65 105.98 77.45C106.15 78.92 106.04 79.96 105.98 81.43C106.2 80.83 106.75 80.45 107.35 79.85C107.95 79.3 109.42 79.2 109.96 81.65C110.51 84.1 108.93 87.1 107.62 87.7C106.31 88.3 104.89 87.21 104.62 85.91C103.96 87.92 103.47 87.98 100.8 90.98C97.53 91.14 92.4 90.1 89.62 88.63C88.36 84.05 87.93 77.89 89.02 76.58C90.33 74.94 94.96 74.29 98.51 74.5ZM106.09 83.72C105.77 84.59 105.77 86.18 106.64 86.34C107.51 86.5 108.17 84.81 108.55 83.72C108.98 82.63 108.77 81.81 108.06 81.38C107.35 80.89 106.42 82.85 106.09 83.72Z" fill="#EA5514" fill-opacity="1.000000" fill-rule="evenodd"/>
		<path id="Vector" d="M91.75 77.83C90.27 76.96 95.51 76.36 97.47 76.52C99.44 76.69 103.42 76.8 104.29 77.83C102.06 78.27 99.27 78.71 97.42 78.54C95.57 78.38 92.78 78.43 91.75 77.83Z" fill="#40220F" fill-opacity="1.000000" fill-rule="evenodd"/>
		<path id="Vector" d="M24.44 85.03C23.45 86.29 20.51 90.38 18.38 92.34C19.85 92.56 21.11 93.6 21.66 94.96C21.82 94.91 21.93 94.8 22.09 94.69C22.47 94.31 26.73 87.98 27.05 85.63C27.27 84.71 25.53 83.67 24.44 85.03Z" fill="#7A6A56" fill-opacity="1.000000" fill-rule="evenodd"/>
		<path id="Vector" d="M18.38 92.34C18.22 92.51 18.06 92.67 17.89 92.78C17.24 93.33 17.08 95.29 16.86 96.33C16.64 97.31 17.57 97.09 17.95 96.76C18.27 96.49 20.67 95.51 21.71 94.96C21.11 93.6 19.91 92.62 18.38 92.34Z" fill="#E8D9CD" fill-opacity="1.000000" fill-rule="evenodd"/>
		<path id="Vector" d="M73.58 39.59C75.27 40.41 80.78 45.98 81.82 49.14C82.86 52.3 82.8 67.8 82.15 71.94C81.49 76.09 81 83.72 78.82 85.58C76.64 87.43 68.89 89.83 64.36 88.85C59.89 87.87 55.42 86.34 52.58 83.72C49.69 85.19 40.09 85.8 36.93 85.52C33.76 85.3 32.46 82.25 31.58 80.78C30.76 79.3 28.42 63.05 28.04 58.52C27.66 54 27.55 49.74 29.02 47.18C30.49 44.61 37.2 39.1 38.95 37.96C40.91 36.65 52.64 33.87 58.96 34.69C65.4 35.5 72.55 39.05 73.58 39.59Z" fill="#FFFFFF" fill-opacity="1.000000" fill-rule="evenodd"/>
		<path id="Vector" d="M47.35 70.31C47.35 69.49 43.42 64.14 41.84 63.38C39.44 62.29 36.55 63.6 34.86 66.16C33.16 68.72 30.66 71.12 32.24 73.2C33.82 75.27 34.15 76.31 36.49 75.05C38.78 73.8 42.44 72.65 43.64 71.23C45.66 71.4 46.8 70.74 47.35 70.31Z" fill="#EFB892" fill-opacity="1.000000" fill-rule="evenodd"/>
		<path id="Vector" d="M66.82 71.07C64.8 67.91 61.64 68.94 60 69.38C60.06 70.8 61.58 77.23 61.75 77.72C64.2 76.14 64.91 76.69 66.82 76.74C67.47 74.18 67.75 72.54 66.82 71.07Z" fill="#EFB892" fill-opacity="1.000000" fill-rule="evenodd"/>
		<path id="Vector" d="M70.58 35.18C72.6 32.01 71.02 22.2 70.58 20.01C70.15 17.78 63.49 11.18 60.55 8.61C57.6 6.11 48.66 9.76 45.66 11.83C42.66 13.91 42.98 15 41.95 17.4C40.91 19.8 39.98 25.63 41.35 28.85C42 30.43 42.66 33.16 43.42 34.63C41.95 34.52 39.82 36 40.09 37.91C40.36 39.82 42.22 40.69 44.13 41.29C44.56 42.71 44.07 43.85 45.76 44.83C47.45 45.82 51.76 47.07 53.13 47.78C54.49 48.54 56.67 48.65 58.53 47.78C60.38 46.91 63.82 45.6 65.13 44.83C66.49 44.07 67.8 43.58 68.18 42.27C69.71 41.83 72.66 40.25 72.87 39C72.98 37.8 73.15 34.69 70.58 35.18Z" fill="#EFB892" fill-opacity="1.000000" fill-rule="evenodd"/>
		<path id="Vector" d="M56.62 22.85C56.89 24.81 58.64 29.56 59.29 30.65C60.38 32.45 62.67 36.38 65.95 36.1C64.47 34.2 63.44 29.07 63.06 27.1C65.73 31.47 71.67 35.61 75.55 36.1C72.49 33.81 72.38 33.21 72.16 31.36C73.25 29.67 74.24 22.8 73.36 20.29C72.49 17.78 70.58 13.2 67.31 11.23C64.04 9.27 60.76 6.05 55.42 6.59C50.07 7.14 44.73 9.98 43.31 13.63C41.84 17.29 40.53 21.54 40.91 24.81L41.29 28.09C41.07 29.94 39.93 32.12 39.6 33.05C42 31.09 44.78 25.14 44.78 22.63C46.96 22.47 50.4 21.76 51.49 23.18C53.18 22.63 54.49 22.8 56.62 22.85Z" fill="#77675E" fill-opacity="1.000000" fill-rule="evenodd"/>
		<path id="Vector" d="M52.85 51.05C52.85 51.05 53.95 52.74 54.49 53.56C54 55.47 51.44 70.2 51.6 71.45C53.78 71.29 59.29 69.76 59.29 69.76C58.31 66.65 59.02 63.38 59.02 62.45C59.02 61.52 58.04 55.41 57.6 54.21C58.69 52.74 60.06 50.34 60.71 49.09C59.29 47.45 58.31 48.49 56.78 48.49C55.31 49.74 52.85 51.05 52.85 51.05Z" fill="#507589" fill-opacity="1.000000" fill-rule="evenodd"/>
		<path id="Vector" d="M90.87 75.7C90.22 75.87 89.51 76.52 90 77.23C90.27 77.61 90.82 77.72 91.25 77.83C91.96 78 92.62 78.1 93.33 78.21C95.84 78.6 98.4 78.65 100.96 78.49C102.06 78.38 103.15 78.27 104.18 78.16C104.78 78.1 105.82 77.94 105.77 77.12C105.77 76.25 104.35 75.92 103.75 75.7C102.55 75.27 101.29 74.94 99.98 74.72C98.4 74.45 96.76 74.45 95.18 74.72C93.76 74.89 92.35 75.38 90.87 75.7C90.66 75.76 90.71 75.87 90.93 75.87C93.38 75.32 95.78 74.45 98.35 74.67C100.42 74.83 102.49 75.32 104.4 76.14C104.78 76.31 105.22 76.47 105.44 76.85C105.77 77.45 105.11 77.89 104.56 77.94C103.8 78.05 103.04 78.16 102.27 78.21C100.26 78.43 98.24 78.54 96.22 78.38C94.85 78.27 93.49 78.1 92.13 77.83C91.58 77.72 90.87 77.61 90.49 77.23C90 76.74 90.38 76.03 90.98 75.87C91.09 75.76 91.09 75.6 90.87 75.7Z" fill="#604C3F" fill-opacity="1.000000" fill-rule="evenodd"/>
		<path id="Vector" d="M88.09 76.58C87.71 79.52 88.04 82.52 88.64 85.41C89.13 87.76 89.73 90.1 90.71 92.29C90.76 92.4 91.09 92.29 91.04 92.18C90.06 90.05 89.46 87.76 88.97 85.47C88.37 82.52 87.98 79.47 88.37 76.52C88.47 76.36 88.15 76.41 88.09 76.58Z" fill="#604C3F" fill-opacity="1.000000" fill-rule="evenodd"/>
		<path id="Vector" d="M101.56 89.72C102.77 89.18 103.64 88.14 104.24 87C105.71 84.32 106.04 81.05 106.09 78.05C106.09 77.89 105.77 77.94 105.77 78.11C105.71 81.05 105.38 84.21 104.02 86.83C103.42 87.98 102.6 89.01 101.4 89.61C101.24 89.67 101.4 89.83 101.56 89.72Z" fill="#604C3F" fill-opacity="1.000000" fill-rule="evenodd"/>
		<path id="Vector" d="M106.09 81.49C106.47 81.05 106.69 80.56 107.13 80.18C107.78 79.58 108.6 79.74 109.15 80.4C110.02 81.43 109.97 82.96 109.47 84.16C109.04 85.25 108.49 86.61 107.51 87.32C106.91 87.76 106.04 87.49 105.71 86.83C105.49 86.4 105.55 85.8 105.49 85.36C105.49 85.25 105.17 85.31 105.17 85.47C105.22 85.96 105.17 86.56 105.44 87.05C105.66 87.49 106.2 87.76 106.69 87.81C107.68 87.92 108.38 86.94 108.87 86.18C109.53 85.14 110.24 83.78 110.24 82.52C110.24 81.49 109.86 80.07 108.77 79.69C107.35 79.14 106.69 80.5 105.93 81.38C105.66 81.54 105.98 81.59 106.09 81.49Z" fill="#604C3F" fill-opacity="1.000000" fill-rule="evenodd"/>
		<path id="Vector" d="M91.36 89.72C91.8 90.11 92.51 90.27 93.06 90.38C94.09 90.6 95.13 90.76 96.16 90.82C98.13 91.03 100.26 91.2 102.27 90.92C102.44 90.92 102.55 90.71 102.33 90.76C100.47 91.03 98.46 90.87 96.55 90.65C95.51 90.54 94.47 90.43 93.49 90.22C92.95 90.11 92.13 90 91.69 89.56C91.64 89.51 91.31 89.61 91.36 89.72Z" fill="#604C3F" fill-opacity="1.000000" fill-rule="evenodd"/>
		<path id="Vector" d="M31.31 78.43C30.33 78.6 29.4 78.54 28.42 78.6C26.78 78.65 25.15 78.65 23.51 78.65C20.02 78.65 16.47 78.65 12.98 78.54C11.89 78.54 10.75 78.54 9.6 78.43C9.49 78.43 9.22 78.6 9.38 78.6C11.95 78.76 14.51 78.76 17.07 78.76C20.67 78.81 24.27 78.81 27.87 78.76C29.02 78.76 30.16 78.76 31.31 78.6C31.42 78.6 31.53 78.43 31.31 78.43Z" fill="#604C3F" fill-opacity="1.000000" fill-rule="evenodd"/>
		<path id="Vector" d="M82.36 79.8C83.95 79.96 85.58 79.91 87.16 79.91C87.33 79.91 87.49 79.69 87.27 79.69C85.69 79.69 84.06 79.69 82.47 79.58C82.31 79.58 82.09 79.74 82.36 79.8Z" fill="#604C3F" fill-opacity="1.000000" fill-rule="evenodd"/>
		<path id="Vector" d="M24.6 84.32C25.2 83.61 26.24 83.56 26.78 84.32C27.06 84.7 26.95 85.14 26.78 85.58C26.46 86.61 25.97 87.54 25.42 88.47C24.44 90.27 23.35 92.01 22.15 93.7C21.76 94.25 21.06 94.47 20.46 94.74C19.58 95.12 18.66 95.45 17.89 95.94C17.73 96.05 17.46 96.27 17.24 96.21C16.8 96.1 16.97 95.61 17.02 95.34C17.13 94.69 17.24 94.03 17.4 93.43C17.57 92.78 17.78 92.34 18.27 91.85C18.66 91.52 19.04 91.14 19.42 90.76C21.27 88.8 22.91 86.5 24.6 84.32C24.66 84.21 24.38 84.27 24.33 84.32C22.58 86.56 20.95 88.91 18.98 90.98C18.55 91.41 18 91.8 17.62 92.29C17.24 92.83 17.13 93.65 17.02 94.31C16.97 94.63 16.91 95.01 16.86 95.34C16.8 95.61 16.69 95.94 16.8 96.16C16.97 96.49 17.46 96.38 17.73 96.27C18.06 96.16 18.38 95.89 18.71 95.72C19.26 95.45 19.86 95.18 20.4 94.96C21.06 94.63 22.04 94.36 22.47 93.76C23.08 93.05 23.57 92.18 24.06 91.41C24.82 90.21 25.53 89.01 26.18 87.81C26.51 87.21 26.78 86.56 27.06 85.91C27.22 85.47 27.49 84.87 27.33 84.43C26.89 83.07 25.09 83.4 24.33 84.27C24.22 84.43 24.55 84.43 24.6 84.32Z" fill="#604C3F" fill-opacity="1.000000" fill-rule="evenodd"/>
		<path id="Vector" d="M33.87 88.85C33.71 89.62 33.49 90.33 33.27 91.03C32.84 92.51 32.4 94.03 31.96 95.51C30.98 98.83 30 102.22 28.96 105.54C28.69 106.36 28.53 107.29 28.2 108.05C28.15 108.16 28.47 108.11 28.53 108C28.8 107.34 28.96 106.63 29.18 105.93C29.62 104.45 30.06 102.98 30.49 101.51C31.47 98.18 32.45 94.8 33.44 91.47C33.71 90.6 33.98 89.72 34.2 88.8C34.25 88.63 33.87 88.74 33.87 88.85Z" fill="#604C3F" fill-opacity="1.000000" fill-rule="evenodd"/>
		<path id="Vector" d="M27.06 108.93C28.31 109.25 29.78 109.2 31.09 109.31C33.33 109.42 35.51 109.52 37.75 109.58C40.36 109.69 42.98 109.69 45.6 109.74C49.64 109.85 53.67 109.96 57.71 110.07C60.82 110.12 63.93 110.29 67.04 110.23C71.02 110.12 75 109.96 78.98 109.63C79.2 109.63 79.42 109.58 79.69 109.58C79.85 109.58 79.96 109.31 79.69 109.31C78.06 109.52 76.36 109.52 74.67 109.63C72.49 109.74 70.25 109.85 68.07 109.91C65.24 110.02 62.35 109.91 59.51 109.8C55.36 109.69 51.16 109.58 47.02 109.47C44.56 109.42 42.11 109.36 39.66 109.31C37.42 109.25 35.18 109.14 32.95 109.03C31.25 108.98 29.51 108.87 27.82 108.71C27.66 108.71 27.44 108.65 27.27 108.6C27.11 108.65 26.84 108.87 27.06 108.93Z" fill="#604C3F" fill-opacity="1.000000" fill-rule="evenodd"/>
		<path id="Vector" d="M82.15 108.05C82.47 107.23 82.09 106.14 81.93 105.32C81.6 103.96 81.16 102.6 80.73 101.23C80.02 98.89 79.36 96.54 78.6 94.25C78.38 93.6 78.16 93 77.84 92.4C77.67 92.12 77.56 91.69 77.24 91.52C77.13 91.47 76.8 91.63 76.96 91.69C77.24 91.85 77.4 92.29 77.56 92.56C77.78 93.11 78 93.6 78.22 94.14C78.66 95.4 79.04 96.65 79.42 97.91C80.07 100.14 80.78 102.32 81.38 104.56C81.55 105.21 81.71 105.92 81.82 106.58C81.87 107.02 81.98 107.56 81.82 108C81.76 108.16 82.09 108.16 82.15 108.05Z" fill="#604C3F" fill-opacity="1.000000" fill-rule="evenodd"/>
		<path id="Vector" d="M74.89 90.87C73.97 90.65 72.98 90.65 72.06 90.59C70.69 90.49 69.38 90.43 68.02 90.38C65.62 90.27 63.22 90.16 60.82 90.16C59.46 90.16 58.04 90.27 56.67 90.21C56.51 90.21 56.35 90.43 56.57 90.43C59.02 90.59 61.53 90.32 63.98 90.43C66.44 90.54 68.89 90.59 71.4 90.76C72.49 90.81 73.64 90.87 74.78 91.09C74.95 91.14 75.11 90.87 74.89 90.87Z" fill="#604C3F" fill-opacity="1.000000" fill-rule="evenodd"/>
		<path id="Vector" d="M55.53 90.22C49.58 89.34 43.58 88.58 37.58 88.03C36.76 87.98 35.67 87.71 34.85 87.92C34.64 87.98 34.69 88.09 34.91 88.03C35.13 87.98 35.51 88.03 35.73 88.03C36.27 88.03 36.76 88.09 37.31 88.14C38.89 88.31 40.42 88.47 42 88.63C45.44 89.01 48.93 89.45 52.36 89.89C53.34 90 54.38 90.16 55.36 90.27C55.42 90.38 55.69 90.27 55.53 90.22Z" fill="#604C3F" fill-opacity="1.000000" fill-rule="evenodd"/>
		<path id="Vector" d="M44.67 93.92C47.13 93.92 49.58 93.49 52.04 93.54C54.22 93.6 56.35 93.65 58.47 93.71C58.64 93.71 58.8 93.49 58.58 93.49C56.4 93.43 54.27 93.32 52.15 93.32C49.69 93.27 47.24 93.71 44.78 93.71C44.67 93.71 44.4 93.92 44.67 93.92Z" fill="#604C3F" fill-opacity="1.000000" fill-rule="evenodd"/>
		<path id="Vector" d="M40.2 98.45C41.4 98.12 42.71 98.01 43.91 97.8C45.55 97.58 47.24 97.36 48.87 97.2C51.76 96.87 54.71 96.76 57.66 96.76C59.02 96.76 60.44 96.71 61.75 96.92C61.8 96.92 62.13 96.82 62.02 96.82C60.93 96.6 59.73 96.65 58.58 96.65C56.89 96.65 55.15 96.65 53.46 96.71C50.4 96.82 47.35 97.25 44.35 97.63C42.93 97.85 41.51 97.96 40.15 98.34C39.98 98.4 39.98 98.51 40.2 98.45Z" fill="#604C3F" fill-opacity="1.000000" fill-rule="evenodd"/>
		<path id="Vector" d="M38.56 104.89C40.15 104.83 41.73 105.05 43.31 105.16C44.84 105.27 46.31 105.27 47.84 105.16C51.22 104.94 54.6 104.83 57.98 104.89C59.62 104.94 61.36 104.89 63 105.27C63.16 105.27 63.38 105.1 63.22 105.05C61.85 104.78 60.44 104.72 59.07 104.72C57.49 104.67 55.91 104.67 54.33 104.67C50.89 104.67 47.4 105.21 43.96 105C42.16 104.89 40.42 104.61 38.62 104.67C38.4 104.67 38.34 104.94 38.56 104.89Z" fill="#604C3F" fill-opacity="1.000000" fill-rule="evenodd"/>
		<path id="Vector" d="M66.33 96.1C67.2 96.87 67.64 98.29 68.02 99.32C68.07 99.43 68.4 99.32 68.35 99.21C67.96 98.12 67.53 96.71 66.66 95.94C66.55 95.89 66.22 96.05 66.33 96.1Z" fill="#604C3F" fill-opacity="1.000000" fill-rule="evenodd"/>
		<path id="Vector" d="M69.16 99.32C70.64 99.38 72.27 99 73.75 99.32C73.8 99.32 74.02 99.32 74.02 99.22C73.8 98.07 73.53 96.92 73.42 95.78C73.42 95.56 73.47 95.34 73.31 95.18C73.15 95.01 72.82 95.01 72.66 94.96C71.78 94.8 70.86 94.74 69.98 94.74C69.11 94.74 68.18 94.69 67.36 94.85C67.2 94.85 67.09 95.07 67.31 95.01C69 94.8 70.69 94.8 72.38 95.12C72.55 95.18 72.93 95.18 73.04 95.34C73.15 95.5 73.09 95.94 73.09 96.11C73.26 97.2 73.47 98.29 73.69 99.32L73.97 99.22C72.44 98.89 70.86 99.27 69.33 99.22C69.16 99.16 68.95 99.32 69.16 99.32Z" fill="#604C3F" fill-opacity="1.000000" fill-rule="evenodd"/>
		<path id="Vector" d="M67.96 101.67C68.18 103.03 68.45 104.4 68.56 105.82C68.56 105.82 68.56 105.82 68.62 105.87C70.42 106.47 72.33 106.36 74.24 106.25C74.29 106.25 74.45 106.25 74.45 106.14C74.84 104.67 75 103.14 75 101.61L74.95 101.56C72.71 101.29 70.42 101.18 68.18 101.56C68.02 101.56 67.91 101.78 68.13 101.72C69.87 101.4 71.73 101.45 73.47 101.56C73.75 101.56 74.07 101.56 74.34 101.61C74.62 101.72 74.62 101.72 74.67 102.05C74.73 102.43 74.62 102.82 74.62 103.14C74.56 104.12 74.4 105.16 74.13 106.14L74.34 106.03C72.82 106.09 71.24 106.2 69.71 105.87C69.55 105.87 69.38 105.82 69.22 105.76C68.84 105.6 68.89 105.49 68.84 105.16C68.78 104.78 68.73 104.4 68.67 104.02C68.56 103.2 68.4 102.38 68.24 101.51C68.29 101.51 67.96 101.56 67.96 101.67Z" fill="#604C3F" fill-opacity="1.000000" fill-rule="evenodd"/>
		<path id="Vector" d="M40.31 32.01C40.96 31.36 41.4 30.49 41.84 29.67C42.44 28.58 42.93 27.43 43.42 26.29C43.8 25.3 44.24 24.32 44.62 23.34C45.06 22.2 45.66 21.32 46.75 20.67C48.33 19.74 50.24 19.91 51.49 21.27C51.55 21.32 51.76 21.21 51.82 21.16C53.02 19.14 55.36 18.05 57.6 17.72C57.71 17.72 57.87 17.56 57.66 17.61C55.31 17.94 52.75 19.09 51.49 21.21L51.82 21.1C49.96 19.09 46.75 19.8 45.11 21.76C44.46 22.58 44.18 23.67 43.8 24.65C43.31 25.91 42.76 27.21 42.16 28.47C41.57 29.67 40.96 31.03 40.04 32.01C39.98 32.07 40.25 32.07 40.31 32.01Z" fill="#604C3F" fill-opacity="1.000000" fill-rule="evenodd"/>
		<path id="Vector" d="M44.84 20.12C45.76 19.41 47.24 19.41 48.33 19.58C49.53 19.74 50.78 20.23 51.49 21.27C51.55 21.32 51.87 21.21 51.82 21.16C51 19.96 49.42 19.47 48 19.36C46.85 19.31 45.49 19.36 44.56 20.12C44.45 20.23 44.78 20.18 44.84 20.12Z" fill="#604C3F" fill-opacity="1.000000" fill-rule="evenodd"/>
		<path id="Vector" d="M49.69 22.41C48.16 21.92 46.75 21.6 45.11 21.81C44.95 21.81 44.84 22.09 45.06 22.03C46.64 21.81 48 22.09 49.47 22.58C49.64 22.69 49.91 22.52 49.69 22.41Z" fill="#604C3F" fill-opacity="1.000000" fill-rule="evenodd"/>
		<path id="Vector" d="M55.26 18.92C55.64 19.85 55.86 20.83 56.13 21.76C56.57 23.29 57.06 24.87 57.49 26.4C57.87 27.71 58.31 29.01 58.86 30.27C59.4 31.47 60.22 32.67 61.09 33.65C62.29 35.07 63.87 36.32 65.84 36.21C65.89 36.21 66.11 36.16 66.06 36.05C65.07 34.74 64.64 33.05 64.2 31.52C63.82 30.05 63.49 28.58 63.16 27.11L62.84 27.21C64.31 29.61 66.38 31.63 68.67 33.21C70.64 34.63 72.93 35.89 75.38 36.21C75.44 36.21 75.76 36.16 75.66 36.05C74.67 35.29 73.53 34.52 72.87 33.43C72.71 33.16 72.6 32.89 72.49 32.56C72.38 32.23 72.22 31.69 72.27 31.31C72.33 31.03 72.55 30.76 72.66 30.49C72.82 30.05 72.98 29.56 73.09 29.07C73.36 27.98 73.53 26.83 73.64 25.69C73.86 23.72 73.97 21.6 73.31 19.74C72.49 17.5 71.46 15.32 69.98 13.47C69.22 12.49 68.24 11.67 67.15 11.01C66.16 10.41 65.18 9.71 64.2 9.11C62.07 7.74 59.73 6.6 57.11 6.49C54.33 6.38 51.44 7.2 48.93 8.34C46.75 9.32 44.57 10.8 43.36 12.92C42.55 14.4 42.06 16.14 41.57 17.72C41.07 19.41 40.64 21.16 40.53 22.91C40.42 24.65 40.75 26.4 40.91 28.14C40.91 28.25 41.24 28.14 41.24 28.03C41.07 26.78 40.91 25.47 40.8 24.16C40.64 21.11 41.62 18 42.71 15.11C43.15 13.85 43.64 12.71 44.51 11.67C45.38 10.63 46.47 9.82 47.62 9.16C50.18 7.69 53.35 6.65 56.35 6.65C59.02 6.6 61.47 7.69 63.71 9.16C64.64 9.76 65.57 10.41 66.55 11.01C67.58 11.67 68.51 12.32 69.27 13.25C70.86 15.05 71.95 17.23 72.76 19.47C73.47 21.32 73.47 23.23 73.31 25.2C73.2 26.45 73.04 27.71 72.76 28.91C72.66 29.4 72.49 29.89 72.33 30.38C72.27 30.54 72.22 30.76 72.11 30.92C72.06 31.09 71.89 31.25 71.84 31.41C71.78 31.74 71.95 32.29 72.06 32.56C72.16 32.94 72.33 33.27 72.49 33.6C73.15 34.63 74.29 35.45 75.22 36.16L75.49 36C73.04 35.67 70.75 34.36 68.78 32.94C66.55 31.36 64.53 29.4 63.06 27.05C63 27 62.67 27.05 62.73 27.16C63 28.69 63.38 30.21 63.76 31.74C64.2 33.21 64.64 34.91 65.62 36.16L65.84 36C63.93 36.11 62.4 34.85 61.26 33.49C60.38 32.45 59.57 31.31 59.02 30.11C57.82 27.54 57.16 24.71 56.4 22.03C56.07 21 55.86 19.85 55.42 18.82C55.53 18.76 55.2 18.87 55.26 18.92Z" fill="#604C3F" fill-opacity="1.000000" fill-rule="evenodd"/>
		<path id="Vector" d="M52.97 21.92C53.95 21.27 54.93 21.22 56.08 21.32C56.18 21.32 56.46 21.16 56.18 21.16C54.93 21.05 53.78 21.16 52.75 21.87C52.58 21.98 52.86 21.98 52.97 21.92Z" fill="#604C3F" fill-opacity="1.000000" fill-rule="evenodd"/>
		<path id="Vector" d="M54 22.63C54.55 22.52 55.47 22.58 56.07 22.63C56.24 22.63 56.4 22.41 56.18 22.41C55.42 22.36 54.66 22.3 53.89 22.41C53.73 22.47 53.78 22.69 54 22.63Z" fill="#604C3F" fill-opacity="1.000000" fill-rule="evenodd"/>
		<path id="Vector" d="M41.78 31.2C42.16 32.56 42.82 33.81 43.36 35.07C43.85 36.27 44.45 37.47 44.62 38.72C44.78 40.2 44.84 41.67 45.38 43.03C45.6 43.58 45.93 44.12 46.42 44.45C46.96 44.83 47.67 45.05 48.27 45.32C49.85 45.92 51.44 46.41 53.02 47.07C53.67 47.34 54.27 47.67 54.93 47.83C55.8 48.05 56.67 48.05 57.55 47.94C59.29 47.67 60.93 46.69 62.51 45.98C63.33 45.6 64.15 45.27 64.96 44.89C65.51 44.67 66.11 44.45 66.6 44.07C67.91 43.03 68.56 41.29 69.06 39.76C69.33 39 69.55 38.23 69.87 37.47C70.2 36.65 70.53 35.89 70.75 35.07C70.75 34.96 70.42 35.01 70.42 35.12C70.09 36.49 69.49 37.74 69 39C68.51 40.41 68.02 41.94 67.15 43.14C66.27 44.34 64.75 44.78 63.38 45.38C61.85 46.03 60.33 46.85 58.75 47.45C57.6 47.89 56.4 47.94 55.25 47.67C54.6 47.5 54 47.18 53.35 46.91C51.93 46.31 50.45 45.87 48.98 45.32C47.67 44.83 46.36 44.45 45.76 43.09C45.22 41.78 45.11 40.36 44.95 38.94C44.62 36.1 42.82 33.76 42.06 31.03C42.11 31.03 41.78 31.14 41.78 31.2Z" fill="#604C3F" fill-opacity="1.000000" fill-rule="evenodd"/>
		<path id="Vector" d="M42.49 34.58C40.91 35.12 39.55 36.43 39.98 38.23C40.36 39.87 41.95 41.07 43.53 41.29C43.64 41.29 43.91 41.12 43.75 41.12C42.22 40.91 40.8 39.87 40.36 38.4C39.82 36.65 41.02 35.34 42.6 34.74C42.82 34.69 42.66 34.52 42.49 34.58Z" fill="#604C3F" fill-opacity="1.000000" fill-rule="evenodd"/>
		<path id="Vector" d="M72.33 36.16C72.71 37.03 72.71 38.01 72.38 38.89C71.84 40.36 70.42 41.23 69 41.83C68.78 41.89 69 42.1 69.16 42.05C70.58 41.45 72.06 40.58 72.66 39.05C73.04 38.07 73.04 37.03 72.66 36.05C72.6 35.94 72.27 36.05 72.33 36.16Z" fill="#604C3F" fill-opacity="1.000000" fill-rule="evenodd"/>
		<path id="Vector" d="M46.53 44.56C46.8 46.09 47.4 47.62 48.11 49.03C48.76 50.29 49.53 51.71 50.73 52.52C50.78 52.58 50.89 52.52 50.95 52.52C52.8 51.33 54.55 49.96 56.29 48.54C56.46 48.43 56.13 48.38 56.02 48.49C54.33 49.85 52.58 51.22 50.73 52.41L50.95 52.41C49.69 51.6 48.87 50.07 48.27 48.71C47.62 47.4 47.13 45.98 46.86 44.56C46.8 44.34 46.47 44.4 46.53 44.56Z" fill="#604C3F" fill-opacity="1.000000" fill-rule="evenodd"/>
		<path id="Vector" d="M59.13 47.45C60.55 48.98 61.75 50.67 62.89 52.41C62.95 52.47 63.16 52.41 63.22 52.36C64.15 50.94 65.13 49.58 66 48.1C66.71 46.85 67.42 45.43 67.42 43.96C67.42 43.91 67.09 43.96 67.09 44.07C67.09 45.6 66.33 47.01 65.57 48.32C64.75 49.74 63.76 51.05 62.89 52.41L63.22 52.36C62.02 50.61 60.87 48.92 59.4 47.4C59.4 47.29 59.07 47.4 59.13 47.45Z" fill="#604C3F" fill-opacity="1.000000" fill-rule="evenodd"/>
		<path id="Vector" d="M53.24 51.11C53.51 51.76 53.62 52.52 54 53.12C54.16 53.34 54.33 53.56 54.55 53.72C54.71 53.89 54.87 53.94 54.87 54.16C54.87 54.27 54.82 54.38 54.76 54.43C54.27 55.74 53.84 57.11 53.51 58.47C52.53 62.12 51.93 65.94 52.04 69.71C52.04 69.76 52.36 69.71 52.36 69.6C52.2 64.31 53.35 58.8 55.25 53.83C54.16 53.12 54.06 52.03 53.62 50.94C53.56 50.94 53.18 51.05 53.24 51.11Z" fill="#604C3F" fill-opacity="1.000000" fill-rule="evenodd"/>
		<path id="Vector" d="M60.33 49.58C59.51 51.16 58.69 52.63 57.55 54C57.33 54.27 57.49 54.43 57.6 54.82C57.71 55.2 57.82 55.58 57.93 55.96C58.15 56.78 58.36 57.65 58.53 58.47C58.8 59.94 58.91 61.41 58.85 62.89C58.8 64.36 58.58 66 58.91 67.47C58.91 67.58 59.29 67.52 59.24 67.36C58.91 65.83 59.13 64.2 59.18 62.67C59.24 61.31 59.13 60 58.91 58.63C58.75 57.82 58.58 57 58.36 56.18C58.25 55.8 58.15 55.41 58.04 55.03C57.87 54.54 57.71 54.27 58.04 53.83C58.58 53.07 59.13 52.36 59.56 51.6C59.95 50.94 60.27 50.23 60.66 49.58C60.76 49.47 60.44 49.47 60.33 49.58Z" fill="#604C3F" fill-opacity="1.000000" fill-rule="evenodd"/>
		<path id="Vector" d="M39.22 37.91C38.35 38.29 37.58 38.94 36.82 39.54C35.62 40.47 34.53 41.45 33.38 42.49C31.53 44.23 29.29 46.2 28.53 48.71C27.98 50.5 27.93 52.41 27.93 54.27C27.93 56.01 28.09 57.71 28.26 59.45C28.47 61.91 28.86 64.31 29.18 66.76C29.57 69.6 30 72.49 30.49 75.32C30.71 76.41 30.87 77.56 31.09 78.65C31.26 79.31 31.36 80.01 31.58 80.61C31.97 81.49 32.57 82.41 33.11 83.18C33.98 84.32 35.13 85.25 36.6 85.52C37.75 85.74 39 85.63 40.15 85.63C41.62 85.58 43.09 85.52 44.57 85.36C46.15 85.2 47.67 85.03 49.26 84.76C50.4 84.54 51.55 84.32 52.64 83.89C54 83.29 55.31 82.47 56.62 81.71C58.04 80.89 59.4 80.07 60.76 79.25C61.15 79.03 61.58 78.76 61.97 78.6C62.02 78.6 62.07 78.54 62.07 78.49C61.09 75.6 60.16 72.65 59.46 69.71C59.46 69.65 59.35 69.65 59.29 69.65C56.78 70.14 54.22 70.52 51.66 70.8C50.51 70.96 49.36 71.07 48.22 71.12C47.57 71.18 46.8 71.29 46.15 71.07C46.04 71.07 45.76 71.23 45.93 71.23C46.58 71.4 47.29 71.34 47.89 71.29C49.04 71.23 50.13 71.12 51.27 70.96C53.95 70.63 56.57 70.25 59.24 69.76L59.07 69.71C59.78 72.71 60.71 75.6 61.69 78.49L61.8 78.38C59.35 79.58 57.06 81.16 54.66 82.47C53.51 83.12 52.42 83.72 51.16 84.05C49.8 84.38 48.44 84.65 47.07 84.81C44.18 85.2 41.29 85.36 38.35 85.36C36.93 85.36 35.62 85.14 34.47 84.16C33.44 83.29 32.78 82.14 32.13 80.94C31.42 79.63 31.26 78.05 30.98 76.58C30.49 73.96 30.11 71.29 29.73 68.67C29.35 66.05 29.02 63.49 28.69 60.87C28.31 57.81 28.04 54.65 28.26 51.6C28.36 50.01 28.64 48.27 29.51 46.91C30.16 45.87 31.04 45 31.86 44.07C33.76 42.05 35.89 40.09 38.18 38.5C38.51 38.29 38.84 38.07 39.22 37.85C39.55 37.91 39.38 37.8 39.22 37.91Z" fill="#604C3F" fill-opacity="1.000000" fill-rule="evenodd"/>
		<path id="Vector" d="M29.78 48.05C32.35 49.09 34.96 50.67 36.33 53.12C36.38 53.18 36.71 53.07 36.66 53.01C35.29 50.56 32.62 48.92 30.11 47.89C30 47.94 29.78 48.05 29.78 48.05Z" fill="#604C3F" fill-opacity="1.000000" fill-rule="evenodd"/>
		<path id="Vector" d="M39.38 57.16C40.09 58.58 40.31 60.27 40.64 61.8C40.69 61.96 41.02 61.85 40.96 61.69C40.58 60.1 40.36 58.47 39.71 57.05C39.6 56.94 39.27 57.05 39.38 57.16Z" fill="#604C3F" fill-opacity="1.000000" fill-rule="evenodd"/>
		<path id="Vector" d="M73.69 39.7C75.55 40.91 77.13 42.7 78.6 44.34C80.02 45.92 81.6 47.72 82.04 49.85C82.42 51.7 82.47 53.72 82.58 55.63C82.69 58.25 82.75 60.81 82.69 63.38C82.69 65.61 82.64 67.85 82.42 70.14C82.25 72.32 81.87 74.45 81.6 76.63C81.38 78.05 81.22 79.47 80.89 80.89C80.62 82.09 80.35 83.34 79.75 84.49C79.25 85.41 78.55 85.96 77.67 86.45C76.47 87.05 75.27 87.54 74.02 87.92C71.24 88.74 68.07 89.4 65.18 88.91C63.49 88.58 61.75 88.2 60.06 87.7C58.47 87.27 56.84 86.67 55.42 85.85C54.76 85.47 54.11 84.98 53.51 84.43C53.4 84.32 53.13 84.49 53.24 84.65C55.75 86.94 59.13 87.87 62.4 88.63C63.87 88.96 65.29 89.34 66.82 89.34C68.29 89.34 69.82 89.18 71.29 88.91C73.8 88.41 76.58 87.65 78.71 86.18C80.51 84.92 80.95 82.25 81.33 80.23C81.87 77.5 82.15 74.67 82.53 71.89C82.8 69.92 82.85 67.85 82.91 65.89C82.96 63.21 82.96 60.49 82.91 57.81C82.85 55.58 82.8 53.29 82.53 51.05C82.42 50.34 82.36 49.63 82.09 48.98C81.66 47.89 80.95 46.85 80.24 45.92C78.66 43.85 76.8 42 74.78 40.31C74.51 40.09 74.18 39.81 73.91 39.65C73.85 39.38 73.53 39.6 73.69 39.7Z" fill="#604C3F" fill-opacity="1.000000" fill-rule="evenodd"/>
		<path id="Vector" d="M63.16 77.72C64.53 77.23 66.06 77.12 67.47 77.23C69.71 77.45 71.62 78.59 72.71 80.61C72.76 80.72 73.09 80.61 73.04 80.45C71.13 76.9 66.6 76.25 63.06 77.5C62.78 77.61 63 77.78 63.16 77.72Z" fill="#604C3F" fill-opacity="1.000000" fill-rule="evenodd"/>
		<path id="Vector" d="M69.93 58.52C69.06 60.87 68.67 63.43 68.29 65.89C67.8 69 67.42 72.27 67.75 75.43C67.75 75.54 68.07 75.49 68.07 75.32C67.75 72.1 68.13 68.83 68.62 65.67C69 63.27 69.38 60.76 70.2 58.47C70.31 58.36 69.98 58.41 69.93 58.52Z" fill="#604C3F" fill-opacity="1.000000" fill-rule="evenodd"/>
		<path id="Vector" d="M75 51.49C75.55 50.61 75.93 49.63 76.53 48.81C77.29 47.72 78.38 47.01 79.64 46.58C79.85 46.52 79.64 46.41 79.53 46.47C78.27 46.91 77.18 47.56 76.36 48.6C75.66 49.47 75.22 50.56 74.67 51.54C74.62 51.6 74.95 51.6 75 51.49Z" fill="#604C3F" fill-opacity="1.000000" fill-rule="evenodd"/>
		<path id="Vector" d="M43.47 70.74C42.82 71.78 41.45 72.27 40.42 72.76C39.22 73.25 38.02 73.74 36.87 74.29C36.27 74.56 35.62 75.05 34.91 75.05C34.36 75 33.98 74.67 33.66 74.29C33.27 73.85 33 73.41 32.62 72.98C32.13 72.32 31.8 71.72 31.96 70.91C32.18 69.49 33.22 68.23 34.04 67.14C34.91 65.94 35.67 64.63 36.93 63.71C38.13 62.83 39.71 62.29 41.18 62.78C42.06 63.05 42.76 63.71 43.36 64.36C44.24 65.34 45.06 66.32 45.82 67.41C46.36 68.18 46.96 69 47.24 69.92C47.24 69.98 47.62 69.92 47.56 69.82C47.29 68.83 46.58 67.96 46.04 67.14C45.27 66.11 44.45 65.07 43.58 64.14C42.82 63.32 42 62.67 40.85 62.5C39.66 62.34 38.4 62.67 37.36 63.27C35.95 64.09 35.13 65.29 34.2 66.6C33.27 67.91 31.96 69.32 31.69 70.96C31.47 72.32 32.56 73.52 33.38 74.45C34.04 75.22 34.8 75.43 35.78 75.05C36.55 74.78 37.2 74.34 37.96 74.01C38.84 73.63 39.66 73.31 40.53 72.92C41.67 72.43 43.15 71.89 43.85 70.74C43.85 70.63 43.53 70.63 43.47 70.74Z" fill="#604C3F" fill-opacity="1.000000" fill-rule="evenodd"/>
		<path id="Vector" d="M60.55 69.76C61.58 69.43 62.73 69.11 63.82 69.16C65.29 69.27 66.44 70.09 67.09 71.45C67.15 71.51 67.47 71.4 67.42 71.34C66.71 69.92 65.51 69.05 63.93 69C62.73 68.94 61.58 69.27 60.44 69.65C60.22 69.76 60.44 69.82 60.55 69.76Z" fill="#604C3F" fill-opacity="1.000000" fill-rule="evenodd"/>
		<path id="Vector" d="M48 36.1C49.15 35.29 50.84 35.29 51.93 36.16C51.98 36.21 52.31 36.1 52.25 36.05C51 35.01 48.98 35.23 47.67 36.1C47.67 36.21 47.95 36.16 48 36.1Z" fill="#604C3F" fill-opacity="1.000000" fill-rule="evenodd"/>
		<path id="Vector" d="M61.36 37.14C62.62 36.38 64.69 36.7 65.46 38.01C65.51 38.12 65.84 38.01 65.78 37.85C64.91 36.38 62.57 36.21 61.15 37.03C60.93 37.14 61.2 37.25 61.36 37.14Z" fill="#604C3F" fill-opacity="1.000000" fill-rule="evenodd"/>
		<path id="Vector" d="M50.51 39.82C50.51 39.97 50.39 40.09 50.24 40.09C50.09 40.09 49.96 39.97 49.96 39.82C49.96 39.66 50.09 39.54 50.24 39.54C50.39 39.54 50.51 39.66 50.51 39.82Z" fill="#604C3F" fill-opacity="1.000000" fill-rule="evenodd"/>
		<path id="Vector" d="M63.11 40.14C63.11 40.29 62.99 40.41 62.84 40.41C62.69 40.41 62.57 40.29 62.57 40.14C62.57 39.99 62.69 39.87 62.84 39.87C62.99 39.87 63.11 39.99 63.11 40.14Z" fill="#604C3F" fill-opacity="1.000000" fill-rule="evenodd"/>
		<path id="Vector" d="M54.06 38.67C54.11 39.71 54.22 40.69 54.27 41.72C54.27 42.16 54.33 42.6 54.33 43.03C54.33 43.47 54.33 43.8 54.76 44.01C55.15 44.18 55.69 44.12 56.13 44.12C56.67 44.12 57.27 44.07 57.82 44.07C58.75 44.07 59.24 43.58 59.18 42.65C59.13 41.45 59.13 40.25 59.18 39C59.18 38.94 58.86 39 58.86 39.11C58.8 40.25 58.8 41.45 58.86 42.6C58.86 42.87 58.91 43.2 58.8 43.47C58.64 43.91 58.25 43.96 57.82 43.96C57.16 43.96 56.57 44.01 55.91 44.01C55.25 44.01 54.6 43.91 54.6 43.14C54.6 42.76 54.6 42.33 54.55 41.94C54.49 40.85 54.38 39.76 54.33 38.61C54.38 38.51 54.06 38.56 54.06 38.67Z" fill="#604C3F" fill-opacity="1.000000" fill-rule="evenodd"/>
		<path id="Vector" d="M55.47 46.2C56.24 45.98 57.38 45.92 58.09 46.2C58.2 46.25 58.47 46.09 58.31 45.98C57.49 45.65 56.24 45.71 55.42 45.98C55.2 46.09 55.25 46.31 55.47 46.2Z" fill="#604C3F" fill-opacity="1.000000" fill-rule="evenodd"/>
	</g>
</svg>
