<svg width="200.000000" height="141.000000" viewBox="0 0 200 141" fill="none" xmlns="http://www.w3.org/2000/svg" xmlns:xlink="http://www.w3.org/1999/xlink">
	<desc>
			Created with Pixso.
	</desc>
	<defs>
		<clipPath id="clip3358_2374">
			<rect id="pixel-cells.svg" width="199.988373" height="141.409988" transform="translate(-0.751953 -0.746094)" fill="white" fill-opacity="0"/>
		</clipPath>
	</defs>
	<g clip-path="url(#clip3358_2374)">
		<path id="Vector" d="M93.24 31.06L76.35 47.92L99.23 65.86L114.41 49.08L93.24 31.06ZM97.71 50.39L96.18 48.51L93.19 52.48L91.6 50.82L93.83 47.18L90.03 42.96L92.79 38.82L97.18 40.89L98.44 40.15L104.38 44.74L97.71 50.39Z" fill="#9DD3CC" fill-opacity="1.000000" fill-rule="evenodd"/>
		<path id="Vector" d="M145.07 25.92L133.27 46.33L134.02 48.51L167.73 66.28L178.99 50.23L145.07 25.92ZM158.75 53.95L154.19 51.65L152.89 52.48L146.71 47.38L152.98 41.65L155.21 43.15L158.42 39.92L160.51 41.34L156.78 45.69L161.63 49.35L158.75 53.95Z" fill="#A1DBA3" fill-opacity="1.000000" fill-rule="evenodd"/>
		<path id="Vector" d="M141.03 81.34C141.03 81.22 141.06 81.08 141.03 80.96C141.03 80.91 140.99 80.87 140.99 80.82C140.94 80.87 140.87 80.89 140.84 80.94C140.72 81.15 140.61 81.37 140.56 81.6C140.53 81.77 140.61 81.94 140.68 82.1C140.7 82.15 140.84 82.17 140.87 82.17C140.94 82.03 141.03 81.89 141.06 81.75C141.06 81.6 141.03 81.49 141.03 81.34ZM141.82 73.1C141.79 73.27 141.79 73.31 141.79 73.36C141.82 73.46 141.84 73.55 141.86 73.65C141.94 73.58 142.03 73.5 142.08 73.41C142.25 73.1 142.39 72.77 142.55 72.46C142.82 71.98 142.72 71.58 142.29 71.27C142.01 71.06 141.84 71.1 141.84 71.46C141.79 72.05 141.82 72.62 141.82 73.1ZM135.78 87.45C135.59 87.83 135.76 88.18 136.12 88.42C136.45 88.64 136.78 87.61 137.02 87.19C137.04 87.16 137.04 87.14 137.07 87.11C137.3 86.57 137.61 86.02 137.85 85.45C138.09 84.86 138.25 84.24 138.49 83.58C138.44 83.5 138.02 83.43 137.97 83.55L135.78 87.45ZM139.04 82.34C139.13 82.22 139.39 82.08 139.49 81.84C140.44 79.87 141.34 77.9 142.27 75.95C142.39 75.69 142.55 75.48 142.67 75.21C142.98 74.62 143.34 74.03 143.6 73.39C143.67 73.24 143.41 72.96 143.31 72.74C143.19 72.86 143.05 72.96 142.93 73.08C142.89 73.15 142.86 73.24 142.84 73.34C142.41 74.26 142.01 75.21 141.56 76.12C141.06 77.14 140.51 78.14 140.01 79.13C139.56 80.06 139.13 80.99 138.68 81.91C138.56 82.17 138.54 82.32 139.04 82.34ZM102.29 67.97C102.29 67.45 102.27 66.92 102.24 66.4C102.22 65.88 102.22 65.36 102.19 64.83C102.19 64.71 102.12 64.6 102.1 64.48C102.03 64.5 101.93 64.52 101.86 64.57C100.86 65.24 100.49 66.19 100.53 67.38C100.56 68.42 100.49 69.44 100.46 70.49L100.46 72.15C100.46 72.22 100.53 72.27 100.56 72.32C100.6 72.27 100.68 72.25 100.7 72.2C100.89 71.72 101.1 71.25 101.25 70.75C101.34 70.41 101.51 70.23 101.82 70.25C102.19 70.27 102.27 70.08 102.27 69.77C102.29 69.18 102.29 68.59 102.29 67.97ZM144.52 75.88C144.5 75.62 144.48 75.24 144.41 74.86C144.38 74.76 144.27 74.67 144.19 74.57C144.12 74.64 144.03 74.72 143.98 74.81C143.31 75.97 142.65 77.14 142.01 78.3C141.94 78.42 141.86 78.59 141.86 78.73C141.82 79.49 141.77 80.25 141.75 81.01C141.75 81.25 141.84 81.49 141.89 81.75C142.1 81.63 142.34 81.49 142.55 81.37C142.58 81.37 142.58 81.34 142.6 81.32C144.03 79.82 144.55 78.04 144.52 75.88ZM151.06 59.04C150.89 58.92 150.75 58.78 150.58 58.73C150.49 58.7 150.3 58.78 150.23 58.85C149.99 59.2 149.77 59.58 149.59 59.96C148.94 61.27 148.3 62.58 147.66 63.86C147.19 64.81 146.71 65.76 146.24 66.71C145.83 67.52 145.43 68.35 145.02 69.16C144.69 69.82 144.34 70.46 144 71.13C143.88 71.39 144.1 71.98 144.36 72.01C144.5 72.03 144.69 71.79 144.79 71.63C145.31 70.65 145.81 69.68 146.33 68.73C146.45 68.51 146.57 68.3 146.66 68.09C147.23 66.97 147.8 65.83 148.37 64.71C148.8 63.88 149.23 63.08 149.63 62.22C149.94 61.58 150.25 60.91 150.54 60.25C150.73 59.89 150.87 59.51 151.06 59.04ZM82.43 79.56C82.41 79.56 82.38 77.26 82.38 76.09C82.38 76 82.34 75.9 82.31 75.78C82.24 75.85 82.12 75.9 82.08 76C81.65 76.66 81.2 77.35 80.77 78.02C80.46 78.49 80.15 78.99 79.84 79.47C79.56 79.89 79.32 80.37 79.03 80.8C78.87 81.06 78.8 81.22 79.08 81.44C79.32 81.63 79.51 81.91 79.75 82.13C80.48 82.77 81.24 83.41 82 84.03C82.24 84.22 82.38 84.1 82.43 83.86C82.45 83.74 82.45 83.65 82.45 83.53C82.43 82.2 82.43 80.87 82.43 79.56ZM39.34 60.51C39.79 60.58 40.41 60.63 40.93 60.63C41.26 60.63 43.83 60.44 44.76 60.41C46.99 60.37 49.25 60.3 51.48 60.27C54.09 60.25 56.71 60.27 59.32 60.27C60.65 60.27 61.95 60.32 63.29 60.34C64.09 60.37 64.88 60.41 65.68 60.44C66.59 60.46 67.47 60.44 68.37 60.49C69.63 60.53 70.91 60.63 72.17 60.7C73.93 60.8 78.27 61.2 80.15 61.25C80.67 61.25 80.91 61.01 80.72 60.91C80.27 60.68 79.49 60.44 79.22 60.39C78.44 60.27 77.63 60.27 76.83 60.25C75.02 60.2 73.21 60.15 71.41 60.11C69.49 60.06 67.58 60.06 65.66 60.01C64.57 59.99 63.45 59.92 62.36 59.87C61 59.82 59.65 59.77 58.3 59.7C56.28 59.61 50.13 59.49 49.25 59.51C47.84 59.58 46.44 59.58 45.07 59.63C44.14 59.66 43.21 59.66 42.29 59.73C41.34 59.8 39.98 59.89 39.34 59.96C39.06 60.01 38.72 60.03 38.75 60.25C38.72 60.51 39.08 60.46 39.34 60.51ZM101.65 83.98C101.65 83.41 101.62 82.86 101.65 82.29C101.7 80.94 101.74 79.56 101.79 78.21C101.84 77.23 101.84 76.24 101.91 75.26C102.01 74 102.12 72.74 102.24 71.49C102.24 71.39 102.19 71.29 102.15 71.2C102.08 71.27 101.98 71.32 101.93 71.41C101.58 72.17 101.25 72.96 100.84 73.67C100.46 74.33 100.39 75 100.44 75.71C100.46 76.05 100.46 76.38 100.44 76.71C100.37 78.14 100.25 79.56 100.2 81.01C100.15 82.51 100.22 84.03 100.18 85.52C100.15 86.88 100.03 88.23 100.01 89.61C100.01 89.82 100.13 90.11 100.27 90.27C100.58 90.68 100.91 91.06 101.25 91.41C101.34 91.53 101.48 91.63 101.6 91.75C101.67 91.58 101.82 91.44 101.82 91.27C101.84 90.73 101.77 90.2 101.79 89.66C101.82 88.87 101.62 83.98 101.65 83.98ZM111.06 57.23C110.01 57.35 109.2 57.42 108.4 57.49C107.99 57.54 107.75 57.68 107.56 58.11C107.33 58.63 107.56 58.54 107.87 58.54C110.08 58.54 112.27 58.56 114.48 58.56C116.33 58.56 118.16 58.54 120.01 58.51C121.98 58.51 128.66 58.49 130.01 58.47C130.8 58.47 134.03 58.33 134.55 58.35C135.33 58.37 136.12 58.4 136.9 58.37C137.97 58.33 139.06 58.25 140.13 58.18C140.37 58.16 140.61 58.09 140.84 58.04C140.7 57.85 140.58 57.64 140.42 57.47C140.04 57.07 139.66 56.88 139.04 57.04C138.3 57.23 124.12 57.52 122.1 57.45C121.08 57.42 120.06 57.23 119.04 57.23C116.31 57.21 113.55 57.23 111.06 57.23ZM83.24 72.82C83.45 72.51 83.67 72.2 83.86 71.89C85.14 69.96 86.45 68.04 87.7 66.12C88.73 64.55 89.7 62.96 90.75 61.41C91.27 60.63 91.29 60.51 90.58 59.89C90.53 59.84 90.46 59.8 90.41 59.75C89.91 59.35 89.72 59.35 89.34 59.84C88.37 61.13 87.42 62.46 86.47 63.74C85.52 65.05 84.55 66.35 83.59 67.66C83.02 68.44 80.51 72.34 79.94 73.17C79.22 74.15 78.51 75.12 77.85 76.14C76.94 77.5 76.09 78.85 75.21 80.2C74.4 81.44 73.62 82.67 72.83 83.91C72.81 83.93 72.79 83.98 72.76 84C72.08 84.91 71.36 85.81 70.93 86.85C70.72 87.4 70.17 87.61 69.86 88.04C69.39 88.71 68.96 89.4 68.51 90.08C68.3 90.42 68.32 90.68 68.65 90.89C69.2 91.25 69.75 91.58 70.29 91.96C70.58 92.15 70.72 92.06 70.86 91.79C71.08 91.41 71.34 91.03 71.58 90.66C72.81 88.8 74.19 87.07 75.26 85.12C75.88 83.98 76.68 82.93 77.42 81.87C77.63 81.56 77.63 81.37 77.37 81.08C77.11 80.8 76.85 80.49 76.66 80.16C76.47 79.82 76.64 79.54 76.9 79.32C77.18 79.09 77.35 79.35 77.49 79.51C77.68 79.73 77.85 79.94 78.01 80.16C78.23 80.44 78.34 80.46 78.56 80.13C79.51 78.63 80.53 77.19 81.43 75.66C81.86 75.02 83.22 72.89 83.24 72.82ZM40.12 62.74C40.12 61.75 39.96 61.36 39.27 61.17C38.6 60.99 38.39 60.99 38.34 61.48C38.18 62.67 38.08 63.86 38.08 65.07C38.08 67 38.01 68.9 37.91 70.82C37.87 72.25 37.8 73.69 37.68 75.12C37.56 76.5 37.3 85.52 37.3 86.47C37.3 87.57 37.2 88.66 37.2 89.75C37.2 91.01 37.3 92.25 37.32 93.5C37.34 94.81 37.27 96.12 37.34 97.42C37.42 98.64 37.94 99.63 38.89 100.42C39.17 100.66 39.41 100.7 39.65 100.49C39.79 100.37 39.91 100.13 39.91 99.94C39.93 98.16 39.96 96.4 39.91 94.62C39.86 92.58 39.77 90.54 39.67 88.49C39.63 87.07 39.58 85.62 39.53 84.19C39.53 83.93 39.48 83.62 39.36 83.39C38.99 82.65 38.53 81.96 38.18 81.25C38.06 81.01 37.96 80.23 38.32 80.08C38.67 79.92 38.72 80.25 38.79 80.34C39.03 80.7 39.08 80.99 39.29 81.37C39.34 81.41 39.36 81.49 39.41 81.53C39.44 81.46 39.46 81.41 39.46 81.34C39.46 80.94 39.44 80.51 39.46 80.11C39.53 78.68 39.65 77.23 39.67 75.81C39.72 73.81 39.65 71.82 39.89 69.82C40.03 68.54 40.01 67.21 40.05 65.93C40.1 64.98 40.12 63.74 40.12 62.74ZM82.22 93.67C82.29 90.77 82.34 88.71 82.36 86.66C82.36 86.43 82.36 86.09 82.22 85.93C81.86 85.48 81.43 85.1 81.01 84.69C80.2 83.93 79.39 83.17 78.58 82.41C78.2 82.06 78.23 82.06 77.97 82.53C77.87 82.72 77.75 82.86 77.63 83.05C77.09 83.88 76.52 84.72 75.97 85.55C75.07 86.88 74.16 88.21 73.26 89.51C72.69 90.37 72.1 91.22 71.55 92.08C71.48 92.17 70.89 93.22 70.39 92.84C69.86 92.46 68.49 91.75 67.8 91.3C67.13 90.84 67.13 90.8 67.44 90.06C67.61 89.68 67.85 89.32 68.06 88.94C68.11 88.87 68.11 88.78 68.16 88.68C68.06 88.68 67.99 88.68 67.89 88.71C66.9 89.09 65.92 89.49 64.95 89.87C63.43 90.46 61.91 91.13 60.36 91.65C59.58 91.91 58.72 92.01 57.89 92.15C56.94 92.32 55.99 92.48 55.02 92.56C52.52 92.7 50.22 91.87 48.03 90.8C46.61 90.08 45.23 89.23 43.95 88.28C43.05 87.64 42.31 86.78 41.53 86C41.17 85.64 40.86 85.24 40.53 84.86C40.48 84.79 40.39 84.76 40.32 84.72C40.27 84.81 40.2 84.91 40.2 85C40.22 85.78 40.22 86.57 40.27 87.35C40.41 90.25 40.58 93.12 40.69 96.02C40.74 97.26 40.65 98.49 40.62 99.7C40.6 100.35 40.65 100.39 41.24 100.42C42.62 100.49 44 100.54 45.37 100.61C46.63 100.68 52.76 100.58 54.54 100.51C56.8 100.42 59.06 100.35 61.31 100.25C61.69 100.23 62.1 100.18 62.48 100.18C63.71 100.16 76.14 99.59 78.39 99.68C79.51 99.73 80.63 99.78 81.74 99.85C82.17 99.87 82.24 99.68 82.24 99.33C82.22 97.12 82.22 94.98 82.22 93.67ZM114.55 49.34C114.5 49.25 114.48 49.18 114.43 49.11C114.17 48.82 113.93 48.51 113.65 48.23C113.19 47.8 112.74 47.4 112.29 46.99C111.65 46.4 111.03 45.74 110.32 45.26C109.75 44.88 109.27 44.43 108.85 43.93C108.68 43.74 108.49 43.55 108.28 43.38C107.11 42.5 105.95 41.65 104.78 40.79C104.07 40.27 103.34 39.82 102.65 39.25C101.82 38.56 101.03 37.83 100.2 37.11C98.94 36.02 97.68 34.97 96.42 33.88C95.35 32.95 94.31 32 93.24 31.08C93.17 31.01 92.95 31.01 92.88 31.05C92.65 31.27 92.43 31.48 92.24 31.74C91.53 32.72 90.6 33.45 89.68 34.21C89.15 34.64 88.66 35.12 88.18 35.62C87.28 36.52 86.42 37.47 85.52 38.37C84.45 39.46 83.31 40.53 82.26 41.65C80.89 43.12 79.58 44.64 78.25 46.16C77.99 46.45 77.8 46.8 77.56 47.09C77.23 47.47 77.37 47.75 77.7 48.04C78.3 48.56 78.84 49.11 79.44 49.61C80.86 50.82 82.24 52.05 83.74 53.17C85.83 54.71 87.78 56.4 89.77 58.06C90.56 58.73 91.27 59.46 92.03 60.13C92.62 60.65 93.24 61.13 93.81 61.65C95.33 62.96 96.83 64.26 98.35 65.57C98.96 66.09 99.51 66 99.91 65.33C99.96 65.26 99.99 65.21 100.06 65.16C101.08 64.29 102.03 63.31 102.91 62.24C103.98 60.94 105.17 59.73 106.33 58.49C107.21 57.54 108.13 56.61 109.04 55.66C109.89 54.79 110.77 53.91 111.58 53C112.53 51.96 113.43 50.84 114.33 49.77C114.38 49.61 114.45 49.46 114.55 49.34ZM162.89 63.91C163.43 64.17 165.86 66.02 166.55 66.47C167.09 66.85 167.4 66.83 167.78 66.28C169.25 64.19 170.73 62.08 172.2 59.96C172.7 59.25 173.25 58.58 173.67 57.85C175.03 55.55 176.69 53.45 178.45 51.46C178.73 51.15 178.95 50.77 179.18 50.39C179.14 50.32 179.09 50.27 179.04 50.22C178.42 49.63 177.85 49.01 177.21 48.49C176.19 47.66 170.63 43.74 169.66 42.98C168.07 41.77 166.52 40.53 164.93 39.32C163.22 38.01 161.46 36.73 159.75 35.4C158.54 34.48 157.35 33.5 156.17 32.55C154.48 31.22 152.58 30.22 150.7 29.18C148.97 28.2 147.16 27.44 145.19 27.06C145.02 27.04 144.79 27.06 144.69 27.16C143.96 27.99 139.3 35.73 138.73 36.8C137.87 38.4 134.31 44.9 133.31 46.33C133.17 46.52 133.24 46.66 133.41 46.8C133.86 47.16 134.29 47.56 134.76 47.87C136.71 49.06 138.66 50.22 140.61 51.39C141.79 52.1 142.98 52.81 144.14 53.53C145 54.05 145.86 54.59 146.71 55.12C147.5 55.62 148.25 56.16 149.04 56.66C149.54 56.97 150.08 57.21 150.61 57.49C151.22 57.83 151.82 58.21 152.46 58.51C153.91 59.18 155.41 59.77 156.85 60.44C157.83 60.89 158.8 61.36 159.78 61.86C160.49 62.24 161.2 62.67 161.89 63.1L162.89 63.91ZM82.03 66.73C82 65.4 82 64.05 82.03 62.72C82.03 62.29 81.86 62.1 81.46 62.05C80.7 61.98 79.94 61.89 79.18 61.84C77.06 61.72 74.97 61.67 72.86 61.56C71.39 61.48 69.91 61.32 68.44 61.25C65.02 61.13 61.58 61.01 58.13 60.94C55.61 60.89 53.09 60.94 50.58 60.96C49.13 60.99 47.7 61.06 46.25 61.1C44.83 61.15 43.43 61.17 42 61.27C40.86 61.34 40.89 61.36 40.89 62.5C40.89 63.41 40.79 64.31 40.74 65.21C40.72 65.85 40.79 66.52 40.74 67.16C40.67 68.25 40.53 69.35 40.46 70.44C40.34 72.53 40.17 80.49 40.1 82.39C40.1 82.55 40.12 82.79 40.22 82.91C40.98 83.91 41.69 84.93 42.52 85.86C43.81 87.31 45.49 88.28 47.11 89.28C48.06 89.87 49.15 90.27 50.22 90.68C51.5 91.15 52.81 91.49 54.21 91.53C54.76 91.56 55.33 91.63 55.87 91.56C56.73 91.44 57.58 91.13 58.44 91.01C60.58 90.73 62.5 89.8 64.47 89.04C66.04 88.42 67.54 87.64 69.08 86.9C69.27 86.81 69.46 86.66 69.6 86.47C70.29 85.64 71.1 84.86 71.29 83.69C71.34 83.39 71.55 83.2 71.96 83.24C72.1 83.27 72.33 83.12 72.43 82.98C73.29 81.77 74.12 80.58 74.92 79.35C75.57 78.37 76.14 77.33 76.8 76.38C78.44 74 80.15 71.67 81.79 69.32C81.93 69.11 81.98 68.82 82 68.56C82.05 68.02 82.03 67.38 82.03 66.73ZM108.49 59.46C107.92 59.49 107.33 59.44 106.76 59.49C106.5 59.51 106.19 59.63 106.02 59.82C105 60.94 104 62.08 103.03 63.22C102.91 63.36 102.86 63.62 102.86 63.83C102.86 64.71 102.91 65.59 102.93 66.45C102.96 67.47 103.03 68.51 102.96 69.54C102.84 71.56 102.65 73.58 102.53 75.62C102.46 76.85 102.43 78.11 102.39 79.37C102.36 80.01 102.29 80.68 102.31 81.32C102.31 82.6 102.39 83.88 102.39 85.19C102.41 86.71 102.36 88.25 102.39 89.78C102.41 90.58 102.46 91.41 102.55 92.22C102.65 92.91 102.81 93.01 103.5 93.08C104.52 93.2 112.77 93.55 114.12 93.48C115.14 93.43 116.16 93.36 117.21 93.41C119.94 93.5 122.69 93.74 125.43 93.79C127.35 93.81 129.27 93.62 131.2 93.55C133.41 93.48 135.64 93.43 137.87 93.39C138.83 93.36 139.77 93.39 140.72 93.36C140.87 93.36 141.51 93.12 141.53 93.03C141.7 92.6 141.34 89.51 141.25 88.33C141.15 87.02 141.08 85.74 141.01 84.43C140.96 83.6 140.96 83.6 140.13 83.46C139.73 83.39 139.51 83.53 139.37 83.84C139.02 84.6 138.66 85.36 138.37 86.12C137.95 87.28 137.47 88.42 136.73 89.44C136.57 89.66 136.42 89.75 136.19 89.56C135.74 89.21 135.26 88.87 134.83 88.49C134.48 88.16 134.45 87.78 134.69 87.4C135.33 86.33 136 85.24 136.61 84.15C136.81 83.84 136.9 83.46 137.02 83.12C136.61 83.05 135.67 82.91 135.59 82.89C135.36 82.84 135.1 82.84 134.91 82.7C134.74 82.58 134.79 81.82 134.98 81.77C135.17 81.7 135.38 81.72 135.57 81.75C136.05 81.84 136.52 81.96 137 82.06C137.59 82.17 137.68 82.13 137.95 81.58C138.16 81.18 138.4 80.77 138.59 80.34C139.02 79.49 139.39 78.63 139.82 77.78C139.94 77.52 140.08 77.26 140.25 77C140.68 76.26 141.06 75.52 141.06 74.64C141.06 73.43 141.1 72.22 141.1 71.01C141.1 70.84 141.1 70.58 140.99 70.49C140.58 70.16 140.75 69.84 140.99 69.54C141.06 69.44 141.1 69.3 141.13 69.18C141.18 68.73 141.22 68.28 141.22 67.85C141.22 66.14 141.2 64.43 141.15 62.72C141.13 61.75 141.08 60.77 141.03 59.82C141.01 59.16 140.96 59.08 140.3 59.08C139.3 59.08 138.33 59.13 137.33 59.16C135.67 59.23 134.03 59.32 132.36 59.37C130.75 59.42 129.13 59.46 127.49 59.46C126.47 59.46 125.45 59.42 124.45 59.39C124.07 59.39 123.72 59.42 123.34 59.42C121.86 59.42 120.39 59.42 118.92 59.44C118.16 59.46 117.4 59.56 116.64 59.54C114.83 59.49 113.05 59.3 111.22 59.46C110.34 59.54 109.42 59.46 108.49 59.46ZM83.12 84.36C83.12 84.57 83.07 84.83 83.38 84.91C83.64 84.98 83.95 85.07 83.9 85.38C83.83 85.69 83.69 86.14 83.48 86.21C82.93 86.4 83.05 86.81 83.05 87.16C83.02 87.88 83.02 88.56 83.02 89.28L83.02 91.13C83.02 93.34 83.05 95.57 83 97.78L83 99.3C83 100.16 83.17 100.99 81.89 100.82C81.24 100.75 80.63 100.63 79.99 100.58C78.32 100.49 76.66 100.44 75 100.44C73.81 100.44 72.62 100.58 71.41 100.63C70.48 100.66 69.53 100.63 68.61 100.66C67.87 100.66 67.85 100.68 67.85 101.42C67.85 103.01 67.77 104.62 67.85 106.21C67.87 106.78 67.92 107.97 68.01 109.26C68.11 110.49 68.63 111.61 68.84 111.87C69.41 112.63 70.01 113.36 70.58 114.12C70.79 114.41 71.03 114.67 71.24 114.96C71.41 115.17 71.53 115.43 71.29 115.67C71.12 115.84 70.63 115.72 70.43 115.45C70.08 114.96 69.7 114.46 69.34 113.98C68.99 113.51 68.63 113.03 68.27 112.56C67.42 111.49 67.35 110.2 67.3 108.92C67.2 106.38 67.11 103.86 67.01 101.32C67.01 101.01 66.94 100.77 66.54 100.8C65.59 100.85 64.64 100.85 63.69 100.89C62.17 100.99 60.62 101.11 59.1 101.18C58.13 101.23 57.16 101.2 56.18 101.2C55.52 101.2 54.83 101.25 54.16 101.27C53.85 101.27 53.69 101.42 53.71 101.75C53.74 102.84 53.71 103.93 53.74 105.03C53.76 106.62 53.81 107.45 53.93 109.02C54 110.02 53.93 111.77 54.38 112.72C54.64 113.25 54.4 113.6 53.81 113.74C52.95 113.96 52.31 114.48 51.69 115.05C51.43 115.31 51.19 115.6 50.93 115.86C50.74 116.05 50.5 116.31 50.22 116.1C49.96 115.91 50.01 115.48 50.32 115.22C51.15 114.58 51.98 113.98 52.83 113.36C53.19 113.1 53.36 112.77 53.36 112.37C53.36 111.8 53.33 111.25 53.31 110.68C53.26 109.52 53.26 108.38 53.19 107.21C53.09 105.64 52.95 104.1 52.83 102.53C52.81 102.25 52.83 101.96 52.86 101.7C52.86 101.44 52.76 101.37 52.48 101.37C50.5 101.39 48.51 101.39 46.54 101.37C44.95 101.35 39.67 101.49 39.34 101.53C39.22 101.56 39.01 101.44 38.91 101.32C38.25 100.56 37.51 99.9 36.92 99.06C36.51 98.52 36.61 98.07 36.61 97.52C36.61 96.52 36.56 95.55 36.56 94.55C36.56 93.39 36.56 92.25 36.58 91.08C36.61 88.97 36.68 86.83 36.68 84.72C36.68 83.29 36.63 81.84 36.66 80.42C36.68 79.56 36.8 78.71 36.89 77.85C36.92 77.57 36.92 77.26 36.94 76.95C37.08 75 37.25 73.05 37.37 71.08C37.46 69.58 37.49 68.09 37.54 66.57C37.58 64.6 37.61 62.6 37.65 60.63C37.65 60.18 38.3 59.54 38.75 59.46C40.29 59.16 41.86 59.06 43.43 59.01C44.95 58.97 46.44 58.82 47.96 58.75C48.7 58.73 49.46 58.78 50.2 58.78C51.03 58.8 51.83 58.82 52.67 58.85C54.54 58.87 56.4 58.87 58.27 58.94C59.82 58.99 61.36 59.13 62.91 59.18C64.35 59.23 65.8 59.18 67.25 59.2C68.56 59.23 69.86 59.3 71.15 59.32C72.41 59.35 73.66 59.35 74.95 59.37C75.45 59.37 75.95 59.42 76.44 59.42C76.99 59.42 77.56 59.46 78.11 59.37C78.8 59.25 79.39 59.25 80.01 59.68C80.77 60.2 81.58 60.68 82.38 61.13C82.74 61.34 82.91 61.63 82.88 62.05C82.83 62.81 82.79 63.58 82.76 64.33C82.74 65.33 82.74 66.35 82.74 67.35C82.74 67.45 82.79 67.57 82.81 67.66C82.91 67.59 83.02 67.54 83.1 67.45C84.4 65.62 85.85 63.88 86.99 61.93C87.44 61.15 88.06 60.46 88.58 59.7C88.8 59.39 89.13 59.04 89.13 58.68C89.13 58.42 88.75 58.11 88.49 57.87C87.54 57.07 86.57 56.28 85.59 55.5C84.83 54.88 84.09 54.29 83.33 53.67C82.72 53.17 82.08 52.67 81.46 52.17C80.46 51.34 79.44 50.53 78.44 49.68C77.75 49.08 77.09 48.44 76.44 47.8C76.09 47.44 76.09 47.16 76.44 46.85C77.68 45.78 78.54 44.43 79.41 43.08C79.91 42.31 80.7 41.74 81.34 41.08C82.36 40.01 83.38 38.89 84.4 37.83C85.45 36.75 86.47 35.69 87.56 34.66C88.82 33.48 90.13 32.34 91.39 31.13C91.84 30.7 92.17 30.17 92.6 29.72C93.14 29.15 93.43 29.2 93.95 29.8C94.4 30.32 94.88 30.82 95.38 31.29C96.21 32.08 97.06 32.81 97.92 33.55C99.04 34.52 100.13 35.54 101.29 36.5C102.22 37.25 103.19 37.99 104.19 38.68C105.9 39.84 107.47 41.22 109.01 42.6C109.96 43.43 110.89 44.31 111.86 45.12C112.6 45.74 113.41 46.28 114.19 46.85C114.78 47.3 115.38 47.75 115.95 48.21C116.16 48.37 116.16 48.61 116.02 48.8C115.62 49.32 115.21 49.87 114.78 50.37C114.1 51.2 113.38 52.01 112.67 52.81C112.46 53.08 112.2 53.29 111.96 53.53C111.08 54.45 110.22 55.38 109.37 56.31C109.32 56.38 109.27 56.47 109.25 56.54C109.35 56.57 109.44 56.61 109.56 56.61C113 56.26 116.43 56.4 119.87 56.45C122.22 56.47 124.57 56.73 126.92 56.73C128.73 56.73 130.53 56.52 132.34 56.4C134.07 56.28 135.81 56.19 137.54 56.07C138.14 56.02 138.71 55.88 139.3 55.81C139.44 55.78 139.63 55.81 139.77 55.85C140.77 56.33 141.41 57.21 142.08 58.02C142.17 58.13 142.15 58.33 142.15 58.49C142.1 59.44 142.06 60.39 142.01 61.32C141.98 61.75 141.94 62.17 141.91 62.6C141.89 63.17 141.94 63.76 141.91 64.33C141.89 65.88 141.86 67.42 141.82 68.97C141.82 69.3 141.86 69.58 142.22 69.75C142.55 69.94 142.86 70.18 143.19 70.41C143.46 70.61 143.62 70.53 143.77 70.25C144 69.73 144.27 69.2 144.52 68.68C145.38 66.95 146.26 65.21 147.14 63.48C147.97 61.84 148.78 60.18 149.63 58.54C149.82 58.21 149.73 58.02 149.47 57.85C148.94 57.54 148.42 57.25 147.92 56.92C147.04 56.35 146.17 55.74 145.26 55.16C144.14 54.45 143.03 53.76 141.91 53.05C140.87 52.39 139.85 51.72 138.78 51.08C137.78 50.46 136.73 49.91 135.71 49.32C135.19 49.01 134.67 48.68 134.14 48.35C133.5 47.97 132.89 47.56 132.25 47.18C131.53 46.52 133.58 44.07 134.14 43.24C134.71 42.41 135.21 41.55 135.71 40.67C136.21 39.8 136.71 38.89 137.16 37.97C137.75 36.8 138.25 35.62 138.87 34.48C139.47 33.36 144.03 26.3 144.34 25.92C144.48 25.76 144.91 25.71 145.14 25.78C147.33 26.35 149.35 27.25 151.3 28.37C152.41 29.01 153.55 29.58 154.64 30.27C155.5 30.79 156.31 31.41 157.11 32C158.78 33.29 160.42 34.62 162.08 35.9C164.08 37.44 166.1 38.96 168.11 40.46C169.8 41.7 171.49 42.93 173.2 44.12C173.72 44.5 174.31 44.78 174.84 45.16C175.88 45.9 177 46.52 177.93 47.44C178.64 48.13 179.52 48.66 180.35 49.23C180.66 49.44 180.75 49.68 180.56 49.96C180.25 50.41 179.94 50.84 179.61 51.27C179.09 51.91 178.52 52.53 178 53.19C177.57 53.69 177.16 54.22 176.78 54.74C176.21 55.47 175.64 56.21 175.12 56.97C174.27 58.23 173.43 59.51 172.58 60.77C171.3 62.62 170.02 64.48 168.73 66.33C168.49 66.69 168.3 67.07 168.09 67.45C167.92 67.73 167.76 68.02 167.4 68.02C167.26 68.02 167.07 67.94 166.95 67.87C166.38 67.49 165.83 67.09 165.26 66.71C164.95 66.5 162.77 64.93 162.41 64.69C162.39 64.69 162.39 64.67 162.36 64.64C161.77 64.24 159.52 62.74 159.25 62.58C158.59 62.2 157.9 61.82 157.21 61.46C156.43 61.06 155.64 60.7 154.84 60.32C154.5 60.18 154.17 60.08 153.84 59.94C153.41 59.75 152.98 59.56 152.58 59.35C152.2 59.16 151.98 59.2 151.79 59.61C151.53 60.2 151.22 60.8 150.94 61.36C150.37 62.53 149.77 63.69 149.18 64.86C148.35 66.5 147.47 68.14 146.64 69.77C146.31 70.41 146 71.08 145.69 71.75C145.64 71.86 145.05 73.22 145.26 73.88C145.57 74.93 145.81 76.02 145.55 77.09C145.26 78.25 144.74 80.8 142.29 82.6C141.86 82.82 141.75 83.12 141.79 83.6C141.94 85.05 141.96 86.5 142.08 87.95C142.17 89.09 142.51 91.89 142.48 92.67C142.46 93.46 141.89 93.96 140.58 93.93C139.28 93.91 134.34 93.98 134.31 93.98C133.19 94.03 132.03 94 130.91 94.08C129.44 94.15 127.97 94.22 126.5 94.31C126.33 94.31 126.09 94.48 126.07 94.62C125.95 95.02 125.85 95.45 125.88 95.88C125.95 97.47 126.07 99.04 126.16 100.63C126.26 102.13 126.38 103.6 126.52 105.1C126.59 105.91 126.61 106.76 126.88 107.52C127.09 108.14 127.54 108.73 128.02 109.18C128.61 109.75 129.13 110.32 129.49 111.04C129.61 111.27 129.7 111.51 129.77 111.77C129.8 111.89 129.7 112.08 129.61 112.15C129.51 112.2 129.3 112.18 129.2 112.1C129.02 111.92 128.87 111.68 128.73 111.44C128.13 110.39 127.35 109.54 126.26 108.99C125.9 108.83 125.76 108.42 125.85 108.21C126.24 107.52 126 106.85 125.95 106.19C125.88 104.58 125.69 102.96 125.57 101.35C125.4 99.18 125.24 97 125.1 94.83C125.07 94.46 124.9 94.34 124.57 94.34C122.79 94.26 121.03 94.19 119.25 94.12C118.35 94.08 117.42 94.03 116.52 94C115.85 93.98 115.74 94.15 115.81 94.81C115.97 96.38 116.16 97.95 116.31 99.54C116.45 101.25 117.59 107.47 117.14 108.07C117.07 108.16 114.41 110.23 114.33 110.37C114.12 110.73 113.81 110.8 113.48 110.59C113.24 110.42 113.17 110.2 113.38 109.99C113.55 109.82 113.79 109.71 113.95 109.54C114.6 108.99 115.62 108.21 116.21 107.59C116.76 107.02 115.64 99.61 115.52 98.45C115.38 97.16 115.19 95.86 114.95 94.6C114.9 94.26 114.67 93.96 114.19 94.03C113.62 94.12 113.05 94.17 112.46 94.22C110.94 94.29 104.33 93.86 102.84 93.67C102.55 93.65 102.22 93.48 102.03 93.29C101.51 92.79 101.06 92.2 100.56 91.68C100.22 91.32 99.84 91.01 99.49 90.7C99.2 90.44 99.13 90.18 99.18 89.78C99.3 88.44 99.34 87.09 99.39 85.76C99.44 83.84 99.44 81.89 99.51 79.97C99.53 78.92 99.65 77.87 99.7 76.83C99.7 76.69 99.65 76.54 99.61 76.42C99.51 76.54 99.37 76.64 99.3 76.76C98.49 78.73 97.68 80.7 96.92 82.7C96.14 84.76 95.45 86.85 94.71 88.92C94.38 89.87 94 90.8 93.62 91.72C93.57 91.84 93.38 91.91 93.26 92.01C93.17 91.84 92.98 91.7 92.98 91.53C92.98 91.32 93.12 91.13 93.22 90.91C93.83 89.3 94.45 87.68 95.07 86.07C95.33 85.38 95.59 84.67 95.85 83.98C96.14 83.22 96.47 82.46 96.71 81.67C97.4 79.42 98.37 77.28 99.39 75.17C99.7 74.5 99.77 73.86 99.75 73.17C99.75 71.98 99.75 70.8 99.77 69.61C99.8 68.73 99.89 67.87 99.96 67C99.96 66.9 99.94 66.78 99.91 66.69C99.84 66.76 99.75 66.81 99.68 66.88C99.23 67.38 99.11 67.38 98.58 66.92C97.71 66.16 96.78 65.45 95.88 64.69C95.35 64.24 94.88 63.74 94.36 63.29C93.6 62.62 92.83 61.98 92.08 61.32C91.81 61.08 91.67 61.13 91.48 61.41C89.8 64.07 88.11 66.73 86.37 69.37C85.57 70.61 84.71 71.79 83.88 73C83.62 73.39 83.38 73.74 83.17 74.15C83.05 74.38 82.98 74.67 82.98 74.95C82.95 76.5 82.98 78.04 82.98 79.61C83.07 79.66 83.12 82.79 83.12 84.36Z" fill="#181715" fill-opacity="1.000000" fill-rule="evenodd"/>
		<path id="Vector" d="M125.28 77.71C125.9 77.76 126.52 77.73 127.14 77.76C127.54 77.78 127.8 77.57 127.92 77.24C128.06 76.83 128.13 76.43 128.23 76C128.25 75.93 128.23 75.86 128.25 75.79C128.33 75.52 128.52 75.38 128.8 75.45C129.11 75.52 129.18 75.71 129.11 76C129.01 76.4 128.82 77.66 128.78 77.9C128.66 78.66 128.23 78.92 127.66 78.83C126.4 78.64 125.12 78.42 123.84 78.3C122.05 78.16 120.27 78.09 118.47 77.97C116.57 77.85 114.67 77.76 112.77 77.64C112.41 77.61 112.01 77.64 111.7 77.5C111.27 77.28 111.39 75.26 111.36 74.69C111.34 74.29 111.55 74 111.93 74.03C112.34 74.03 112.41 74.34 112.41 74.65C112.41 74.91 112.43 76.14 112.55 76.5C112.65 76.81 112.91 76.9 113.22 76.93C115.02 77.07 123.12 77.54 125.28 77.71Z" fill="#181715" fill-opacity="1.000000" fill-rule="evenodd"/>
		<path id="Vector" d="M112.31 66.52C112.77 66.52 113.08 66.74 113.08 67C113.05 67.28 112.69 67.66 112.41 67.66C112.08 67.66 111.72 67.33 111.75 67.02C111.79 66.66 112.01 66.5 112.31 66.52Z" fill="#181715" fill-opacity="1.000000" fill-rule="evenodd"/>
		<path id="Vector" d="M127.78 68.47C127.49 68.47 127.23 68.18 127.23 67.85C127.23 67.57 127.52 67.3 127.83 67.3C128.13 67.3 128.42 67.59 128.42 67.85C128.42 68.14 128.06 68.47 127.78 68.47Z" fill="#181715" fill-opacity="1.000000" fill-rule="evenodd"/>
		<path id="Vector" d="M56.18 81.46C55.78 81.39 55.64 81.3 55.42 81.13C54.68 80.58 53.95 80.01 53.21 79.44C52.9 79.2 52.55 79.04 52.22 78.83C52 78.68 51.74 78.47 51.95 78.21C52.07 78.07 52.36 77.97 52.55 77.97C52.76 77.99 53 78.14 53.19 78.25C53.88 78.75 54.54 79.28 55.25 79.77C55.64 80.04 56.04 80.25 56.44 80.46C56.66 80.58 56.99 80.58 56.87 80.99C56.8 81.34 56.58 81.53 56.18 81.46Z" fill="#181715" fill-opacity="1.000000" fill-rule="evenodd"/>
		<path id="Vector" d="M55.83 70.16C55.8 70.58 55.61 70.8 55.28 70.77C54.97 70.75 54.54 70.51 54.57 70.01C54.59 69.77 54.97 69.56 55.35 69.56C55.75 69.56 55.85 69.82 55.83 70.16Z" fill="#181715" fill-opacity="1.000000" fill-rule="evenodd"/>
		<path id="Vector" d="M69.06 69.99C69.63 70.04 69.7 70.58 69.67 70.75C69.65 70.99 69.49 71.08 69.34 71.13C68.75 71.25 68.41 70.94 68.44 70.58C68.44 70.18 68.46 69.92 69.06 69.99Z" fill="#181715" fill-opacity="1.000000" fill-rule="evenodd"/>
		<path id="Vector" d="M149.63 45.85C149.35 46.02 149.06 46.11 148.97 46.28C148.92 46.38 149.13 46.68 149.28 46.85C149.8 47.45 150.32 47.99 150.87 48.56C151.1 48.82 151.34 49.08 151.58 49.35C151.91 49.7 152.25 50.03 152.55 50.41C152.63 50.51 152.58 50.72 152.58 50.87C152.41 50.87 152.22 50.91 152.06 50.87C151.96 50.84 151.91 50.7 151.84 50.63C151.3 49.99 150.8 49.3 150.23 48.7C149.73 48.21 149.18 47.75 148.61 47.33C148.3 47.09 148.02 47.18 147.66 47.59C147.42 47.85 147.45 48.01 147.73 48.28C148.16 48.68 148.49 49.18 148.92 49.58C149.3 49.96 149.73 50.27 150.16 50.63C150.53 50.94 150.94 51.25 151.34 51.53C151.67 51.77 152.01 52.01 152.34 52.24C152.51 52.36 152.72 52.41 152.89 52.53C153.1 52.67 153.27 52.98 153.46 52.98C153.67 52.98 153.86 52.69 154.08 52.55C154.14 52.5 154.22 52.43 154.29 52.36C155 51.6 155.19 51.63 155.98 52.34C156.57 52.86 157.21 53.36 157.88 53.79C158.47 54.17 159.04 54.07 159.47 53.55C159.63 53.34 159.77 53.08 159.89 52.84C160.39 51.89 161.01 51.03 161.77 50.3C162.36 49.7 162.41 49.58 161.79 49.01C161.75 48.97 161.7 48.94 161.67 48.89C160.35 47.68 158.89 46.66 157.4 45.69C156.83 45.31 156.78 44.9 157.21 44.41C157.95 43.6 158.68 42.77 159.37 41.93C159.89 41.32 159.85 41.01 159.23 40.51C159.06 40.39 158.89 40.25 158.75 40.13C158.56 39.99 158.42 39.99 158.23 40.2C157.92 40.58 157.59 40.98 157.23 41.32C156.64 41.86 156.17 42.46 155.9 43.22C155.74 43.74 155.24 43.91 154.74 43.65C154.27 43.38 153.81 43.1 153.46 42.67C153.03 42.17 152.58 42.22 152.13 42.72C151.96 42.91 151.79 43.08 151.63 43.24C151.41 43.45 151.41 43.57 151.7 43.76C152.29 44.17 152.86 44.62 153.46 45.07C154.08 45.55 154.67 46.02 155.26 46.54C155.38 46.64 155.36 46.9 155.41 47.09C155.24 47.09 155.02 47.16 154.93 47.07C154.29 46.59 153.67 46.07 153.03 45.62C152.41 45.16 151.79 44.74 151.15 44.33C150.77 44.1 150.63 44.5 150.46 44.69C150.25 44.93 150.46 45.02 150.63 45.16C151.18 45.59 151.7 46.02 152.22 46.47C152.74 46.95 153.27 47.42 153.79 47.9C153.98 48.06 154.12 48.28 153.88 48.47C153.79 48.56 153.53 48.49 153.34 48.47C153.27 48.47 153.22 48.4 153.15 48.35C152.36 47.71 151.58 47.07 150.77 46.47C150.39 46.19 150.01 46.04 149.63 45.85ZM153.53 54.05C153.17 53.83 152.79 53.67 152.48 53.43C151.18 52.43 149.89 51.44 148.61 50.41C148.37 50.23 148.21 49.94 147.95 49.73C147.42 49.3 146.85 48.94 146.31 48.54C145.95 48.28 145.9 48.01 146.21 47.71C146.54 47.35 146.92 46.99 147.3 46.66C148.71 45.43 149.89 43.98 151.08 42.55C151.46 42.1 151.86 41.7 152.25 41.29C152.48 41.06 152.98 41.03 153.27 41.25C153.55 41.48 153.84 41.72 154.1 41.98C154.55 42.43 154.79 42.5 155.33 42.15C155.62 41.96 155.9 41.72 156.12 41.46C156.69 40.79 157.19 40.08 157.76 39.42C158.35 38.73 158.73 38.77 159.35 39.46C159.63 39.8 160.04 40.03 160.42 40.27C160.96 40.63 161.06 40.87 160.68 41.39C160.44 41.75 160.16 42.05 159.89 42.41C159.44 43.03 158.97 43.62 158.54 44.24C158.14 44.81 158.14 44.95 158.66 45.38C159.18 45.83 159.75 46.21 160.27 46.64C160.89 47.14 161.49 47.64 162.08 48.13C162.44 48.42 162.79 48.7 163.15 49.01C163.41 49.25 163.43 49.51 163.2 49.8C162.53 50.53 161.84 51.22 161.22 52.01C160.7 52.67 160.3 53.41 159.85 54.1C159.77 54.22 159.73 54.33 159.66 54.43C159.28 55.02 159.25 55.05 158.64 54.74C157.64 54.24 156.66 53.69 155.69 53.15C155.36 52.96 155.1 52.89 154.81 53.22C154.62 53.43 154.38 53.57 154.14 53.74C153.96 53.83 153.79 53.91 153.53 54.05Z" fill="#181715" fill-opacity="1.000000" fill-rule="evenodd"/>
		<path id="Vector" d="M103.12 45.4C103.22 45.31 103.24 45.02 103.17 44.95C102.72 44.38 102.29 43.79 101.74 43.31C100.75 42.48 99.8 41.58 98.66 40.96C98.58 40.91 98.49 40.87 98.42 40.82C97.92 40.37 97.92 40.37 97.4 40.77C97.3 40.84 97.18 40.94 97.11 41.03C96.56 41.6 96.3 41.58 95.71 41.03C95.19 40.53 94.64 40.06 94.02 39.65C93.24 39.13 92.79 39.27 92.26 40.06C91.72 40.87 91.12 41.65 90.55 42.46C90.41 42.65 90.2 42.79 90.03 42.96C89.82 43.17 89.75 43.41 90.03 43.62L90.39 43.98C91.58 45.14 92.93 46.12 94.28 47.04C94.71 47.33 94.74 47.71 94.4 48.09C93.74 48.82 93.05 49.58 92.36 50.32C91.84 50.89 91.84 51.2 92.41 51.7C92.53 51.82 92.67 51.91 92.79 52.01C92.98 52.17 93.12 52.17 93.31 51.96C93.62 51.6 93.93 51.27 94.26 50.96C94.78 50.49 95.21 49.99 95.45 49.3C95.61 48.8 96.07 48.63 96.52 48.92C96.9 49.16 97.28 49.44 97.61 49.77C98.06 50.23 98.46 50.27 98.89 49.82C99.06 49.66 99.25 49.49 99.39 49.3C99.44 49.23 99.41 49.01 99.34 48.94C98.3 48.06 97.21 47.21 96.16 46.33C96.04 46.23 95.8 45.97 95.97 45.81C96.14 45.64 96.35 45.74 96.45 45.83C97.02 46.26 97.56 46.76 98.13 47.21C98.66 47.61 99.2 48.02 99.77 48.37C100.1 48.58 100.29 48.33 100.46 48.11C100.65 47.85 100.44 47.78 100.29 47.64C99.41 46.83 98.54 46.02 97.68 45.24C97.49 45.07 97.18 44.88 97.42 44.59C97.68 44.29 97.92 44.62 98.13 44.74C98.16 44.76 98.18 44.79 98.2 44.81C98.92 45.4 99.6 46 100.32 46.57C100.56 46.76 100.86 46.85 101.17 47C101.41 46.85 101.62 46.78 101.79 46.64C101.84 46.59 101.77 46.35 101.67 46.26C100.93 45.43 100.2 44.59 99.44 43.76C99.15 43.45 98.84 43.15 98.58 42.81C98.51 42.72 98.37 42.6 98.58 42.36C98.8 42.15 98.92 42.36 99.06 42.41C99.08 42.41 99.08 42.41 99.08 42.43C99.15 42.48 99.2 42.6 99.25 42.67C99.87 43.41 100.46 44.19 101.1 44.9C101.1 44.9 101.72 45.62 101.96 45.74C102.34 45.81 103.12 45.4 103.12 45.4ZM104.31 44.62C104.67 44.88 104.67 45.07 104.38 45.4C104.07 45.74 103.71 46 103.41 46.31C102.19 47.54 101.01 48.8 99.82 50.06C99.46 50.41 99.13 50.8 98.77 51.13C98.68 51.22 98.51 51.25 98.49 51.27C97.82 51.29 97.54 50.91 97.21 50.58C96.42 49.8 96.35 49.84 95.66 50.49C94.9 51.17 94.33 52.08 93.74 52.91C93.48 53.29 92.98 53.41 92.6 53.05C92.05 52.55 91.53 52.01 91 51.48C90.75 51.22 90.96 50.99 91.12 50.8C91.55 50.25 92.03 49.7 92.48 49.16C92.62 48.97 92.79 48.78 92.91 48.56C93.52 47.59 93.5 47.59 92.69 46.83C92.53 46.68 92.36 46.54 92.17 46.4C91.34 45.74 90.51 45.09 89.67 44.43C89.41 44.22 89.15 43.95 88.91 43.72C88.73 43.53 88.65 43.31 88.91 43.1C90.03 42.24 90.89 41.15 91.62 39.94C91.81 39.63 92 39.3 92.17 38.97C92.43 38.49 92.69 38.37 93.22 38.63C94.09 39.11 94.97 39.58 95.83 40.11C96.18 40.32 96.42 40.39 96.75 40.08C97.7 39.23 97.99 39.25 99.03 40.15C99.44 40.51 99.46 40.41 102.15 42.62C102.69 43.19 103.43 43.91 104.31 44.62Z" fill="#181715" fill-opacity="1.000000" fill-rule="evenodd"/>
	</g>
</svg>
