<svg width="100%" height="100%" viewBox="0 0 80 80" fill="none" xmlns="http://www.w3.org/2000/svg" xmlns:xlink="http://www.w3.org/1999/xlink">
	<desc>
			Created with Pixso.
	</desc>
	<defs>
		<clipPath id="clip3358_1862">
			<rect id="telephone.svg" width="100%" height="100%" transform="translate(-0.757812 -0.447266)" fill="white" fill-opacity="0"/>
		</clipPath>
		<clipPath id="clip3358_1861">
			<rect id="telephone.svg fill" width="100%" height="100%" transform="translate(-0.757812 -0.447266)" fill="white" fill-opacity="0"/>
		</clipPath>
	</defs>
	<g clip-path="url(#clip3358_1861)">
		<g clip-path="url(#clip3358_1862)">
			<path id="Vector" d="M40.12 52.41C39.85 52.15 39.49 52.01 39.1 52.05C38.73 52.1 38.39 52.31 38.18 52.63L30.27 65.06L13.72 48.51L26.16 40.6C26.48 40.4 26.69 40.06 26.73 39.68C26.77 39.31 26.64 38.93 26.37 38.66L13.87 26.16C13.38 25.67 12.59 25.67 12.1 26.16L6.16 32.11C2.5 35.77 0.49 40.63 0.49 45.8C0.49 50.97 2.5 55.83 6.16 59.49L19.3 72.63C22.96 76.28 27.82 78.3 32.99 78.3C38.16 78.3 43.02 76.28 46.67 72.63L52.62 66.68C52.86 66.45 52.99 66.13 52.99 65.8C52.99 65.47 52.86 65.15 52.62 64.91L40.12 52.41ZM12.99 28.82L23.5 39.33L19.55 41.84L9.75 32.05L12.99 28.82ZM32.99 75.8C28.48 75.8 24.25 74.04 21.07 70.86L7.92 57.72C4.74 54.53 2.99 50.3 2.99 45.8C2.99 41.29 4.74 37.06 7.92 33.88L7.99 33.82L17.39 43.22L11.07 47.24C10.75 47.45 10.54 47.79 10.5 48.16C10.45 48.54 10.58 48.91 10.85 49.18L29.6 67.93C29.87 68.2 30.24 68.33 30.62 68.29C31 68.25 31.34 68.04 31.54 67.72L35.57 61.39L44.97 70.8L44.91 70.86C41.72 74.04 37.49 75.8 32.99 75.8ZM46.74 69.03L36.94 59.24L39.46 55.28L49.97 65.8L46.74 69.03Z" fill="#000000" fill-opacity="1.000000" fill-rule="evenodd"/>
			<path id="Vector" d="M77.65 1.19C77.32 0.85 76.83 0.71 76.38 0.85L65.96 3.98C64.58 3.53 63.16 3.3 61.74 3.3C55.22 3.3 49.56 7.92 48.26 14.3L50.71 14.8C51.77 9.58 56.41 5.8 61.74 5.8C63.01 5.8 64.28 6.02 65.52 6.46C65.77 6.55 66.04 6.56 66.3 6.49L74.68 3.97L71.91 11.37C71.79 11.69 71.8 12.03 71.94 12.34C72.64 13.83 72.99 15.42 72.99 17.05C72.99 23.25 67.94 28.3 61.74 28.3C57.26 28.3 53.22 25.65 51.42 21.55L49.13 22.55C51.32 27.56 56.27 30.8 61.74 30.8C69.32 30.8 75.49 24.63 75.49 17.05C75.49 15.23 75.13 13.46 74.42 11.77L77.91 2.49C78.07 2.04 77.98 1.54 77.65 1.19Z" fill="#000000" fill-opacity="1.000000" fill-rule="evenodd"/>
			<path id="Vector" d="M47.99 42.05C46.71 42.05 45.44 41.82 44.21 41.38C43.96 41.29 43.68 41.28 43.43 41.36L35.04 43.87L37.82 36.47C37.94 36.16 37.92 35.81 37.78 35.51C37.09 34.01 36.74 32.42 36.74 30.8C36.74 24.6 41.78 19.55 47.99 19.55C52.46 19.55 56.51 22.2 58.3 26.3L60.59 25.3C58.4 20.29 53.45 17.05 47.99 17.05C40.41 17.05 34.24 23.22 34.24 30.8C34.24 32.61 34.59 34.39 35.3 36.07L31.82 45.36C31.65 45.8 31.75 46.3 32.08 46.65C32.31 46.91 32.65 47.05 32.99 47.05C33.11 47.05 33.23 47.03 33.34 47L43.76 43.87C45.14 44.32 46.56 44.55 47.99 44.55C54.5 44.55 60.17 39.92 61.46 33.55L59.01 33.05C57.95 38.26 53.32 42.05 47.99 42.05Z" fill="#000000" fill-opacity="1.000000" fill-rule="evenodd"/>
			<path id="Vector" d="M41.74 29.55L44.24 29.55L44.24 32.05L41.74 32.05L41.74 29.55Z" fill="#000000" fill-opacity="1.000000" fill-rule="evenodd"/>
			<path id="Vector" d="M46.74 29.55L49.24 29.55L49.24 32.05L46.74 32.05L46.74 29.55Z" fill="#000000" fill-opacity="1.000000" fill-rule="evenodd"/>
			<path id="Vector" d="M51.74 29.55L54.24 29.55L54.24 32.05L51.74 32.05L51.74 29.55Z" fill="#000000" fill-opacity="1.000000" fill-rule="evenodd"/>
			<path id="Vector" d="M55.49 15.8L57.99 15.8L57.99 18.3L55.49 18.3L55.49 15.8Z" fill="#000000" fill-opacity="1.000000" fill-rule="evenodd"/>
			<path id="Vector" d="M60.49 15.8L62.99 15.8L62.99 18.3L60.49 18.3L60.49 15.8Z" fill="#000000" fill-opacity="1.000000" fill-rule="evenodd"/>
			<path id="Vector" d="M65.49 15.8L67.99 15.8L67.99 18.3L65.49 18.3L65.49 15.8Z" fill="#000000" fill-opacity="1.000000" fill-rule="evenodd"/>
		</g>
	</g>
</svg>
