<svg width="100%" height="100%" viewBox="0 0 80 80" fill="none" xmlns="http://www.w3.org/2000/svg" xmlns:xlink="http://www.w3.org/1999/xlink">
	<desc>
			Created with Pixso.
	</desc>
	<defs>
		<clipPath id="clip3358_1947">
			<rect id="tourist-guide.svg" width="100%" height="100%" transform="translate(-0.757812 -0.447266)" fill="white" fill-opacity="0"/>
		</clipPath>
		<clipPath id="clip3358_1946">
			<rect id="tourist-guide.svg fill" width="100%" height="100%" transform="translate(-0.757812 -0.447266)" fill="white" fill-opacity="0"/>
		</clipPath>
	</defs>
	<g clip-path="url(#clip3358_1946)">
		<g clip-path="url(#clip3358_1947)">
			<path id="Vector" d="M61.03 7.08L59.24 7.08L59.24 4.3C59.24 2.88 58.64 1.61 57.55 0.73C56.22 -0.34 54.32 -0.71 52.33 -0.27L18.59 7.08L17.44 7.08C13.75 7.08 10.74 10.09 10.74 13.79L10.74 72.84C10.74 76.54 13.75 79.55 17.44 79.55L61.03 79.55C64.73 79.55 67.74 76.54 67.74 72.84L67.74 13.79C67.74 10.09 64.73 7.08 61.03 7.08ZM52.96 2.61C54.05 2.37 55.08 2.53 55.69 3.02C56.09 3.34 56.29 3.77 56.29 4.3L56.29 7.08L32.46 7.08L52.96 2.61ZM64.79 72.84C64.79 74.91 63.1 76.6 61.03 76.6L17.44 76.6C15.37 76.6 13.69 74.91 13.69 72.84L13.69 13.79C13.69 11.71 15.37 10.03 17.44 10.03L61.03 10.03C63.1 10.03 64.79 11.71 64.79 13.79L64.79 72.84Z" fill="#010002" fill-opacity="1.000000" fill-rule="evenodd"/>
			<path id="Vector" d="M49.21 35.04L48.93 26.05C48.88 24.37 47.47 23.04 45.78 23.09L35.55 23.39C34.85 23.41 34.33 23.6 34 23.96C33.54 24.44 33.38 25.36 34.42 26.35L37.09 28.85C33.99 30.36 27.06 34.45 24.22 41.71C24.16 41.88 24.1 42.05 24.04 42.23C23.91 42.6 23.78 42.98 23.67 43.37C23.6 43.6 23.54 43.84 23.49 44.08C23.45 44.25 23.39 44.42 23.35 44.6C23.12 45.74 23.05 46.82 23.05 47.7C23.05 47.71 23.05 47.73 23.05 47.74C23.05 47.76 23.05 47.77 23.05 47.79C23.06 48.12 23.07 48.41 23.09 48.66C23.58 57.15 30.62 63.92 39.24 63.92C48.16 63.92 55.42 56.66 55.42 47.74C55.42 42.59 52.98 38.01 49.21 35.04ZM24.77 47.68C24.79 47.68 24.8 47.68 24.81 47.68C24.8 47.71 24.78 47.73 24.76 47.76C24.76 47.73 24.77 47.7 24.77 47.68ZM25.09 52.61C24.83 51.87 24.64 51.1 24.5 50.32C24.87 50.27 25.26 50.02 25.47 49.85C25.64 49.73 26.1 48.83 26.77 47.67L29.85 47.67C30.53 47.67 31.07 47.71 31.07 47.76C31.06 47.79 31.06 47.82 31.06 47.85C31.08 49.39 31.44 51.03 31.97 52.6C32.19 53.24 31.85 53.74 31.17 53.74L26.75 53.74C26.08 53.74 25.31 53.25 25.09 52.61ZM27.5 46.45C27.67 46.17 27.85 45.89 28.05 45.61C29.09 44.06 30.28 42.73 31.51 41.57C31.69 41.78 31.77 42.08 31.68 42.43C31.47 43.31 31.31 44.25 31.21 45.24C31.14 45.91 30.57 46.45 29.9 46.45L27.5 46.45ZM36.74 62.49C32.58 61.79 29.01 59.38 26.76 56C26.39 55.44 26.68 54.96 27.35 54.96L31.69 54.96C32.36 54.96 33.12 55.46 33.43 56.06C34.2 57.57 35.03 58.89 35.74 59.8L37.2 61.68C37.61 62.21 37.4 62.6 36.74 62.49ZM37.88 60.58L36.7 59.05C36.13 58.32 35.45 57.27 34.8 56.05C34.49 55.45 34.8 54.96 35.47 54.96L37.41 54.96C38.08 54.96 38.63 55.5 38.63 56.18L38.63 60.33C38.63 61 38.29 61.11 37.88 60.58ZM38.63 52.53C38.63 53.2 38.09 53.74 37.41 53.74L34.92 53.74C34.25 53.74 33.49 53.24 33.26 52.61C32.69 51.03 32.3 49.37 32.28 47.84C32.28 47.81 32.28 47.78 32.28 47.75C32.29 47.71 32.83 47.66 33.5 47.66L37.41 47.66C38.09 47.66 38.63 48.21 38.63 48.88L38.63 52.53ZM37.41 46.45L33.55 46.45C32.88 46.45 32.35 45.91 32.43 45.24C32.54 44.24 32.71 43.3 32.95 42.42C33.13 41.78 33.86 41.26 34.53 41.26L37.41 41.26C38.08 41.26 38.63 41.81 38.63 42.48L38.63 45.23C38.63 45.9 38.09 46.45 37.41 46.45ZM38.63 38.83C38.63 39.5 38.09 40.05 37.42 40.05L35.04 40.05C34.49 40.05 34.2 39.71 34.3 39.27C35.81 38.19 37.29 37.35 38.63 36.7L38.63 38.83ZM25.5 46.44C25.28 46.43 25.08 46.35 24.92 46.23C26.35 34.75 38.47 29.72 38.61 29.67L39.64 29.19L38.62 28.17L35.46 25.25C35.34 25.13 35.26 25.03 35.21 24.96C35.29 24.93 35.41 24.91 35.59 24.91L45.83 24.6C46.68 24.57 47.39 25.25 47.42 26.1L47.73 36.33C47.74 36.52 47.72 36.64 47.7 36.72C47.63 36.67 47.52 36.6 47.4 36.48L43.83 33.13C43.7 33.15 31.61 35.92 25.5 46.44ZM43.65 40.05L41.06 40.05C40.39 40.05 39.84 39.5 39.84 38.83L39.84 36.13C40.5 35.85 41.1 35.61 41.62 35.42C42.51 36.44 43.47 37.65 44.28 38.99C44.62 39.56 44.32 40.05 43.65 40.05ZM45.76 42.42C46.01 43.3 46.2 44.24 46.32 45.24C46.4 45.9 45.88 46.45 45.21 46.45L41.06 46.45C40.39 46.45 39.85 45.9 39.85 45.23L39.85 42.48C39.85 41.81 40.39 41.26 41.06 41.26L44.16 41.26C44.83 41.26 45.58 41.77 45.76 42.42ZM39.84 48.88C39.84 48.21 40.39 47.67 41.06 47.67L45.27 47.67C45.94 47.67 46.48 47.68 46.48 47.7C46.48 47.72 46.49 47.73 46.49 47.74C46.49 49.31 46.08 51 45.47 52.62C45.24 53.25 44.47 53.74 43.8 53.74L41.06 53.74C40.39 53.74 39.84 53.2 39.84 52.53L39.84 48.88ZM39.85 60.38L39.85 56.17C39.85 55.5 40.39 54.96 41.06 54.96L43.23 54.96C43.91 54.96 44.21 55.45 43.88 56.04C43.21 57.24 42.51 58.28 41.9 59.04L40.61 60.65C40.19 61.17 39.85 61.05 39.85 60.38ZM51.71 56C49.47 59.37 45.91 61.78 41.77 62.48C41.11 62.6 40.91 62.22 41.33 61.69L42.85 59.8C43.58 58.89 44.45 57.57 45.25 56.05C45.56 55.45 46.34 54.96 47.01 54.96L51.13 54.96C51.8 54.96 52.08 55.44 51.71 56ZM54.21 47.74C54.21 49.45 53.91 51.09 53.39 52.61C53.17 53.25 52.4 53.75 51.73 53.75L47.54 53.75C46.87 53.75 46.53 53.24 46.76 52.61C47.33 50.99 47.71 49.32 47.71 47.74C47.71 47.73 47.71 47.71 47.71 47.71C47.7 47.68 48.25 47.67 48.92 47.67L52.99 47.67C53.66 47.67 54.2 47.69 54.21 47.71C54.21 47.72 54.21 47.73 54.21 47.74ZM53.19 42.38C53.55 43.29 53.82 44.25 53.98 45.24C54.1 45.9 53.59 46.45 52.92 46.45L48.85 46.45C48.18 46.45 47.61 45.9 47.54 45.24C47.43 44.26 47.26 43.31 47.04 42.43C46.87 41.78 47.23 41.26 47.9 41.26L51.49 41.26C52.16 41.26 52.95 41.75 53.19 42.38ZM50.83 40.05L47.41 40.05C46.74 40.05 46.16 39.97 46.12 39.87C46.1 39.8 46.08 39.74 46.05 39.69C45.18 37.92 43.99 36.32 42.88 35.01C43.08 34.94 43.27 34.89 43.41 34.85L46.36 37.59C47.41 38.57 48.32 38.35 48.77 37.87C49.04 37.59 49.16 37.16 49.2 36.66C50 37.38 50.75 38.16 51.38 39.04C51.77 39.58 51.5 40.05 50.83 40.05Z" fill="#010002" fill-opacity="1.000000" fill-rule="evenodd"/>
		</g>
	</g>
</svg>
