<svg width="100%" height="100%" viewBox="0 0 80 80" fill="none" xmlns="http://www.w3.org/2000/svg" xmlns:xlink="http://www.w3.org/1999/xlink">
	<desc>
			Created with Pixso.
	</desc>
	<defs>
		<clipPath id="clip3358_1907">
			<rect id="multiple-files.svg" width="100%" height="100%" transform="translate(-0.757812 -0.447266)" fill="white" fill-opacity="0"/>
		</clipPath>
	</defs>
	<g clip-path="url(#clip3358_1907)">
		<path id="Vector" d="M5.9 12.51L46.79 5.3L56.7 61.47L15.81 68.68L5.9 12.51Z" fill="#F9F9F9" fill-opacity="1.000000" fill-rule="nonzero"/>
		<path id="Vector" d="M46.79 5.3L56.7 61.47L15.81 68.68L5.9 12.51L46.79 5.3Z" stroke="#000000" stroke-opacity="1.000000" stroke-width="1.600000"/>
		<path id="Vector" d="M11.3 19.31L40.24 14.21L40.78 17.3L11.85 22.4L11.3 19.31Z" fill="#000000" fill-opacity="1.000000" fill-rule="evenodd"/>
		<path id="Vector" d="M12.16 24.15L37.15 19.75L37.7 22.84L12.7 27.25L12.16 24.15Z" fill="#000000" fill-opacity="1.000000" fill-rule="evenodd"/>
		<path id="Vector" d="M13.02 29.04L41.2 24.07L41.75 27.16L13.56 32.13L13.02 29.04Z" fill="#000000" fill-opacity="1.000000" fill-rule="evenodd"/>
		<path id="Vector" d="M13.88 33.9L35.13 30.16L35.67 33.25L14.42 37L13.88 33.9Z" fill="#000000" fill-opacity="1.000000" fill-rule="evenodd"/>
		<path id="Vector" d="M15.26 41.72L43.78 36.69L44.32 39.79L15.8 44.81L15.26 41.72Z" fill="#000000" fill-opacity="1.000000" fill-rule="evenodd"/>
		<path id="Vector" d="M16.19 47L42.97 42.28L43.52 45.37L16.73 50.09L16.19 47Z" fill="#000000" fill-opacity="1.000000" fill-rule="evenodd"/>
		<path id="Vector" d="M17.08 52.08L46.65 46.87L47.19 49.96L17.63 55.17L17.08 52.08Z" fill="#000000" fill-opacity="1.000000" fill-rule="evenodd"/>
		<path id="Vector" d="M18.01 57.36L36.37 54.12L36.92 57.22L18.56 60.45L18.01 57.36Z" fill="#000000" fill-opacity="1.000000" fill-rule="evenodd"/>
		<path id="Vector" d="M31.22 12.61L72.58 16.23L67.61 73.05L26.25 69.44L31.22 12.61Z" fill="#F9F9F9" fill-opacity="1.000000" fill-rule="nonzero"/>
		<path id="Vector" d="M72.58 16.23L67.61 73.05L26.25 69.44L31.22 12.61L72.58 16.23Z" stroke="#000000" stroke-opacity="1.000000" stroke-width="1.600000"/>
		<path id="Vector" d="M34.64 20.55L63.91 23.12L63.63 26.24L34.37 23.68L34.64 20.55Z" fill="#000000" fill-opacity="1.000000" fill-rule="evenodd"/>
		<path id="Vector" d="M34.21 25.48L59.49 27.69L59.22 30.82L33.94 28.6L34.21 25.48Z" fill="#000000" fill-opacity="1.000000" fill-rule="evenodd"/>
		<path id="Vector" d="M33.78 30.38L62.29 32.87L62.02 36L33.51 33.5L33.78 30.38Z" fill="#000000" fill-opacity="1.000000" fill-rule="evenodd"/>
		<path id="Vector" d="M33.35 35.32L54.85 37.2L54.57 40.33L33.08 38.45L33.35 35.32Z" fill="#000000" fill-opacity="1.000000" fill-rule="evenodd"/>
		<path id="Vector" d="M32.66 43.21L61.51 45.73L61.24 48.86L32.39 46.34L32.66 43.21Z" fill="#000000" fill-opacity="1.000000" fill-rule="evenodd"/>
		<path id="Vector" d="M32.19 48.59L59.3 50.96L59.03 54.09L31.91 51.71L32.19 48.59Z" fill="#000000" fill-opacity="1.000000" fill-rule="evenodd"/>
		<path id="Vector" d="M31.74 53.71L61.65 56.32L61.37 59.45L31.47 56.84L31.74 53.71Z" fill="#000000" fill-opacity="1.000000" fill-rule="evenodd"/>
		<path id="Vector" d="M31.27 59.05L49.86 60.67L49.59 63.8L31 62.17L31.27 59.05Z" fill="#000000" fill-opacity="1.000000" fill-rule="evenodd"/>
		<path id="Vector" d="M19.3 16.75L60.82 16.75L60.82 73.79L19.3 73.79L19.3 16.75Z" fill="#F9F9F9" fill-opacity="1.000000" fill-rule="nonzero"/>
		<path id="Vector" d="M60.82 16.75L60.82 73.79L19.3 73.79L19.3 16.75L60.82 16.75Z" stroke="#000000" stroke-opacity="1.000000" stroke-width="1.600000"/>
		<path id="Vector" d="M23.4 24.36L52.78 24.36L52.78 27.5L23.4 27.5L23.4 24.36Z" fill="#000000" fill-opacity="1.000000" fill-rule="evenodd"/>
		<path id="Vector" d="M23.4 29.32L48.78 29.32L48.78 32.48L23.4 32.48L23.4 29.32Z" fill="#000000" fill-opacity="1.000000" fill-rule="evenodd"/>
		<path id="Vector" d="M23.4 34.26L52.02 34.26L52.02 37.4L23.4 37.4L23.4 34.26Z" fill="#000000" fill-opacity="1.000000" fill-rule="evenodd"/>
		<path id="Vector" d="M23.4 39.2L44.98 39.2L44.98 42.34L23.4 42.34L23.4 39.2Z" fill="#000000" fill-opacity="1.000000" fill-rule="evenodd"/>
		<path id="Vector" d="M23.4 47.14L52.36 47.14L52.36 50.28L23.4 50.28L23.4 47.14Z" fill="#000000" fill-opacity="1.000000" fill-rule="evenodd"/>
		<path id="Vector" d="M23.4 52.5L50.62 52.5L50.62 55.64L23.4 55.64L23.4 52.5Z" fill="#000000" fill-opacity="1.000000" fill-rule="evenodd"/>
		<path id="Vector" d="M23.4 57.64L53.42 57.64L53.42 60.78L23.4 60.78L23.4 57.64Z" fill="#000000" fill-opacity="1.000000" fill-rule="evenodd"/>
		<path id="Vector" d="M23.4 63.04L42.04 63.04L42.04 66.18L23.4 66.18L23.4 63.04Z" fill="#000000" fill-opacity="1.000000" fill-rule="evenodd"/>
	</g>
</svg>
