<svg width="100%" height="100%" viewBox="0 0 80 80" fill="none" xmlns="http://www.w3.org/2000/svg" xmlns:xlink="http://www.w3.org/1999/xlink">
	<desc>
			Created with Pixso.
	</desc>
	<defs>
		<clipPath id="clip3358_1878">
			<rect id="businessman-personal.svg" width="80.000458" height="100%" transform="translate(-0.757812 -0.447266)" fill="white" fill-opacity="0"/>
		</clipPath>
		<clipPath id="clip3358_1877">
			<rect id="businessman-personal.svg fill" width="100%" height="100%" transform="translate(-0.757812 -0.447266)" fill="white" fill-opacity="0"/>
		</clipPath>
	</defs>
	<g clip-path="url(#clip3358_1877)">
		<g clip-path="url(#clip3358_1878)">
			<path id="Vector" d="M56.28 60.69L22.19 60.69C21.37 60.69 20.71 61.35 20.71 62.17C20.71 62.99 21.37 63.66 22.19 63.66L56.28 63.66C57.1 63.66 57.76 62.99 57.76 62.17C57.76 61.35 57.1 60.69 56.28 60.69Z" fill="#000000" fill-opacity="1.000000" fill-rule="evenodd"/>
			<path id="Vector" d="M56.28 67.45L39.24 67.45C38.42 67.45 37.75 68.11 37.75 68.94C37.75 69.76 38.41 70.42 39.24 70.42L56.28 70.42C57.1 70.42 57.76 69.76 57.76 68.94C57.76 68.11 57.1 67.45 56.28 67.45Z" fill="#000000" fill-opacity="1.000000" fill-rule="evenodd"/>
			<path id="Vector" d="M25.07 47.74C25.07 52.4 53.4 52.4 53.4 47.74C53.4 43.8 48.86 38.47 42.73 36.91C45.29 35.19 47.06 31.79 47.06 28.73C47.06 24.41 43.56 20.9 39.24 20.9C34.91 20.9 31.41 24.41 31.41 28.73C31.41 31.79 33.18 35.2 35.74 36.91C29.61 38.47 25.07 43.8 25.07 47.74ZM38.6 39.19L38.57 39.19L37.27 37.7C37.9 37.92 38.55 38.06 39.24 38.06C39.92 38.06 40.57 37.93 41.2 37.71L39.9 39.19L39.87 39.19L43.21 47.27L39.24 51.24L35.26 47.27L38.6 39.19Z" fill="#000000" fill-opacity="1.000000" fill-rule="evenodd"/>
			<path id="Vector" d="M60.74 3.4C61.2 4.53 61.51 5.71 61.51 6.92L61.51 10.06C61.61 10.48 61.68 10.91 61.68 11.35L61.68 70.33C61.68 73.38 59.2 75.86 56.15 75.86L22.32 75.86C19.28 75.86 16.8 73.38 16.8 70.33L16.8 11.35C16.8 8.3 19.28 5.82 22.32 5.82L45.43 5.82C45.59 4.49 45.98 3.23 46.64 2.13L22.32 2.13C17.24 2.13 13.11 6.26 13.11 11.35L13.11 70.33C13.11 75.41 17.24 79.55 22.32 79.55L56.15 79.55C61.23 79.55 65.36 75.41 65.36 70.33L65.36 11.35C65.37 7.94 63.49 5 60.74 3.4Z" fill="#000000" fill-opacity="1.000000" fill-rule="evenodd"/>
			<path id="Vector" d="M53.41 20.61C57.09 20.61 60.09 17.3 60.09 13.24L60.09 6.92C60.09 5.49 59.7 4.16 59.06 3.03L57.5 4.59C57.8 5.3 57.99 6.08 57.99 6.92L57.99 13.24C57.99 16.15 55.93 18.5 53.41 18.51C50.88 18.5 48.83 16.15 48.83 13.24L48.83 6.92C48.83 4.02 50.89 1.66 53.41 1.65C54.18 1.66 54.9 1.9 55.53 2.28L57.05 0.76C56 0 54.75 -0.45 53.41 -0.45C49.72 -0.45 46.73 2.85 46.73 6.92L46.72 13.24C46.72 17.3 49.72 20.61 53.41 20.61Z" fill="#000000" fill-opacity="1.000000" fill-rule="evenodd"/>
		</g>
	</g>
</svg>
