<svg width="18.000000" height="35.000000" viewBox="0 0 18 35" fill="none" xmlns="http://www.w3.org/2000/svg" xmlns:xlink="http://www.w3.org/1999/xlink">
	<desc>
			Created with Pixso.
	</desc>
	<defs/>
	<path id="Vector" d="M15.59 -0.25L10.62 -0.25C5.58 -0.25 0.47 3.46 0.47 11.79C0.47 16.13 2.29 19.42 5.65 21.38L-0.44 32.44C-0.72 32.93 -0.72 33.56 -0.44 34.05C-0.16 34.54 0.33 34.75 0.89 34.75L3.97 34.75C4.67 34.75 5.23 34.4 5.51 33.84L11.25 22.64L11.67 22.64L11.67 33.35C11.67 34.12 12.3 34.75 13.07 34.75L15.8 34.75C16.64 34.75 17.27 34.19 17.27 33.28L17.27 1.29C17.13 0.38 16.5 -0.25 15.59 -0.25ZM11.6 17.6L10.83 17.6C7.96 17.6 6.28 15.29 6.28 11.37C6.28 6.47 8.45 4.79 10.48 4.79L11.6 4.79L11.6 17.6Z" fill="#D7143A" fill-opacity="1.000000" fill-rule="evenodd"/>
</svg>
